{
.appVersion = "3058";
.formatVersion = 3;
date = "2021-03-14 16:19:41 +0000";
familyName = KuganeDot;
fontMaster = (
{
id = m01;
metricValues = (
{
over = 16;
pos = 800;
},
{
over = -16;
},
{
over = -16;
pos = -200;
}
);
name = Regular;
}
);
glyphs = (
{
glyphname = "a-hira";
lastChange = "2021-03-04 18:32:12 +0000";
layers = (
{
layerId = m01;
shapes = (
{
attr = {
fillColor = (0,255);
};
closed = 1;
nodes = (
(450,400,l),
(450,300,l),
(350,300,l),
(350,400,l)
);
},
{
attr = {
fillColor = (0,255);
};
closed = 1;
nodes = (
(650,400,l),
(650,300,l),
(550,300,l),
(550,400,l)
);
},
{
attr = {
fillColor = (0,255);
};
closed = 1;
nodes = (
(450,500,l),
(450,400,l),
(350,400,l),
(350,500,l)
);
},
{
attr = {
fillColor = (0,255);
};
closed = 1;
nodes = (
(450,600,l),
(450,500,l),
(350,500,l),
(350,600,l)
);
},
{
attr = {
fillColor = (0,255);
};
closed = 1;
nodes = (
(450,700,l),
(450,600,l),
(350,600,l),
(350,700,l)
);
},
{
attr = {
fillColor = (0,255);
};
closed = 1;
nodes = (
(450,800,l),
(450,700,l),
(350,700,l),
(350,800,l)
);
},
{
attr = {
fillColor = (0,255);
};
closed = 1;
nodes = (
(350,800,l),
(350,700,l),
(250,700,l),
(250,800,l)
);
},
{
attr = {
fillColor = (0,255);
};
closed = 1;
nodes = (
(450,-100,l),
(450,-200,l),
(350,-200,l),
(350,-100,l)
);
},
{
attr = {
fillColor = (0,255);
};
closed = 1;
nodes = (
(450,0,l),
(450,-100,l),
(350,-100,l),
(350,0,l)
);
},
{
attr = {
fillColor = (0,255);
};
closed = 1;
nodes = (
(450,100,l),
(450,0,l),
(350,0,l),
(350,100,l)
);
},
{
attr = {
fillColor = (0,255);
};
closed = 1;
nodes = (
(150,100,l),
(150,0,l),
(50,0,l),
(50,100,l)
);
},
{
attr = {
fillColor = (0,255);
};
closed = 1;
nodes = (
(450,200,l),
(450,100,l),
(350,100,l),
(350,200,l)
);
},
{
attr = {
fillColor = (0,255);
};
closed = 1;
nodes = (
(350,200,l),
(350,100,l),
(250,100,l),
(250,200,l)
);
},
{
attr = {
fillColor = (0,255);
};
closed = 1;
nodes = (
(250,200,l),
(250,100,l),
(150,100,l),
(150,200,l)
);
},
{
attr = {
fillColor = (0,255);
};
closed = 1;
nodes = (
(550,300,l),
(550,200,l),
(450,200,l),
(450,300,l)
);
},
{
attr = {
fillColor = (0,255);
};
closed = 1;
nodes = (
(450,300,l),
(450,200,l),
(350,200,l),
(350,300,l)
);
}
);
width = 700;
}
);
unicode = 12354;
},
{
glyphname = "asmall-hira";
lastChange = "2021-03-14 11:04:55 +0000";
layers = (
{
layerId = m01;
shapes = (
{
attr = {
fillColor = (0,255);
};
closed = 1;
nodes = (
(550,290,l),
(550,190,l),
(450,190,l),
(450,290,l)
);
},
{
attr = {
fillColor = (0,255);
};
closed = 1;
nodes = (
(350,290,l),
(350,190,l),
(250,190,l),
(250,290,l)
);
},
{
attr = {
fillColor = (0,255);
};
closed = 1;
nodes = (
(250,290,l),
(250,190,l),
(150,190,l),
(150,290,l)
);
},
{
attr = {
fillColor = (0,255);
};
closed = 1;
nodes = (
(450,390,l),
(450,290,l),
(350,290,l),
(350,390,l)
);
},
{
attr = {
fillColor = (0,255);
};
closed = 1;
nodes = (
(350,390,l),
(350,290,l),
(250,290,l),
(250,390,l)
);
},
{
attr = {
fillColor = (0,255);
};
closed = 1;
nodes = (
(350,490,l),
(350,390,l),
(250,390,l),
(250,490,l)
);
},
{
attr = {
fillColor = (0,255);
};
closed = 1;
nodes = (
(250,-10,l),
(250,-110,l),
(150,-110,l),
(150,-10,l)
);
},
{
attr = {
fillColor = (0,255);
};
closed = 1;
nodes = (
(150,-10,l),
(150,-110,l),
(50,-110,l),
(50,-10,l)
);
},
{
attr = {
fillColor = (0,255);
};
closed = 1;
nodes = (
(350,90,l),
(350,-10,l),
(250,-10,l),
(250,90,l)
);
},
{
attr = {
fillColor = (0,255);
};
closed = 1;
nodes = (
(450,190,l),
(450,90,l),
(350,90,l),
(350,190,l)
);
},
{
attr = {
fillColor = (0,255);
};
closed = 1;
nodes = (
(350,190,l),
(350,90,l),
(250,90,l),
(250,190,l)
);
},
{
attr = {
fillColor = (0,255);
};
closed = 1;
nodes = (
(250,190,l),
(250,90,l),
(150,90,l),
(150,190,l)
);
}
);
width = 600;
}
);
unicode = 12353;
},
{
glyphname = "i-hira";
lastChange = "2021-03-04 18:32:44 +0000";
layers = (
{
layerId = m01;
shapes = (
{
attr = {
fillColor = (0,255);
};
closed = 1;
nodes = (
(350,400,l),
(350,300,l),
(250,300,l),
(250,400,l)
);
},
{
attr = {
fillColor = (0,255);
};
closed = 1;
nodes = (
(250,400,l),
(250,300,l),
(150,300,l),
(150,400,l)
);
},
{
attr = {
fillColor = (0,255);
};
closed = 1;
nodes = (
(550,500,l),
(550,400,l),
(450,400,l),
(450,500,l)
);
},
{
attr = {
fillColor = (0,255);
};
closed = 1;
nodes = (
(350,500,l),
(350,400,l),
(250,400,l),
(250,500,l)
);
},
{
attr = {
fillColor = (0,255);
};
closed = 1;
nodes = (
(250,500,l),
(250,400,l),
(150,400,l),
(150,500,l)
);
},
{
attr = {
fillColor = (0,255);
};
closed = 1;
nodes = (
(450,600,l),
(450,500,l),
(350,500,l),
(350,600,l)
);
},
{
attr = {
fillColor = (0,255);
};
closed = 1;
nodes = (
(250,600,l),
(250,500,l),
(150,500,l),
(150,600,l)
);
},
{
attr = {
fillColor = (0,255);
};
closed = 1;
nodes = (
(250,700,l),
(250,600,l),
(150,600,l),
(150,700,l)
);
},
{
attr = {
fillColor = (0,255);
};
closed = 1;
nodes = (
(250,800,l),
(250,700,l),
(150,700,l),
(150,800,l)
);
},
{
attr = {
fillColor = (0,255);
};
closed = 1;
nodes = (
(150,800,l),
(150,700,l),
(50,700,l),
(50,800,l)
);
},
{
attr = {
fillColor = (0,255);
};
closed = 1;
nodes = (
(250,-100,l),
(250,-200,l),
(150,-200,l),
(150,-100,l)
);
},
{
attr = {
fillColor = (0,255);
};
closed = 1;
nodes = (
(550,0,l),
(550,-100,l),
(450,-100,l),
(450,0,l)
);
},
{
attr = {
fillColor = (0,255);
};
closed = 1;
nodes = (
(250,0,l),
(250,-100,l),
(150,-100,l),
(150,0,l)
);
},
{
attr = {
fillColor = (0,255);
};
closed = 1;
nodes = (
(650,0,l),
(650,-100,l),
(550,-100,l),
(550,0,l)
);
},
{
attr = {
fillColor = (0,255);
};
closed = 1;
nodes = (
(450,100,l),
(450,0,l),
(350,0,l),
(350,100,l)
);
},
{
attr = {
fillColor = (0,255);
};
closed = 1;
nodes = (
(250,100,l),
(250,0,l),
(150,0,l),
(150,100,l)
);
},
{
attr = {
fillColor = (0,255);
};
closed = 1;
nodes = (
(350,200,l),
(350,100,l),
(250,100,l),
(250,200,l)
);
},
{
attr = {
fillColor = (0,255);
};
closed = 1;
nodes = (
(250,200,l),
(250,100,l),
(150,100,l),
(150,200,l)
);
},
{
attr = {
fillColor = (0,255);
};
closed = 1;
nodes = (
(350,300,l),
(350,200,l),
(250,200,l),
(250,300,l)
);
},
{
attr = {
fillColor = (0,255);
};
closed = 1;
nodes = (
(250,300,l),
(250,200,l),
(150,200,l),
(150,300,l)
);
}
);
width = 700;
}
);
unicode = 12356;
},
{
glyphname = "ismall-hira";
lastChange = "2021-03-14 11:05:06 +0000";
layers = (
{
layerId = m01;
shapes = (
{
attr = {
fillColor = (0,255);
};
closed = 1;
nodes = (
(350,290,l),
(350,190,l),
(250,190,l),
(250,290,l)
);
},
{
attr = {
fillColor = (0,255);
};
closed = 1;
nodes = (
(150,290,l),
(150,190,l),
(50,190,l),
(50,290,l)
);
},
{
attr = {
fillColor = (0,255);
};
closed = 1;
nodes = (
(150,390,l),
(150,290,l),
(50,290,l),
(50,390,l)
);
},
{
attr = {
fillColor = (0,255);
};
closed = 1;
nodes = (
(150,490,l),
(150,390,l),
(50,390,l),
(50,490,l)
);
},
{
attr = {
fillColor = (0,255);
};
closed = 1;
nodes = (
(350,-10,l),
(350,-110,l),
(250,-110,l),
(250,-10,l)
);
},
{
attr = {
fillColor = (0,255);
};
closed = 1;
nodes = (
(250,-10,l),
(250,-110,l),
(150,-110,l),
(150,-10,l)
);
},
{
attr = {
fillColor = (0,255);
};
closed = 1;
nodes = (
(150,90,l),
(150,-10,l),
(50,-10,l),
(50,90,l)
);
},
{
attr = {
fillColor = (0,255);
};
closed = 1;
nodes = (
(250,190,l),
(250,90,l),
(150,90,l),
(150,190,l)
);
}
);
width = 400;
}
);
unicode = 12355;
},
{
glyphname = "u-hira";
lastChange = "2021-03-04 18:33:41 +0000";
layers = (
{
layerId = m01;
shapes = (
{
attr = {
fillColor = (0,255);
};
closed = 1;
nodes = (
(550,400,l),
(550,300,l),
(450,300,l),
(450,400,l)
);
},
{
attr = {
fillColor = (0,255);
};
closed = 1;
nodes = (
(350,400,l),
(350,300,l),
(250,300,l),
(250,400,l)
);
},
{
attr = {
fillColor = (0,255);
};
closed = 1;
nodes = (
(650,400,l),
(650,300,l),
(550,300,l),
(550,400,l)
);
},
{
attr = {
fillColor = (0,255);
};
closed = 1;
nodes = (
(350,500,l),
(350,400,l),
(250,400,l),
(250,500,l)
);
},
{
attr = {
fillColor = (0,255);
};
closed = 1;
nodes = (
(350,600,l),
(350,500,l),
(250,500,l),
(250,600,l)
);
},
{
attr = {
fillColor = (0,255);
};
closed = 1;
nodes = (
(450,700,l),
(450,600,l),
(350,600,l),
(350,700,l)
);
},
{
attr = {
fillColor = (0,255);
};
closed = 1;
nodes = (
(350,700,l),
(350,600,l),
(250,600,l),
(250,700,l)
);
},
{
attr = {
fillColor = (0,255);
};
closed = 1;
nodes = (
(350,800,l),
(350,700,l),
(250,700,l),
(250,800,l)
);
},
{
attr = {
fillColor = (0,255);
};
closed = 1;
nodes = (
(350,-100,l),
(350,-200,l),
(250,-200,l),
(250,-100,l)
);
},
{
attr = {
fillColor = (0,255);
};
closed = 1;
nodes = (
(350,0,l),
(350,-100,l),
(250,-100,l),
(250,0,l)
);
},
{
attr = {
fillColor = (0,255);
};
closed = 1;
nodes = (
(350,100,l),
(350,0,l),
(250,0,l),
(250,100,l)
);
},
{
attr = {
fillColor = (0,255);
};
closed = 1;
nodes = (
(350,200,l),
(350,100,l),
(250,100,l),
(250,200,l)
);
},
{
attr = {
fillColor = (0,255);
};
closed = 1;
nodes = (
(150,200,l),
(150,100,l),
(50,100,l),
(50,200,l)
);
},
{
attr = {
fillColor = (0,255);
};
closed = 1;
nodes = (
(450,300,l),
(450,200,l),
(350,200,l),
(350,300,l)
);
},
{
attr = {
fillColor = (0,255);
};
closed = 1;
nodes = (
(350,300,l),
(350,200,l),
(250,200,l),
(250,300,l)
);
},
{
attr = {
fillColor = (0,255);
};
closed = 1;
nodes = (
(250,300,l),
(250,200,l),
(150,200,l),
(150,300,l)
);
},
{
attr = {
fillColor = (0,255);
};
closed = 1;
nodes = (
(150,300,l),
(150,200,l),
(50,200,l),
(50,300,l)
);
}
);
width = 700;
}
);
unicode = 12358;
},
{
glyphname = "usmall-hira";
lastChange = "2021-03-14 11:05:14 +0000";
layers = (
{
layerId = m01;
shapes = (
{
attr = {
fillColor = (0,255);
};
closed = 1;
nodes = (
(350,300,l),
(350,200,l),
(250,200,l),
(250,300,l)
);
},
{
attr = {
fillColor = (0,255);
};
closed = 1;
nodes = (
(350,400,l),
(350,300,l),
(250,300,l),
(250,400,l)
);
},
{
attr = {
fillColor = (0,255);
};
closed = 1;
nodes = (
(350,500,l),
(350,400,l),
(250,400,l),
(250,500,l)
);
},
{
attr = {
fillColor = (0,255);
};
closed = 1;
nodes = (
(250,0,l),
(250,-100,l),
(150,-100,l),
(150,0,l)
);
},
{
attr = {
fillColor = (0,255);
};
closed = 1;
nodes = (
(150,0,l),
(150,-100,l),
(50,-100,l),
(50,0,l)
);
},
{
attr = {
fillColor = (0,255);
};
closed = 1;
nodes = (
(450,100,l),
(450,0,l),
(350,0,l),
(350,100,l)
);
},
{
attr = {
fillColor = (0,255);
};
closed = 1;
nodes = (
(350,100,l),
(350,0,l),
(250,0,l),
(250,100,l)
);
},
{
attr = {
fillColor = (0,255);
};
closed = 1;
nodes = (
(150,100,l),
(150,0,l),
(50,0,l),
(50,100,l)
);
},
{
attr = {
fillColor = (0,255);
};
closed = 1;
nodes = (
(550,200,l),
(550,100,l),
(450,100,l),
(450,200,l)
);
},
{
attr = {
fillColor = (0,255);
};
closed = 1;
nodes = (
(350,200,l),
(350,100,l),
(250,100,l),
(250,200,l)
);
}
);
width = 600;
}
);
unicode = 12357;
},
{
glyphname = "e-hira";
lastChange = "2021-03-04 18:34:05 +0000";
layers = (
{
layerId = m01;
shapes = (
{
attr = {
fillColor = (0,255);
};
closed = 1;
nodes = (
(550,400,l),
(550,300,l),
(450,300,l),
(450,400,l)
);
},
{
attr = {
fillColor = (0,255);
};
closed = 1;
nodes = (
(350,400,l),
(350,300,l),
(250,300,l),
(250,400,l)
);
},
{
attr = {
fillColor = (0,255);
};
closed = 1;
nodes = (
(450,500,l),
(450,400,l),
(350,400,l),
(350,500,l)
);
},
{
attr = {
fillColor = (0,255);
};
closed = 1;
nodes = (
(350,500,l),
(350,400,l),
(250,400,l),
(250,500,l)
);
},
{
attr = {
fillColor = (0,255);
};
closed = 1;
nodes = (
(350,600,l),
(350,500,l),
(250,500,l),
(250,600,l)
);
},
{
attr = {
fillColor = (0,255);
};
closed = 1;
nodes = (
(450,700,l),
(450,600,l),
(350,600,l),
(350,700,l)
);
},
{
attr = {
fillColor = (0,255);
};
closed = 1;
nodes = (
(350,700,l),
(350,600,l),
(250,600,l),
(250,700,l)
);
},
{
attr = {
fillColor = (0,255);
};
closed = 1;
nodes = (
(250,700,l),
(250,600,l),
(150,600,l),
(150,700,l)
);
},
{
attr = {
fillColor = (0,255);
};
closed = 1;
nodes = (
(350,800,l),
(350,700,l),
(250,700,l),
(250,800,l)
);
},
{
attr = {
fillColor = (0,255);
};
closed = 1;
nodes = (
(350,-100,l),
(350,-200,l),
(250,-200,l),
(250,-100,l)
);
},
{
attr = {
fillColor = (0,255);
};
closed = 1;
nodes = (
(350,0,l),
(350,-100,l),
(250,-100,l),
(250,0,l)
);
},
{
attr = {
fillColor = (0,255);
};
closed = 1;
nodes = (
(150,0,l),
(150,-100,l),
(50,-100,l),
(50,0,l)
);
},
{
attr = {
fillColor = (0,255);
};
closed = 1;
nodes = (
(350,100,l),
(350,0,l),
(250,0,l),
(250,100,l)
);
},
{
attr = {
fillColor = (0,255);
};
closed = 1;
nodes = (
(150,100,l),
(150,0,l),
(50,0,l),
(50,100,l)
);
},
{
attr = {
fillColor = (0,255);
};
closed = 1;
nodes = (
(550,200,l),
(550,100,l),
(450,100,l),
(450,200,l)
);
},
{
attr = {
fillColor = (0,255);
};
closed = 1;
nodes = (
(450,200,l),
(450,100,l),
(350,100,l),
(350,200,l)
);
},
{
attr = {
fillColor = (0,255);
};
closed = 1;
nodes = (
(350,200,l),
(350,100,l),
(250,100,l),
(250,200,l)
);
},
{
attr = {
fillColor = (0,255);
};
closed = 1;
nodes = (
(250,200,l),
(250,100,l),
(150,100,l),
(150,200,l)
);
},
{
attr = {
fillColor = (0,255);
};
closed = 1;
nodes = (
(550,300,l),
(550,200,l),
(450,200,l),
(450,300,l)
);
},
{
attr = {
fillColor = (0,255);
};
closed = 1;
nodes = (
(350,300,l),
(350,200,l),
(250,200,l),
(250,300,l)
);
}
);
width = 600;
}
);
unicode = 12360;
},
{
glyphname = "esmall-hira";
lastChange = "2021-03-14 11:05:21 +0000";
layers = (
{
layerId = m01;
shapes = (
{
attr = {
fillColor = (0,255);
};
closed = 1;
nodes = (
(450,300,l),
(450,200,l),
(350,200,l),
(350,300,l)
);
},
{
attr = {
fillColor = (0,255);
};
closed = 1;
nodes = (
(250,300,l),
(250,200,l),
(150,200,l),
(150,300,l)
);
},
{
attr = {
fillColor = (0,255);
};
closed = 1;
nodes = (
(350,400,l),
(350,300,l),
(250,300,l),
(250,400,l)
);
},
{
attr = {
fillColor = (0,255);
};
closed = 1;
nodes = (
(250,400,l),
(250,300,l),
(150,300,l),
(150,400,l)
);
},
{
attr = {
fillColor = (0,255);
};
closed = 1;
nodes = (
(250,500,l),
(250,400,l),
(150,400,l),
(150,500,l)
);
},
{
attr = {
fillColor = (0,255);
};
closed = 1;
nodes = (
(150,0,l),
(150,-100,l),
(50,-100,l),
(50,0,l)
);
},
{
attr = {
fillColor = (0,255);
};
closed = 1;
nodes = (
(150,100,l),
(150,0,l),
(50,0,l),
(50,100,l)
);
},
{
attr = {
fillColor = (0,255);
};
closed = 1;
nodes = (
(350,200,l),
(350,100,l),
(250,100,l),
(250,200,l)
);
},
{
attr = {
fillColor = (0,255);
};
closed = 1;
nodes = (
(250,200,l),
(250,100,l),
(150,100,l),
(150,200,l)
);
}
);
width = 500;
}
);
unicode = 12359;
},
{
glyphname = "o-hira";
lastChange = "2021-03-04 18:34:31 +0000";
layers = (
{
layerId = m01;
shapes = (
{
attr = {
fillColor = (0,255);
};
closed = 1;
nodes = (
(450,400,l),
(450,300,l),
(350,300,l),
(350,400,l)
);
},
{
attr = {
fillColor = (0,255);
};
closed = 1;
nodes = (
(350,400,l),
(350,300,l),
(250,300,l),
(250,400,l)
);
},
{
attr = {
fillColor = (0,255);
};
closed = 1;
nodes = (
(150,400,l),
(150,300,l),
(50,300,l),
(50,400,l)
);
},
{
attr = {
fillColor = (0,255);
};
closed = 1;
nodes = (
(450,500,l),
(450,400,l),
(350,400,l),
(350,500,l)
);
},
{
attr = {
fillColor = (0,255);
};
closed = 1;
nodes = (
(350,500,l),
(350,400,l),
(250,400,l),
(250,500,l)
);
},
{
attr = {
fillColor = (0,255);
};
closed = 1;
nodes = (
(250,500,l),
(250,400,l),
(150,400,l),
(150,500,l)
);
},
{
attr = {
fillColor = (0,255);
};
closed = 1;
nodes = (
(150,500,l),
(150,400,l),
(50,400,l),
(50,500,l)
);
},
{
attr = {
fillColor = (0,255);
};
closed = 1;
nodes = (
(350,600,l),
(350,500,l),
(250,500,l),
(250,600,l)
);
},
{
attr = {
fillColor = (0,255);
};
closed = 1;
nodes = (
(450,700,l),
(450,600,l),
(350,600,l),
(350,700,l)
);
},
{
attr = {
fillColor = (0,255);
};
closed = 1;
nodes = (
(350,700,l),
(350,600,l),
(250,600,l),
(250,700,l)
);
},
{
attr = {
fillColor = (0,255);
};
closed = 1;
nodes = (
(350,800,l),
(350,700,l),
(250,700,l),
(250,800,l)
);
},
{
attr = {
fillColor = (0,255);
};
closed = 1;
nodes = (
(350,-100,l),
(350,-200,l),
(250,-200,l),
(250,-100,l)
);
},
{
attr = {
fillColor = (0,255);
};
closed = 1;
nodes = (
(350,0,l),
(350,-100,l),
(250,-100,l),
(250,0,l)
);
},
{
attr = {
fillColor = (0,255);
};
closed = 1;
nodes = (
(550,100,l),
(550,0,l),
(450,0,l),
(450,100,l)
);
},
{
attr = {
fillColor = (0,255);
};
closed = 1;
nodes = (
(350,100,l),
(350,0,l),
(250,0,l),
(250,100,l)
);
},
{
attr = {
fillColor = (0,255);
};
closed = 1;
nodes = (
(750,100,l),
(750,0,l),
(650,0,l),
(650,100,l)
);
},
{
attr = {
fillColor = (0,255);
};
closed = 1;
nodes = (
(650,100,l),
(650,0,l),
(550,0,l),
(550,100,l)
);
},
{
attr = {
fillColor = (0,255);
};
closed = 1;
nodes = (
(450,200,l),
(450,100,l),
(350,100,l),
(350,200,l)
);
},
{
attr = {
fillColor = (0,255);
};
closed = 1;
nodes = (
(350,200,l),
(350,100,l),
(250,100,l),
(250,200,l)
);
},
{
attr = {
fillColor = (0,255);
};
closed = 1;
nodes = (
(850,200,l),
(850,100,l),
(750,100,l),
(750,200,l)
);
},
{
attr = {
fillColor = (0,255);
};
closed = 1;
nodes = (
(450,300,l),
(450,200,l),
(350,200,l),
(350,300,l)
);
},
{
attr = {
fillColor = (0,255);
};
closed = 1;
nodes = (
(350,300,l),
(350,200,l),
(250,200,l),
(250,300,l)
);
}
);
width = 900;
}
);
unicode = 12362;
},
{
glyphname = "osmall-hira";
lastChange = "2021-03-14 11:05:33 +0000";
layers = (
{
layerId = m01;
shapes = (
{
attr = {
fillColor = (0,255);
};
closed = 1;
nodes = (
(250,290,l),
(250,190,l),
(150,190,l),
(150,290,l)
);
},
{
attr = {
fillColor = (0,255);
};
closed = 1;
nodes = (
(150,290,l),
(150,190,l),
(50,190,l),
(50,290,l)
);
},
{
attr = {
fillColor = (0,255);
};
closed = 1;
nodes = (
(250,390,l),
(250,290,l),
(150,290,l),
(150,390,l)
);
},
{
attr = {
fillColor = (0,255);
};
closed = 1;
nodes = (
(250,490,l),
(250,390,l),
(150,390,l),
(150,490,l)
);
},
{
attr = {
fillColor = (0,255);
};
closed = 1;
nodes = (
(450,-10,l),
(450,-110,l),
(350,-110,l),
(350,-10,l)
);
},
{
attr = {
fillColor = (0,255);
};
closed = 1;
nodes = (
(350,-10,l),
(350,-110,l),
(250,-110,l),
(250,-10,l)
);
},
{
attr = {
fillColor = (0,255);
};
closed = 1;
nodes = (
(550,90,l),
(550,-10,l),
(450,-10,l),
(450,90,l)
);
},
{
attr = {
fillColor = (0,255);
};
closed = 1;
nodes = (
(350,90,l),
(350,-10,l),
(250,-10,l),
(250,90,l)
);
},
{
attr = {
fillColor = (0,255);
};
closed = 1;
nodes = (
(250,90,l),
(250,-10,l),
(150,-10,l),
(150,90,l)
);
},
{
attr = {
fillColor = (0,255);
};
closed = 1;
nodes = (
(350,190,l),
(350,90,l),
(250,90,l),
(250,190,l)
);
},
{
attr = {
fillColor = (0,255);
};
closed = 1;
nodes = (
(150,190,l),
(150,90,l),
(50,90,l),
(50,190,l)
);
}
);
width = 600;
}
);
unicode = 12361;
},
{
glyphname = "ka-hira";
lastChange = "2021-03-04 18:34:55 +0000";
layers = (
{
layerId = m01;
shapes = (
{
attr = {
fillColor = (0,255);
};
closed = 1;
nodes = (
(550,400,l),
(550,300,l),
(450,300,l),
(450,400,l)
);
},
{
attr = {
fillColor = (0,255);
};
closed = 1;
nodes = (
(450,400,l),
(450,300,l),
(350,300,l),
(350,400,l)
);
},
{
attr = {
fillColor = (0,255);
};
closed = 1;
nodes = (
(250,400,l),
(250,300,l),
(150,300,l),
(150,400,l)
);
},
{
attr = {
fillColor = (0,255);
};
closed = 1;
nodes = (
(150,400,l),
(150,300,l),
(50,300,l),
(50,400,l)
);
},
{
attr = {
fillColor = (0,255);
};
closed = 1;
nodes = (
(650,400,l),
(650,300,l),
(550,300,l),
(550,400,l)
);
},
{
attr = {
fillColor = (0,255);
};
closed = 1;
nodes = (
(550,500,l),
(550,400,l),
(450,400,l),
(450,500,l)
);
},
{
attr = {
fillColor = (0,255);
};
closed = 1;
nodes = (
(350,500,l),
(350,400,l),
(250,400,l),
(250,500,l)
);
},
{
attr = {
fillColor = (0,255);
};
closed = 1;
nodes = (
(450,600,l),
(450,500,l),
(350,500,l),
(350,600,l)
);
},
{
attr = {
fillColor = (0,255);
};
closed = 1;
nodes = (
(550,700,l),
(550,600,l),
(450,600,l),
(450,700,l)
);
},
{
attr = {
fillColor = (0,255);
};
closed = 1;
nodes = (
(750,700,l),
(750,600,l),
(650,600,l),
(650,700,l)
);
},
{
attr = {
fillColor = (0,255);
};
closed = 1;
nodes = (
(650,700,l),
(650,600,l),
(550,600,l),
(550,700,l)
);
},
{
attr = {
fillColor = (0,255);
};
closed = 1;
nodes = (
(650,800,l),
(650,700,l),
(550,700,l),
(550,800,l)
);
},
{
attr = {
fillColor = (0,255);
};
closed = 1;
nodes = (
(550,-100,l),
(550,-200,l),
(450,-200,l),
(450,-100,l)
);
},
{
attr = {
fillColor = (0,255);
};
closed = 1;
nodes = (
(450,-100,l),
(450,-200,l),
(350,-200,l),
(350,-100,l)
);
},
{
attr = {
fillColor = (0,255);
};
closed = 1;
nodes = (
(350,-100,l),
(350,-200,l),
(250,-200,l),
(250,-100,l)
);
},
{
attr = {
fillColor = (0,255);
};
closed = 1;
nodes = (
(650,0,l),
(650,-100,l),
(550,-100,l),
(550,0,l)
);
},
{
attr = {
fillColor = (0,255);
};
closed = 1;
nodes = (
(350,100,l),
(350,0,l),
(250,0,l),
(250,100,l)
);
},
{
attr = {
fillColor = (0,255);
};
closed = 1;
nodes = (
(650,100,l),
(650,0,l),
(550,0,l),
(550,100,l)
);
},
{
attr = {
fillColor = (0,255);
};
closed = 1;
nodes = (
(550,200,l),
(550,100,l),
(450,100,l),
(450,200,l)
);
},
{
attr = {
fillColor = (0,255);
};
closed = 1;
nodes = (
(450,200,l),
(450,100,l),
(350,100,l),
(350,200,l)
);
},
{
attr = {
fillColor = (0,255);
};
closed = 1;
nodes = (
(350,300,l),
(350,200,l),
(250,200,l),
(250,300,l)
);
}
);
width = 800;
}
);
unicode = 12363;
},
{
glyphname = "ga-hira";
lastChange = "2021-03-11 14:49:16 +0000";
layers = (
{
layerId = m01;
shapes = (
{
attr = {
fillColor = (0,255);
};
closed = 1;
nodes = (
(550,400,l),
(550,300,l),
(450,300,l),
(450,400,l)
);
},
{
attr = {
fillColor = (0,255);
};
closed = 1;
nodes = (
(450,400,l),
(450,300,l),
(350,300,l),
(350,400,l)
);
},
{
attr = {
fillColor = (0,255);
};
closed = 1;
nodes = (
(250,400,l),
(250,300,l),
(150,300,l),
(150,400,l)
);
},
{
attr = {
fillColor = (0,255);
};
closed = 1;
nodes = (
(150,400,l),
(150,300,l),
(50,300,l),
(50,400,l)
);
},
{
attr = {
fillColor = (0,255);
};
closed = 1;
nodes = (
(650,400,l),
(650,300,l),
(550,300,l),
(550,400,l)
);
},
{
attr = {
fillColor = (0,255);
};
closed = 1;
nodes = (
(550,500,l),
(550,400,l),
(450,400,l),
(450,500,l)
);
},
{
attr = {
fillColor = (0,255);
};
closed = 1;
nodes = (
(350,500,l),
(350,400,l),
(250,400,l),
(250,500,l)
);
},
{
attr = {
fillColor = (0,255);
};
closed = 1;
nodes = (
(850,500,l),
(850,400,l),
(750,400,l),
(750,500,l)
);
},
{
attr = {
fillColor = (0,255);
};
closed = 1;
nodes = (
(450,600,l),
(450,500,l),
(350,500,l),
(350,600,l)
);
},
{
attr = {
fillColor = (0,255);
};
closed = 1;
nodes = (
(750,600,l),
(750,500,l),
(650,500,l),
(650,600,l)
);
},
{
attr = {
fillColor = (0,255);
};
closed = 1;
nodes = (
(550,700,l),
(550,600,l),
(450,600,l),
(450,700,l)
);
},
{
attr = {
fillColor = (0,255);
};
closed = 1;
nodes = (
(650,800,l),
(650,700,l),
(550,700,l),
(550,800,l)
);
},
{
attr = {
fillColor = (0,255);
};
closed = 1;
nodes = (
(550,-100,l),
(550,-200,l),
(450,-200,l),
(450,-100,l)
);
},
{
attr = {
fillColor = (0,255);
};
closed = 1;
nodes = (
(450,-100,l),
(450,-200,l),
(350,-200,l),
(350,-100,l)
);
},
{
attr = {
fillColor = (0,255);
};
closed = 1;
nodes = (
(350,-100,l),
(350,-200,l),
(250,-200,l),
(250,-100,l)
);
},
{
attr = {
fillColor = (0,255);
};
closed = 1;
nodes = (
(650,0,l),
(650,-100,l),
(550,-100,l),
(550,0,l)
);
},
{
attr = {
fillColor = (0,255);
};
closed = 1;
nodes = (
(350,100,l),
(350,0,l),
(250,0,l),
(250,100,l)
);
},
{
attr = {
fillColor = (0,255);
};
closed = 1;
nodes = (
(650,100,l),
(650,0,l),
(550,0,l),
(550,100,l)
);
},
{
attr = {
fillColor = (0,255);
};
closed = 1;
nodes = (
(550,200,l),
(550,100,l),
(450,100,l),
(450,200,l)
);
},
{
attr = {
fillColor = (0,255);
};
closed = 1;
nodes = (
(450,200,l),
(450,100,l),
(350,100,l),
(350,200,l)
);
},
{
attr = {
fillColor = (0,255);
};
closed = 1;
nodes = (
(350,300,l),
(350,200,l),
(250,200,l),
(250,300,l)
);
}
);
width = 900;
}
);
unicode = 12364;
},
{
glyphname = "ki-hira";
lastChange = "2021-03-04 18:35:18 +0000";
layers = (
{
layerId = m01;
shapes = (
{
attr = {
fillColor = (0,255);
};
closed = 1;
nodes = (
(550,400,l),
(550,300,l),
(450,300,l),
(450,400,l)
);
},
{
attr = {
fillColor = (0,255);
};
closed = 1;
nodes = (
(450,500,l),
(450,400,l),
(350,400,l),
(350,500,l)
);
},
{
attr = {
fillColor = (0,255);
};
closed = 1;
nodes = (
(350,500,l),
(350,400,l),
(250,400,l),
(250,500,l)
);
},
{
attr = {
fillColor = (0,255);
};
closed = 1;
nodes = (
(250,600,l),
(250,500,l),
(150,500,l),
(150,600,l)
);
},
{
attr = {
fillColor = (0,255);
};
closed = 1;
nodes = (
(450,700,l),
(450,600,l),
(350,600,l),
(350,700,l)
);
},
{
attr = {
fillColor = (0,255);
};
closed = 1;
nodes = (
(350,700,l),
(350,600,l),
(250,600,l),
(250,700,l)
);
},
{
attr = {
fillColor = (0,255);
};
closed = 1;
nodes = (
(550,700,l),
(550,600,l),
(450,600,l),
(450,700,l)
);
},
{
attr = {
fillColor = (0,255);
};
closed = 1;
nodes = (
(450,800,l),
(450,700,l),
(350,700,l),
(350,800,l)
);
},
{
attr = {
fillColor = (0,255);
};
closed = 1;
nodes = (
(850,-100,l),
(850,-200,l),
(750,-200,l),
(750,-100,l)
);
},
{
attr = {
fillColor = (0,255);
};
closed = 1;
nodes = (
(750,-100,l),
(750,-200,l),
(650,-200,l),
(650,-100,l)
);
},
{
attr = {
fillColor = (0,255);
};
closed = 1;
nodes = (
(650,-100,l),
(650,-200,l),
(550,-200,l),
(550,-100,l)
);
},
{
attr = {
fillColor = (0,255);
};
closed = 1;
nodes = (
(150,0,l),
(150,-100,l),
(50,-100,l),
(50,0,l)
);
},
{
attr = {
fillColor = (0,255);
};
closed = 1;
nodes = (
(550,0,l),
(550,-100,l),
(450,-100,l),
(450,0,l)
);
},
{
attr = {
fillColor = (0,255);
};
closed = 1;
nodes = (
(450,100,l),
(450,0,l),
(350,0,l),
(350,100,l)
);
},
{
attr = {
fillColor = (0,255);
};
closed = 1;
nodes = (
(350,100,l),
(350,0,l),
(250,0,l),
(250,100,l)
);
},
{
attr = {
fillColor = (0,255);
};
closed = 1;
nodes = (
(250,100,l),
(250,0,l),
(150,0,l),
(150,100,l)
);
},
{
attr = {
fillColor = (0,255);
};
closed = 1;
nodes = (
(350,200,l),
(350,100,l),
(250,100,l),
(250,200,l)
);
},
{
attr = {
fillColor = (0,255);
};
closed = 1;
nodes = (
(450,300,l),
(450,200,l),
(350,200,l),
(350,300,l)
);
},
{
attr = {
fillColor = (0,255);
};
closed = 1;
nodes = (
(250,300,l),
(250,200,l),
(150,200,l),
(150,300,l)
);
}
);
width = 900;
}
);
unicode = 12365;
},
{
glyphname = "gi-hira";
lastChange = "2021-03-11 14:49:52 +0000";
layers = (
{
layerId = m01;
shapes = (
{
attr = {
fillColor = (0,255);
};
closed = 1;
nodes = (
(650,400,l),
(650,300,l),
(550,300,l),
(550,400,l)
);
},
{
attr = {
fillColor = (0,255);
};
closed = 1;
nodes = (
(550,500,l),
(550,400,l),
(450,400,l),
(450,500,l)
);
},
{
attr = {
fillColor = (0,255);
};
closed = 1;
nodes = (
(450,500,l),
(450,400,l),
(350,400,l),
(350,500,l)
);
},
{
attr = {
fillColor = (0,255);
};
closed = 1;
nodes = (
(850,500,l),
(850,400,l),
(750,400,l),
(750,500,l)
);
},
{
attr = {
fillColor = (0,255);
};
closed = 1;
nodes = (
(350,600,l),
(350,500,l),
(250,500,l),
(250,600,l)
);
},
{
attr = {
fillColor = (0,255);
};
closed = 1;
nodes = (
(850,600,l),
(850,500,l),
(750,500,l),
(750,600,l)
);
},
{
attr = {
fillColor = (0,255);
};
closed = 1;
nodes = (
(750,600,l),
(750,500,l),
(650,500,l),
(650,600,l)
);
},
{
attr = {
fillColor = (0,255);
};
closed = 1;
nodes = (
(550,700,l),
(550,600,l),
(450,600,l),
(450,700,l)
);
},
{
attr = {
fillColor = (0,255);
};
closed = 1;
nodes = (
(450,700,l),
(450,600,l),
(350,600,l),
(350,700,l)
);
},
{
attr = {
fillColor = (0,255);
};
closed = 1;
nodes = (
(550,800,l),
(550,700,l),
(450,700,l),
(450,800,l)
);
},
{
attr = {
fillColor = (0,255);
};
closed = 1;
nodes = (
(950,-100,l),
(950,-200,l),
(850,-200,l),
(850,-100,l)
);
},
{
attr = {
fillColor = (0,255);
};
closed = 1;
nodes = (
(850,-100,l),
(850,-200,l),
(750,-200,l),
(750,-100,l)
);
},
{
attr = {
fillColor = (0,255);
};
closed = 1;
nodes = (
(750,-100,l),
(750,-200,l),
(650,-200,l),
(650,-100,l)
);
},
{
attr = {
fillColor = (0,255);
};
closed = 1;
nodes = (
(650,-100,l),
(650,-200,l),
(550,-200,l),
(550,-100,l)
);
},
{
attr = {
fillColor = (0,255);
};
closed = 1;
nodes = (
(550,0,l),
(550,-100,l),
(450,-100,l),
(450,0,l)
);
},
{
attr = {
fillColor = (0,255);
};
closed = 1;
nodes = (
(250,0,l),
(250,-100,l),
(150,-100,l),
(150,0,l)
);
},
{
attr = {
fillColor = (0,255);
};
closed = 1;
nodes = (
(150,0,l),
(150,-100,l),
(50,-100,l),
(50,0,l)
);
},
{
attr = {
fillColor = (0,255);
};
closed = 1;
nodes = (
(650,0,l),
(650,-100,l),
(550,-100,l),
(550,0,l)
);
},
{
attr = {
fillColor = (0,255);
};
closed = 1;
nodes = (
(450,100,l),
(450,0,l),
(350,0,l),
(350,100,l)
);
},
{
attr = {
fillColor = (0,255);
};
closed = 1;
nodes = (
(350,100,l),
(350,0,l),
(250,0,l),
(250,100,l)
);
},
{
attr = {
fillColor = (0,255);
};
closed = 1;
nodes = (
(550,200,l),
(550,100,l),
(450,100,l),
(450,200,l)
);
},
{
attr = {
fillColor = (0,255);
};
closed = 1;
nodes = (
(350,300,l),
(350,200,l),
(250,200,l),
(250,300,l)
);
},
{
attr = {
fillColor = (0,255);
};
closed = 1;
nodes = (
(650,300,l),
(650,200,l),
(550,200,l),
(550,300,l)
);
}
);
width = 1000;
}
);
unicode = 12366;
},
{
glyphname = "ku-hira";
lastChange = "2021-03-04 18:36:18 +0000";
layers = (
{
layerId = m01;
shapes = (
{
attr = {
fillColor = (0,255);
};
closed = 1;
nodes = (
(450,400,l),
(450,300,l),
(350,300,l),
(350,400,l)
);
},
{
attr = {
fillColor = (0,255);
};
closed = 1;
nodes = (
(750,400,l),
(750,300,l),
(650,300,l),
(650,400,l)
);
},
{
attr = {
fillColor = (0,255);
};
closed = 1;
nodes = (
(550,500,l),
(550,400,l),
(450,400,l),
(450,500,l)
);
},
{
attr = {
fillColor = (0,255);
};
closed = 1;
nodes = (
(650,500,l),
(650,400,l),
(550,400,l),
(550,500,l)
);
},
{
attr = {
fillColor = (0,255);
};
closed = 1;
nodes = (
(450,600,l),
(450,500,l),
(350,500,l),
(350,600,l)
);
},
{
attr = {
fillColor = (0,255);
};
closed = 1;
nodes = (
(550,700,l),
(550,600,l),
(450,600,l),
(450,700,l)
);
},
{
attr = {
fillColor = (0,255);
};
closed = 1;
nodes = (
(750,700,l),
(750,600,l),
(650,600,l),
(650,700,l)
);
},
{
attr = {
fillColor = (0,255);
};
closed = 1;
nodes = (
(650,800,l),
(650,700,l),
(550,700,l),
(550,800,l)
);
},
{
attr = {
fillColor = (0,255);
};
closed = 1;
nodes = (
(250,-100,l),
(250,-200,l),
(150,-200,l),
(150,-100,l)
);
},
{
attr = {
fillColor = (0,255);
};
closed = 1;
nodes = (
(150,-100,l),
(150,-200,l),
(50,-200,l),
(50,-100,l)
);
},
{
attr = {
fillColor = (0,255);
};
closed = 1;
nodes = (
(550,0,l),
(550,-100,l),
(450,-100,l),
(450,0,l)
);
},
{
attr = {
fillColor = (0,255);
};
closed = 1;
nodes = (
(450,0,l),
(450,-100,l),
(350,-100,l),
(350,0,l)
);
},
{
attr = {
fillColor = (0,255);
};
closed = 1;
nodes = (
(350,0,l),
(350,-100,l),
(250,-100,l),
(250,0,l)
);
},
{
attr = {
fillColor = (0,255);
};
closed = 1;
nodes = (
(1050,0,l),
(1050,-100,l),
(950,-100,l),
(950,0,l)
);
},
{
attr = {
fillColor = (0,255);
};
closed = 1;
nodes = (
(950,0,l),
(950,-100,l),
(850,-100,l),
(850,0,l)
);
},
{
attr = {
fillColor = (0,255);
};
closed = 1;
nodes = (
(850,0,l),
(850,-100,l),
(750,-100,l),
(750,0,l)
);
},
{
attr = {
fillColor = (0,255);
};
closed = 1;
nodes = (
(750,0,l),
(750,-100,l),
(650,-100,l),
(650,0,l)
);
},
{
attr = {
fillColor = (0,255);
};
closed = 1;
nodes = (
(650,0,l),
(650,-100,l),
(550,-100,l),
(550,0,l)
);
},
{
attr = {
fillColor = (0,255);
};
closed = 1;
nodes = (
(450,100,l),
(450,0,l),
(350,0,l),
(350,100,l)
);
},
{
attr = {
fillColor = (0,255);
};
closed = 1;
nodes = (
(550,200,l),
(550,100,l),
(450,100,l),
(450,200,l)
);
},
{
attr = {
fillColor = (0,255);
};
closed = 1;
nodes = (
(350,300,l),
(350,200,l),
(250,200,l),
(250,300,l)
);
},
{
attr = {
fillColor = (0,255);
};
closed = 1;
nodes = (
(650,300,l),
(650,200,l),
(550,200,l),
(550,300,l)
);
}
);
width = 1100;
}
);
unicode = 12367;
},
{
glyphname = "gu-hira";
lastChange = "2021-03-11 15:05:30 +0000";
layers = (
{
layerId = m01;
shapes = (
{
attr = {
fillColor = (0,255);
};
closed = 1;
nodes = (
(450,400,l),
(450,300,l),
(350,300,l),
(350,400,l)
);
},
{
attr = {
fillColor = (0,255);
};
closed = 1;
nodes = (
(750,400,l),
(750,300,l),
(650,300,l),
(650,400,l)
);
},
{
attr = {
fillColor = (0,255);
};
closed = 1;
nodes = (
(550,500,l),
(550,400,l),
(450,400,l),
(450,500,l)
);
},
{
attr = {
fillColor = (0,255);
};
closed = 1;
nodes = (
(1050,500,l),
(1050,400,l),
(950,400,l),
(950,500,l)
);
},
{
attr = {
fillColor = (0,255);
};
closed = 1;
nodes = (
(650,500,l),
(650,400,l),
(550,400,l),
(550,500,l)
);
},
{
attr = {
fillColor = (0,255);
};
closed = 1;
nodes = (
(450,600,l),
(450,500,l),
(350,500,l),
(350,600,l)
);
},
{
attr = {
fillColor = (0,255);
};
closed = 1;
nodes = (
(950,600,l),
(950,500,l),
(850,500,l),
(850,600,l)
);
},
{
attr = {
fillColor = (0,255);
};
closed = 1;
nodes = (
(550,700,l),
(550,600,l),
(450,600,l),
(450,700,l)
);
},
{
attr = {
fillColor = (0,255);
};
closed = 1;
nodes = (
(750,700,l),
(750,600,l),
(650,600,l),
(650,700,l)
);
},
{
attr = {
fillColor = (0,255);
};
closed = 1;
nodes = (
(650,800,l),
(650,700,l),
(550,700,l),
(550,800,l)
);
},
{
attr = {
fillColor = (0,255);
};
closed = 1;
nodes = (
(250,-100,l),
(250,-200,l),
(150,-200,l),
(150,-100,l)
);
},
{
attr = {
fillColor = (0,255);
};
closed = 1;
nodes = (
(150,-100,l),
(150,-200,l),
(50,-200,l),
(50,-100,l)
);
},
{
attr = {
fillColor = (0,255);
};
closed = 1;
nodes = (
(550,0,l),
(550,-100,l),
(450,-100,l),
(450,0,l)
);
},
{
attr = {
fillColor = (0,255);
};
closed = 1;
nodes = (
(450,0,l),
(450,-100,l),
(350,-100,l),
(350,0,l)
);
},
{
attr = {
fillColor = (0,255);
};
closed = 1;
nodes = (
(350,0,l),
(350,-100,l),
(250,-100,l),
(250,0,l)
);
},
{
attr = {
fillColor = (0,255);
};
closed = 1;
nodes = (
(1050,0,l),
(1050,-100,l),
(950,-100,l),
(950,0,l)
);
},
{
attr = {
fillColor = (0,255);
};
closed = 1;
nodes = (
(950,0,l),
(950,-100,l),
(850,-100,l),
(850,0,l)
);
},
{
attr = {
fillColor = (0,255);
};
closed = 1;
nodes = (
(850,0,l),
(850,-100,l),
(750,-100,l),
(750,0,l)
);
},
{
attr = {
fillColor = (0,255);
};
closed = 1;
nodes = (
(750,0,l),
(750,-100,l),
(650,-100,l),
(650,0,l)
);
},
{
attr = {
fillColor = (0,255);
};
closed = 1;
nodes = (
(650,0,l),
(650,-100,l),
(550,-100,l),
(550,0,l)
);
},
{
attr = {
fillColor = (0,255);
};
closed = 1;
nodes = (
(450,100,l),
(450,0,l),
(350,0,l),
(350,100,l)
);
},
{
attr = {
fillColor = (0,255);
};
closed = 1;
nodes = (
(550,200,l),
(550,100,l),
(450,100,l),
(450,200,l)
);
},
{
attr = {
fillColor = (0,255);
};
closed = 1;
nodes = (
(350,300,l),
(350,200,l),
(250,200,l),
(250,300,l)
);
},
{
attr = {
fillColor = (0,255);
};
closed = 1;
nodes = (
(650,300,l),
(650,200,l),
(550,200,l),
(550,300,l)
);
}
);
width = 1100;
}
);
unicode = 12368;
},
{
glyphname = "ke-hira";
lastChange = "2021-03-04 18:36:43 +0000";
layers = (
{
layerId = m01;
shapes = (
{
attr = {
fillColor = (0,255);
};
closed = 1;
nodes = (
(250,400,l),
(250,300,l),
(150,300,l),
(150,400,l)
);
},
{
attr = {
fillColor = (0,255);
};
closed = 1;
nodes = (
(750,400,l),
(750,300,l),
(650,300,l),
(650,400,l)
);
},
{
attr = {
fillColor = (0,255);
};
closed = 1;
nodes = (
(350,500,l),
(350,400,l),
(250,400,l),
(250,500,l)
);
},
{
attr = {
fillColor = (0,255);
};
closed = 1;
nodes = (
(250,500,l),
(250,400,l),
(150,400,l),
(150,500,l)
);
},
{
attr = {
fillColor = (0,255);
};
closed = 1;
nodes = (
(650,500,l),
(650,400,l),
(550,400,l),
(550,500,l)
);
},
{
attr = {
fillColor = (0,255);
};
closed = 1;
nodes = (
(550,600,l),
(550,500,l),
(450,500,l),
(450,600,l)
);
},
{
attr = {
fillColor = (0,255);
};
closed = 1;
nodes = (
(550,700,l),
(550,600,l),
(450,600,l),
(450,700,l)
);
},
{
attr = {
fillColor = (0,255);
};
closed = 1;
nodes = (
(350,700,l),
(350,600,l),
(250,600,l),
(250,700,l)
);
},
{
attr = {
fillColor = (0,255);
};
closed = 1;
nodes = (
(250,700,l),
(250,600,l),
(150,600,l),
(150,700,l)
);
},
{
attr = {
fillColor = (0,255);
};
closed = 1;
nodes = (
(450,800,l),
(450,700,l),
(350,700,l),
(350,800,l)
);
},
{
attr = {
fillColor = (0,255);
};
closed = 1;
nodes = (
(350,800,l),
(350,700,l),
(250,700,l),
(250,800,l)
);
},
{
attr = {
fillColor = (0,255);
};
closed = 1;
nodes = (
(450,-100,l),
(450,-200,l),
(350,-200,l),
(350,-100,l)
);
},
{
attr = {
fillColor = (0,255);
};
closed = 1;
nodes = (
(450,0,l),
(450,-100,l),
(350,-100,l),
(350,0,l)
);
},
{
attr = {
fillColor = (0,255);
};
closed = 1;
nodes = (
(450,100,l),
(450,0,l),
(350,0,l),
(350,100,l)
);
},
{
attr = {
fillColor = (0,255);
};
closed = 1;
nodes = (
(150,100,l),
(150,0,l),
(50,0,l),
(50,100,l)
);
},
{
attr = {
fillColor = (0,255);
};
closed = 1;
nodes = (
(550,200,l),
(550,100,l),
(450,100,l),
(450,200,l)
);
},
{
attr = {
fillColor = (0,255);
};
closed = 1;
nodes = (
(250,200,l),
(250,100,l),
(150,100,l),
(150,200,l)
);
},
{
attr = {
fillColor = (0,255);
};
closed = 1;
nodes = (
(350,300,l),
(350,200,l),
(250,200,l),
(250,300,l)
);
},
{
attr = {
fillColor = (0,255);
};
closed = 1;
nodes = (
(150,300,l),
(150,200,l),
(50,200,l),
(50,300,l)
);
},
{
attr = {
fillColor = (0,255);
};
closed = 1;
nodes = (
(750,300,l),
(750,200,l),
(650,200,l),
(650,300,l)
);
},
{
attr = {
fillColor = (0,255);
};
closed = 1;
nodes = (
(650,300,l),
(650,200,l),
(550,200,l),
(550,300,l)
);
}
);
width = 800;
}
);
unicode = 12369;
},
{
glyphname = "ge-hira";
lastChange = "2021-03-11 15:00:58 +0000";
layers = (
{
layerId = m01;
shapes = (
{
attr = {
fillColor = (0,255);
};
closed = 1;
nodes = (
(250,400,l),
(250,300,l),
(150,300,l),
(150,400,l)
);
},
{
attr = {
fillColor = (0,255);
};
closed = 1;
nodes = (
(750,400,l),
(750,300,l),
(650,300,l),
(650,400,l)
);
},
{
attr = {
fillColor = (0,255);
};
closed = 1;
nodes = (
(550,500,l),
(550,400,l),
(450,400,l),
(450,500,l)
);
},
{
attr = {
fillColor = (0,255);
};
closed = 1;
nodes = (
(250,500,l),
(250,400,l),
(150,400,l),
(150,500,l)
);
},
{
attr = {
fillColor = (0,255);
};
closed = 1;
nodes = (
(650,500,l),
(650,400,l),
(550,400,l),
(550,500,l)
);
},
{
attr = {
fillColor = (0,255);
};
closed = 1;
nodes = (
(450,600,l),
(450,500,l),
(350,500,l),
(350,600,l)
);
},
{
attr = {
fillColor = (0,255);
};
closed = 1;
nodes = (
(750,600,l),
(750,500,l),
(650,500,l),
(650,600,l)
);
},
{
attr = {
fillColor = (0,255);
};
closed = 1;
nodes = (
(650,600,l),
(650,500,l),
(550,500,l),
(550,600,l)
);
},
{
attr = {
fillColor = (0,255);
};
closed = 1;
nodes = (
(450,700,l),
(450,600,l),
(350,600,l),
(350,700,l)
);
},
{
attr = {
fillColor = (0,255);
};
closed = 1;
nodes = (
(250,700,l),
(250,600,l),
(150,600,l),
(150,700,l)
);
},
{
attr = {
fillColor = (0,255);
};
closed = 1;
nodes = (
(450,800,l),
(450,700,l),
(350,700,l),
(350,800,l)
);
},
{
attr = {
fillColor = (0,255);
};
closed = 1;
nodes = (
(350,800,l),
(350,700,l),
(250,700,l),
(250,800,l)
);
},
{
attr = {
fillColor = (0,255);
};
closed = 1;
nodes = (
(450,-100,l),
(450,-200,l),
(350,-200,l),
(350,-100,l)
);
},
{
attr = {
fillColor = (0,255);
};
closed = 1;
nodes = (
(450,0,l),
(450,-100,l),
(350,-100,l),
(350,0,l)
);
},
{
attr = {
fillColor = (0,255);
};
closed = 1;
nodes = (
(450,100,l),
(450,0,l),
(350,0,l),
(350,100,l)
);
},
{
attr = {
fillColor = (0,255);
};
closed = 1;
nodes = (
(250,100,l),
(250,0,l),
(150,0,l),
(150,100,l)
);
},
{
attr = {
fillColor = (0,255);
};
closed = 1;
nodes = (
(550,200,l),
(550,100,l),
(450,100,l),
(450,200,l)
);
},
{
attr = {
fillColor = (0,255);
};
closed = 1;
nodes = (
(250,200,l),
(250,100,l),
(150,100,l),
(150,200,l)
);
},
{
attr = {
fillColor = (0,255);
};
closed = 1;
nodes = (
(350,300,l),
(350,200,l),
(250,200,l),
(250,300,l)
);
},
{
attr = {
fillColor = (0,255);
};
closed = 1;
nodes = (
(150,300,l),
(150,200,l),
(50,200,l),
(50,300,l)
);
},
{
attr = {
fillColor = (0,255);
};
closed = 1;
nodes = (
(650,300,l),
(650,200,l),
(550,200,l),
(550,300,l)
);
}
);
width = 800;
}
);
unicode = 12370;
},
{
glyphname = "ko-hira";
lastChange = "2021-03-04 18:37:07 +0000";
layers = (
{
layerId = m01;
shapes = (
{
attr = {
fillColor = (0,255);
};
closed = 1;
nodes = (
(550,400,l),
(550,300,l),
(450,300,l),
(450,400,l)
);
},
{
attr = {
fillColor = (0,255);
};
closed = 1;
nodes = (
(250,400,l),
(250,300,l),
(150,300,l),
(150,400,l)
);
},
{
attr = {
fillColor = (0,255);
};
closed = 1;
nodes = (
(150,400,l),
(150,300,l),
(50,300,l),
(50,400,l)
);
},
{
attr = {
fillColor = (0,255);
};
closed = 1;
nodes = (
(550,500,l),
(550,400,l),
(450,400,l),
(450,500,l)
);
},
{
attr = {
fillColor = (0,255);
};
closed = 1;
nodes = (
(450,500,l),
(450,400,l),
(350,400,l),
(350,500,l)
);
},
{
attr = {
fillColor = (0,255);
};
closed = 1;
nodes = (
(350,600,l),
(350,500,l),
(250,500,l),
(250,600,l)
);
},
{
attr = {
fillColor = (0,255);
};
closed = 1;
nodes = (
(550,700,l),
(550,600,l),
(450,600,l),
(450,700,l)
);
},
{
attr = {
fillColor = (0,255);
};
closed = 1;
nodes = (
(450,700,l),
(450,600,l),
(350,600,l),
(350,700,l)
);
},
{
attr = {
fillColor = (0,255);
};
closed = 1;
nodes = (
(450,800,l),
(450,700,l),
(350,700,l),
(350,800,l)
);
},
{
attr = {
fillColor = (0,255);
};
closed = 1;
nodes = (
(350,800,l),
(350,700,l),
(250,700,l),
(250,800,l)
);
},
{
attr = {
fillColor = (0,255);
};
closed = 1;
nodes = (
(150,-100,l),
(150,-200,l),
(50,-200,l),
(50,-100,l)
);
},
{
attr = {
fillColor = (0,255);
};
closed = 1;
nodes = (
(750,-100,l),
(750,-200,l),
(650,-200,l),
(650,-100,l)
);
},
{
attr = {
fillColor = (0,255);
};
closed = 1;
nodes = (
(650,-100,l),
(650,-200,l),
(550,-200,l),
(550,-100,l)
);
},
{
attr = {
fillColor = (0,255);
};
closed = 1;
nodes = (
(550,0,l),
(550,-100,l),
(450,-100,l),
(450,0,l)
);
},
{
attr = {
fillColor = (0,255);
};
closed = 1;
nodes = (
(150,0,l),
(150,-100,l),
(50,-100,l),
(50,0,l)
);
},
{
attr = {
fillColor = (0,255);
};
closed = 1;
nodes = (
(950,0,l),
(950,-100,l),
(850,-100,l),
(850,0,l)
);
},
{
attr = {
fillColor = (0,255);
};
closed = 1;
nodes = (
(850,0,l),
(850,-100,l),
(750,-100,l),
(750,0,l)
);
},
{
attr = {
fillColor = (0,255);
};
closed = 1;
nodes = (
(450,100,l),
(450,0,l),
(350,0,l),
(350,100,l)
);
},
{
attr = {
fillColor = (0,255);
};
closed = 1;
nodes = (
(250,100,l),
(250,0,l),
(150,0,l),
(150,100,l)
);
},
{
attr = {
fillColor = (0,255);
};
closed = 1;
nodes = (
(350,200,l),
(350,100,l),
(250,100,l),
(250,200,l)
);
},
{
attr = {
fillColor = (0,255);
};
closed = 1;
nodes = (
(450,300,l),
(450,200,l),
(350,200,l),
(350,300,l)
);
},
{
attr = {
fillColor = (0,255);
};
closed = 1;
nodes = (
(250,300,l),
(250,200,l),
(150,200,l),
(150,300,l)
);
}
);
width = 1000;
}
);
unicode = 12371;
},
{
glyphname = "go-hira";
lastChange = "2021-03-11 15:01:20 +0000";
layers = (
{
layerId = m01;
shapes = (
{
attr = {
fillColor = (0,255);
};
closed = 1;
nodes = (
(450,410,l),
(450,310,l),
(350,310,l),
(350,410,l)
);
},
{
attr = {
fillColor = (0,255);
};
closed = 1;
nodes = (
(150,410,l),
(150,310,l),
(50,310,l),
(50,410,l)
);
},
{
attr = {
fillColor = (0,255);
};
closed = 1;
nodes = (
(550,510,l),
(550,410,l),
(450,410,l),
(450,510,l)
);
},
{
attr = {
fillColor = (0,255);
};
closed = 1;
nodes = (
(450,610,l),
(450,510,l),
(350,510,l),
(350,610,l)
);
},
{
attr = {
fillColor = (0,255);
};
closed = 1;
nodes = (
(350,610,l),
(350,510,l),
(250,510,l),
(250,610,l)
);
},
{
attr = {
fillColor = (0,255);
};
closed = 1;
nodes = (
(450,710,l),
(450,610,l),
(350,610,l),
(350,710,l)
);
},
{
attr = {
fillColor = (0,255);
};
closed = 1;
nodes = (
(350,810,l),
(350,710,l),
(250,710,l),
(250,810,l)
);
},
{
attr = {
fillColor = (0,255);
};
closed = 1;
nodes = (
(150,-90,l),
(150,-190,l),
(50,-190,l),
(50,-90,l)
);
},
{
attr = {
fillColor = (0,255);
};
closed = 1;
nodes = (
(750,-90,l),
(750,-190,l),
(650,-190,l),
(650,-90,l)
);
},
{
attr = {
fillColor = (0,255);
};
closed = 1;
nodes = (
(650,-90,l),
(650,-190,l),
(550,-190,l),
(550,-90,l)
);
},
{
attr = {
fillColor = (0,255);
};
closed = 1;
nodes = (
(550,10,l),
(550,-90,l),
(450,-90,l),
(450,10,l)
);
},
{
attr = {
fillColor = (0,255);
};
closed = 1;
nodes = (
(150,10,l),
(150,-90,l),
(50,-90,l),
(50,10,l)
);
},
{
attr = {
fillColor = (0,255);
};
closed = 1;
nodes = (
(850,10,l),
(850,-90,l),
(750,-90,l),
(750,10,l)
);
},
{
attr = {
fillColor = (0,255);
};
closed = 1;
nodes = (
(450,110,l),
(450,10,l),
(350,10,l),
(350,110,l)
);
},
{
attr = {
fillColor = (0,255);
};
closed = 1;
nodes = (
(150,110,l),
(150,10,l),
(50,10,l),
(50,110,l)
);
},
{
attr = {
fillColor = (0,255);
};
closed = 1;
nodes = (
(350,210,l),
(350,110,l),
(250,110,l),
(250,210,l)
);
},
{
attr = {
fillColor = (0,255);
};
closed = 1;
nodes = (
(250,210,l),
(250,110,l),
(150,110,l),
(150,210,l)
);
},
{
attr = {
fillColor = (0,255);
};
closed = 1;
nodes = (
(750,210,l),
(750,110,l),
(650,110,l),
(650,210,l)
);
},
{
attr = {
fillColor = (0,255);
};
closed = 1;
nodes = (
(350,310,l),
(350,210,l),
(250,210,l),
(250,310,l)
);
},
{
attr = {
fillColor = (0,255);
};
closed = 1;
nodes = (
(750,310,l),
(750,210,l),
(650,210,l),
(650,310,l)
);
},
{
attr = {
fillColor = (0,255);
};
closed = 1;
nodes = (
(650,310,l),
(650,210,l),
(550,210,l),
(550,310,l)
);
}
);
width = 900;
}
);
unicode = 12372;
},
{
glyphname = "sa-hira";
lastChange = "2021-03-05 01:42:57 +0000";
layers = (
{
layerId = m01;
shapes = (
{
attr = {
fillColor = (0,255);
};
closed = 1;
nodes = (
(450,400,l),
(450,300,l),
(350,300,l),
(350,400,l)
);
},
{
attr = {
fillColor = (0,255);
};
closed = 1;
nodes = (
(250,400,l),
(250,300,l),
(150,300,l),
(150,400,l)
);
},
{
attr = {
fillColor = (0,255);
};
closed = 1;
nodes = (
(450,500,l),
(450,400,l),
(350,400,l),
(350,500,l)
);
},
{
attr = {
fillColor = (0,255);
};
closed = 1;
nodes = (
(350,500,l),
(350,400,l),
(250,400,l),
(250,500,l)
);
},
{
attr = {
fillColor = (0,255);
};
closed = 1;
nodes = (
(150,500,l),
(150,400,l),
(50,400,l),
(50,500,l)
);
},
{
attr = {
fillColor = (0,255);
};
closed = 1;
nodes = (
(350,600,l),
(350,500,l),
(250,500,l),
(250,600,l)
);
},
{
attr = {
fillColor = (0,255);
};
closed = 1;
nodes = (
(250,600,l),
(250,500,l),
(150,500,l),
(150,600,l)
);
},
{
attr = {
fillColor = (0,255);
};
closed = 1;
nodes = (
(550,700,l),
(550,600,l),
(450,600,l),
(450,700,l)
);
},
{
attr = {
fillColor = (0,255);
};
closed = 1;
nodes = (
(450,700,l),
(450,600,l),
(350,600,l),
(350,700,l)
);
},
{
attr = {
fillColor = (0,255);
};
closed = 1;
nodes = (
(650,700,l),
(650,600,l),
(550,600,l),
(550,700,l)
);
},
{
attr = {
fillColor = (0,255);
};
closed = 1;
nodes = (
(550,800,l),
(550,700,l),
(450,700,l),
(450,800,l)
);
},
{
attr = {
fillColor = (0,255);
};
closed = 1;
nodes = (
(250,-100,l),
(250,-200,l),
(150,-200,l),
(150,-100,l)
);
},
{
attr = {
fillColor = (0,255);
};
closed = 1;
nodes = (
(250,0,l),
(250,-100,l),
(150,-100,l),
(150,0,l)
);
},
{
attr = {
fillColor = (0,255);
};
closed = 1;
nodes = (
(250,100,l),
(250,0,l),
(150,0,l),
(150,100,l)
);
},
{
attr = {
fillColor = (0,255);
};
closed = 1;
nodes = (
(550,200,l),
(550,100,l),
(450,100,l),
(450,200,l)
);
},
{
attr = {
fillColor = (0,255);
};
closed = 1;
nodes = (
(450,200,l),
(450,100,l),
(350,100,l),
(350,200,l)
);
},
{
attr = {
fillColor = (0,255);
};
closed = 1;
nodes = (
(350,200,l),
(350,100,l),
(250,100,l),
(250,200,l)
);
},
{
attr = {
fillColor = (0,255);
};
closed = 1;
nodes = (
(550,300,l),
(550,200,l),
(450,200,l),
(450,300,l)
);
}
);
width = 700;
}
);
unicode = 12373;
},
{
glyphname = "za-hira";
lastChange = "2021-03-12 12:51:49 +0000";
layers = (
{
layerId = m01;
shapes = (
{
attr = {
fillColor = (0,255);
};
closed = 1;
nodes = (
(450,400,l),
(450,300,l),
(350,300,l),
(350,400,l)
);
},
{
attr = {
fillColor = (0,255);
};
closed = 1;
nodes = (
(250,400,l),
(250,300,l),
(150,300,l),
(150,400,l)
);
},
{
attr = {
fillColor = (0,255);
};
closed = 1;
nodes = (
(750,400,l),
(750,300,l),
(650,300,l),
(650,400,l)
);
},
{
attr = {
fillColor = (0,255);
};
closed = 1;
nodes = (
(450,500,l),
(450,400,l),
(350,400,l),
(350,500,l)
);
},
{
attr = {
fillColor = (0,255);
};
closed = 1;
nodes = (
(350,500,l),
(350,400,l),
(250,400,l),
(250,500,l)
);
},
{
attr = {
fillColor = (0,255);
};
closed = 1;
nodes = (
(650,500,l),
(650,400,l),
(550,400,l),
(550,500,l)
);
},
{
attr = {
fillColor = (0,255);
};
closed = 1;
nodes = (
(350,600,l),
(350,500,l),
(250,500,l),
(250,600,l)
);
},
{
attr = {
fillColor = (0,255);
};
closed = 1;
nodes = (
(250,600,l),
(250,500,l),
(150,500,l),
(150,600,l)
);
},
{
attr = {
fillColor = (0,255);
};
closed = 1;
nodes = (
(150,600,l),
(150,500,l),
(50,500,l),
(50,600,l)
);
},
{
attr = {
fillColor = (0,255);
};
closed = 1;
nodes = (
(450,700,l),
(450,600,l),
(350,600,l),
(350,700,l)
);
},
{
attr = {
fillColor = (0,255);
};
closed = 1;
nodes = (
(350,700,l),
(350,600,l),
(250,600,l),
(250,700,l)
);
},
{
attr = {
fillColor = (0,255);
};
closed = 1;
nodes = (
(650,700,l),
(650,600,l),
(550,600,l),
(550,700,l)
);
},
{
attr = {
fillColor = (0,255);
};
closed = 1;
nodes = (
(550,800,l),
(550,700,l),
(450,700,l),
(450,800,l)
);
},
{
attr = {
fillColor = (0,255);
};
closed = 1;
nodes = (
(650,800,l),
(650,700,l),
(550,700,l),
(550,800,l)
);
},
{
attr = {
fillColor = (0,255);
};
closed = 1;
nodes = (
(250,-100,l),
(250,-200,l),
(150,-200,l),
(150,-100,l)
);
},
{
attr = {
fillColor = (0,255);
};
closed = 1;
nodes = (
(250,0,l),
(250,-100,l),
(150,-100,l),
(150,0,l)
);
},
{
attr = {
fillColor = (0,255);
};
closed = 1;
nodes = (
(350,100,l),
(350,0,l),
(250,0,l),
(250,100,l)
);
},
{
attr = {
fillColor = (0,255);
};
closed = 1;
nodes = (
(550,200,l),
(550,100,l),
(450,100,l),
(450,200,l)
);
},
{
attr = {
fillColor = (0,255);
};
closed = 1;
nodes = (
(450,200,l),
(450,100,l),
(350,100,l),
(350,200,l)
);
},
{
attr = {
fillColor = (0,255);
};
closed = 1;
nodes = (
(550,300,l),
(550,200,l),
(450,200,l),
(450,300,l)
);
}
);
width = 800;
}
);
unicode = 12374;
},
{
glyphname = "si-hira";
lastChange = "2021-03-05 01:43:25 +0000";
layers = (
{
layerId = m01;
shapes = (
{
attr = {
fillColor = (0,255);
};
closed = 1;
nodes = (
(550,400,l),
(550,300,l),
(450,300,l),
(450,400,l)
);
},
{
attr = {
fillColor = (0,255);
};
closed = 1;
nodes = (
(650,400,l),
(650,300,l),
(550,300,l),
(550,400,l)
);
},
{
attr = {
fillColor = (0,255);
};
closed = 1;
nodes = (
(550,500,l),
(550,400,l),
(450,400,l),
(450,500,l)
);
},
{
attr = {
fillColor = (0,255);
};
closed = 1;
nodes = (
(450,500,l),
(450,400,l),
(350,400,l),
(350,500,l)
);
},
{
attr = {
fillColor = (0,255);
};
closed = 1;
nodes = (
(350,500,l),
(350,400,l),
(250,400,l),
(250,500,l)
);
},
{
attr = {
fillColor = (0,255);
};
closed = 1;
nodes = (
(850,500,l),
(850,400,l),
(750,400,l),
(750,500,l)
);
},
{
attr = {
fillColor = (0,255);
};
closed = 1;
nodes = (
(750,500,l),
(750,400,l),
(650,400,l),
(650,500,l)
);
},
{
attr = {
fillColor = (0,255);
};
closed = 1;
nodes = (
(550,600,l),
(550,500,l),
(450,500,l),
(450,600,l)
);
},
{
attr = {
fillColor = (0,255);
};
closed = 1;
nodes = (
(350,600,l),
(350,500,l),
(250,500,l),
(250,600,l)
);
},
{
attr = {
fillColor = (0,255);
};
closed = 1;
nodes = (
(550,700,l),
(550,600,l),
(450,600,l),
(450,700,l)
);
},
{
attr = {
fillColor = (0,255);
};
closed = 1;
nodes = (
(650,700,l),
(650,600,l),
(550,600,l),
(550,700,l)
);
},
{
attr = {
fillColor = (0,255);
};
closed = 1;
nodes = (
(550,800,l),
(550,700,l),
(450,700,l),
(450,800,l)
);
},
{
attr = {
fillColor = (0,255);
};
closed = 1;
nodes = (
(450,800,l),
(450,700,l),
(350,700,l),
(350,800,l)
);
},
{
attr = {
fillColor = (0,255);
};
closed = 1;
nodes = (
(550,-100,l),
(550,-200,l),
(450,-200,l),
(450,-100,l)
);
},
{
attr = {
fillColor = (0,255);
};
closed = 1;
nodes = (
(550,0,l),
(550,-100,l),
(450,-100,l),
(450,0,l)
);
},
{
attr = {
fillColor = (0,255);
};
closed = 1;
nodes = (
(150,0,l),
(150,-100,l),
(50,-100,l),
(50,0,l)
);
},
{
attr = {
fillColor = (0,255);
};
closed = 1;
nodes = (
(550,100,l),
(550,0,l),
(450,0,l),
(450,100,l)
);
},
{
attr = {
fillColor = (0,255);
};
closed = 1;
nodes = (
(250,100,l),
(250,0,l),
(150,0,l),
(150,100,l)
);
},
{
attr = {
fillColor = (0,255);
};
closed = 1;
nodes = (
(950,100,l),
(950,0,l),
(850,0,l),
(850,100,l)
);
},
{
attr = {
fillColor = (0,255);
};
closed = 1;
nodes = (
(850,100,l),
(850,0,l),
(750,0,l),
(750,100,l)
);
},
{
attr = {
fillColor = (0,255);
};
closed = 1;
nodes = (
(550,200,l),
(550,100,l),
(450,100,l),
(450,200,l)
);
},
{
attr = {
fillColor = (0,255);
};
closed = 1;
nodes = (
(350,200,l),
(350,100,l),
(250,100,l),
(250,200,l)
);
},
{
attr = {
fillColor = (0,255);
};
closed = 1;
nodes = (
(750,200,l),
(750,100,l),
(650,100,l),
(650,200,l)
);
},
{
attr = {
fillColor = (0,255);
};
closed = 1;
nodes = (
(550,300,l),
(550,200,l),
(450,200,l),
(450,300,l)
);
},
{
attr = {
fillColor = (0,255);
};
closed = 1;
nodes = (
(350,300,l),
(350,200,l),
(250,200,l),
(250,300,l)
);
},
{
attr = {
fillColor = (0,255);
};
closed = 1;
nodes = (
(250,300,l),
(250,200,l),
(150,200,l),
(150,300,l)
);
},
{
attr = {
fillColor = (0,255);
};
closed = 1;
nodes = (
(650,300,l),
(650,200,l),
(550,200,l),
(550,300,l)
);
}
);
width = 1000;
}
);
unicode = 12375;
},
{
glyphname = "zi-hira";
lastChange = "2021-03-12 12:52:58 +0000";
layers = (
{
layerId = m01;
shapes = (
{
attr = {
fillColor = (0,255);
};
closed = 1;
nodes = (
(550,400,l),
(550,300,l),
(450,300,l),
(450,400,l)
);
},
{
attr = {
fillColor = (0,255);
};
closed = 1;
nodes = (
(450,400,l),
(450,300,l),
(350,300,l),
(350,400,l)
);
},
{
attr = {
fillColor = (0,255);
};
closed = 1;
nodes = (
(250,400,l),
(250,300,l),
(150,300,l),
(150,400,l)
);
},
{
attr = {
fillColor = (0,255);
};
closed = 1;
nodes = (
(150,400,l),
(150,300,l),
(50,300,l),
(50,400,l)
);
},
{
attr = {
fillColor = (0,255);
};
closed = 1;
nodes = (
(450,500,l),
(450,400,l),
(350,400,l),
(350,500,l)
);
},
{
attr = {
fillColor = (0,255);
};
closed = 1;
nodes = (
(650,500,l),
(650,400,l),
(550,400,l),
(550,500,l)
);
},
{
attr = {
fillColor = (0,255);
};
closed = 1;
nodes = (
(450,600,l),
(450,500,l),
(350,500,l),
(350,600,l)
);
},
{
attr = {
fillColor = (0,255);
};
closed = 1;
nodes = (
(250,600,l),
(250,500,l),
(150,500,l),
(150,600,l)
);
},
{
attr = {
fillColor = (0,255);
};
closed = 1;
nodes = (
(850,600,l),
(850,500,l),
(750,500,l),
(750,600,l)
);
},
{
attr = {
fillColor = (0,255);
};
closed = 1;
nodes = (
(450,700,l),
(450,600,l),
(350,600,l),
(350,700,l)
);
},
{
attr = {
fillColor = (0,255);
};
closed = 1;
nodes = (
(750,700,l),
(750,600,l),
(650,600,l),
(650,700,l)
);
},
{
attr = {
fillColor = (0,255);
};
closed = 1;
nodes = (
(650,700,l),
(650,600,l),
(550,600,l),
(550,700,l)
);
},
{
attr = {
fillColor = (0,255);
};
closed = 1;
nodes = (
(450,800,l),
(450,700,l),
(350,700,l),
(350,800,l)
);
},
{
attr = {
fillColor = (0,255);
};
closed = 1;
nodes = (
(350,800,l),
(350,700,l),
(250,700,l),
(250,800,l)
);
},
{
attr = {
fillColor = (0,255);
};
closed = 1;
nodes = (
(450,-100,l),
(450,-200,l),
(350,-200,l),
(350,-100,l)
);
},
{
attr = {
fillColor = (0,255);
};
closed = 1;
nodes = (
(450,0,l),
(450,-100,l),
(350,-100,l),
(350,0,l)
);
},
{
attr = {
fillColor = (0,255);
};
closed = 1;
nodes = (
(450,100,l),
(450,0,l),
(350,0,l),
(350,100,l)
);
},
{
attr = {
fillColor = (0,255);
};
closed = 1;
nodes = (
(150,100,l),
(150,0,l),
(50,0,l),
(50,100,l)
);
},
{
attr = {
fillColor = (0,255);
};
closed = 1;
nodes = (
(850,100,l),
(850,0,l),
(750,0,l),
(750,100,l)
);
},
{
attr = {
fillColor = (0,255);
};
closed = 1;
nodes = (
(750,100,l),
(750,0,l),
(650,0,l),
(650,100,l)
);
},
{
attr = {
fillColor = (0,255);
};
closed = 1;
nodes = (
(450,200,l),
(450,100,l),
(350,100,l),
(350,200,l)
);
},
{
attr = {
fillColor = (0,255);
};
closed = 1;
nodes = (
(250,200,l),
(250,100,l),
(150,100,l),
(150,200,l)
);
},
{
attr = {
fillColor = (0,255);
};
closed = 1;
nodes = (
(650,200,l),
(650,100,l),
(550,100,l),
(550,200,l)
);
},
{
attr = {
fillColor = (0,255);
};
closed = 1;
nodes = (
(550,300,l),
(550,200,l),
(450,200,l),
(450,300,l)
);
},
{
attr = {
fillColor = (0,255);
};
closed = 1;
nodes = (
(450,300,l),
(450,200,l),
(350,200,l),
(350,300,l)
);
},
{
attr = {
fillColor = (0,255);
};
closed = 1;
nodes = (
(250,300,l),
(250,200,l),
(150,200,l),
(150,300,l)
);
}
);
width = 900;
}
);
unicode = 12376;
},
{
glyphname = "su-hira";
lastChange = "2021-03-12 12:55:06 +0000";
layers = (
{
layerId = m01;
shapes = (
{
attr = {
fillColor = (0,255);
};
closed = 1;
nodes = (
(550,400,l),
(550,300,l),
(450,300,l),
(450,400,l)
);
},
{
attr = {
fillColor = (0,255);
};
closed = 1;
nodes = (
(450,500,l),
(450,400,l),
(350,400,l),
(350,500,l)
);
},
{
attr = {
fillColor = (0,255);
};
closed = 1;
nodes = (
(250,500,l),
(250,400,l),
(150,400,l),
(150,500,l)
);
},
{
attr = {
fillColor = (0,255);
};
closed = 1;
nodes = (
(550,600,l),
(550,500,l),
(450,500,l),
(450,600,l)
);
},
{
attr = {
fillColor = (0,255);
};
closed = 1;
nodes = (
(450,600,l),
(450,500,l),
(350,500,l),
(350,600,l)
);
},
{
attr = {
fillColor = (0,255);
};
closed = 1;
nodes = (
(350,600,l),
(350,500,l),
(250,500,l),
(250,600,l)
);
},
{
attr = {
fillColor = (0,255);
};
closed = 1;
nodes = (
(250,600,l),
(250,700,l)
);
},
{
attr = {
fillColor = (0,255);
};
closed = 1;
nodes = (
(450,800,l),
(450,700,l),
(350,700,l),
(350,800,l)
);
},
{
attr = {
fillColor = (0,255);
};
closed = 1;
nodes = (
(350,800,l),
(350,700,l),
(250,700,l),
(250,800,l)
);
},
{
attr = {
fillColor = (0,255);
};
closed = 1;
nodes = (
(150,-100,l),
(150,-200,l),
(50,-200,l),
(50,-100,l)
);
},
{
attr = {
fillColor = (0,255);
};
closed = 1;
nodes = (
(450,0,l),
(450,-100,l),
(350,-100,l),
(350,0,l)
);
},
{
attr = {
fillColor = (0,255);
};
closed = 1;
nodes = (
(150,0,l),
(150,-100,l),
(50,-100,l),
(50,0,l)
);
},
{
attr = {
fillColor = (0,255);
};
closed = 1;
nodes = (
(550,100,l),
(550,0,l),
(450,0,l),
(450,100,l)
);
},
{
attr = {
fillColor = (0,255);
};
closed = 1;
nodes = (
(450,100,l),
(450,0,l),
(350,0,l),
(350,100,l)
);
},
{
attr = {
fillColor = (0,255);
};
closed = 1;
nodes = (
(250,100,l),
(250,0,l),
(150,0,l),
(150,100,l)
);
},
{
attr = {
fillColor = (0,255);
};
closed = 1;
nodes = (
(350,200,l),
(350,100,l),
(250,100,l),
(250,200,l)
);
},
{
attr = {
fillColor = (0,255);
};
closed = 1;
nodes = (
(650,200,l),
(650,100,l),
(550,100,l),
(550,200,l)
);
},
{
attr = {
fillColor = (0,255);
};
closed = 1;
nodes = (
(450,300,l),
(450,200,l),
(350,200,l),
(350,300,l)
);
},
{
attr = {
fillColor = (0,255);
};
closed = 1;
nodes = (
(750,300,l),
(750,200,l),
(650,200,l),
(650,300,l)
);
}
);
width = 800;
}
);
unicode = 12377;
},
{
glyphname = "zu-hira";
lastChange = "2021-03-12 12:54:14 +0000";
layers = (
{
layerId = m01;
shapes = (
{
attr = {
fillColor = (0,255);
};
closed = 1;
nodes = (
(550,400,l),
(550,300,l),
(450,300,l),
(450,400,l)
);
},
{
attr = {
fillColor = (0,255);
};
closed = 1;
nodes = (
(450,500,l),
(450,400,l),
(350,400,l),
(350,500,l)
);
},
{
attr = {
fillColor = (0,255);
};
closed = 1;
nodes = (
(750,500,l),
(750,400,l),
(650,400,l),
(650,500,l)
);
},
{
attr = {
fillColor = (0,255);
};
closed = 1;
nodes = (
(650,500,l),
(650,400,l),
(550,400,l),
(550,500,l)
);
},
{
attr = {
fillColor = (0,255);
};
closed = 1;
nodes = (
(550,600,l),
(550,500,l),
(450,500,l),
(450,600,l)
);
},
{
attr = {
fillColor = (0,255);
};
closed = 1;
nodes = (
(450,600,l),
(450,500,l),
(350,500,l),
(350,600,l)
);
},
{
attr = {
fillColor = (0,255);
};
closed = 1;
nodes = (
(350,600,l),
(350,500,l),
(250,500,l),
(250,600,l)
);
},
{
attr = {
fillColor = (0,255);
};
closed = 1;
nodes = (
(250,600,l),
(250,500,l),
(150,500,l),
(150,600,l)
);
},
{
attr = {
fillColor = (0,255);
};
closed = 1;
nodes = (
(450,800,l),
(450,700,l),
(350,700,l),
(350,800,l)
);
},
{
attr = {
fillColor = (0,255);
};
closed = 1;
nodes = (
(350,800,l),
(350,700,l),
(250,700,l),
(250,800,l)
);
},
{
attr = {
fillColor = (0,255);
};
closed = 1;
nodes = (
(150,-100,l),
(150,-200,l),
(50,-200,l),
(50,-100,l)
);
},
{
attr = {
fillColor = (0,255);
};
closed = 1;
nodes = (
(150,0,l),
(150,-100,l),
(50,-100,l),
(50,0,l)
);
},
{
attr = {
fillColor = (0,255);
};
closed = 1;
nodes = (
(550,100,l),
(550,0,l),
(450,0,l),
(450,100,l)
);
},
{
attr = {
fillColor = (0,255);
};
closed = 1;
nodes = (
(450,100,l),
(450,0,l),
(350,0,l),
(350,100,l)
);
},
{
attr = {
fillColor = (0,255);
};
closed = 1;
nodes = (
(250,100,l),
(250,0,l),
(150,0,l),
(150,100,l)
);
},
{
attr = {
fillColor = (0,255);
};
closed = 1;
nodes = (
(350,200,l),
(350,100,l),
(250,100,l),
(250,200,l)
);
},
{
attr = {
fillColor = (0,255);
};
closed = 1;
nodes = (
(650,200,l),
(650,100,l),
(550,100,l),
(550,200,l)
);
},
{
attr = {
fillColor = (0,255);
};
closed = 1;
nodes = (
(450,300,l),
(450,200,l),
(350,200,l),
(350,300,l)
);
},
{
attr = {
fillColor = (0,255);
};
closed = 1;
nodes = (
(750,300,l),
(750,200,l),
(650,200,l),
(650,300,l)
);
}
);
width = 800;
}
);
unicode = 12378;
},
{
glyphname = "se-hira";
lastChange = "2021-03-12 12:56:22 +0000";
layers = (
{
layerId = m01;
shapes = (
{
attr = {
fillColor = (0,255);
};
closed = 1;
nodes = (
(450,400,l),
(450,300,l),
(350,300,l),
(350,400,l)
);
},
{
attr = {
fillColor = (0,255);
};
closed = 1;
nodes = (
(250,400,l),
(250,300,l),
(150,300,l),
(150,400,l)
);
},
{
attr = {
fillColor = (0,255);
};
closed = 1;
nodes = (
(750,400,l),
(750,300,l),
(650,300,l),
(650,400,l)
);
},
{
attr = {
fillColor = (0,255);
};
closed = 1;
nodes = (
(550,500,l),
(550,400,l),
(450,400,l),
(450,500,l)
);
},
{
attr = {
fillColor = (0,255);
};
closed = 1;
nodes = (
(350,500,l),
(350,400,l),
(250,400,l),
(250,500,l)
);
},
{
attr = {
fillColor = (0,255);
};
closed = 1;
nodes = (
(250,500,l),
(250,400,l),
(150,400,l),
(150,500,l)
);
},
{
attr = {
fillColor = (0,255);
};
closed = 1;
nodes = (
(150,500,l),
(150,400,l),
(50,400,l),
(50,500,l)
);
},
{
attr = {
fillColor = (0,255);
};
closed = 1;
nodes = (
(650,500,l),
(650,400,l),
(550,400,l),
(550,500,l)
);
},
{
attr = {
fillColor = (0,255);
};
closed = 1;
nodes = (
(450,600,l),
(450,500,l),
(350,500,l),
(350,600,l)
);
},
{
attr = {
fillColor = (0,255);
};
closed = 1;
nodes = (
(450,700,l),
(450,600,l),
(350,600,l),
(350,700,l)
);
},
{
attr = {
fillColor = (0,255);
};
closed = 1;
nodes = (
(250,700,l),
(250,600,l),
(150,600,l),
(150,700,l)
);
},
{
attr = {
fillColor = (0,255);
};
closed = 1;
nodes = (
(350,700,l),
(350,800,l)
);
},
{
attr = {
fillColor = (0,255);
};
closed = 1;
nodes = (
(350,800,l),
(350,700,l),
(250,700,l),
(250,800,l)
);
},
{
attr = {
fillColor = (0,255);
};
closed = 1;
nodes = (
(450,-100,l),
(450,-200,l),
(350,-200,l),
(350,-100,l)
);
},
{
attr = {
fillColor = (0,255);
};
closed = 1;
nodes = (
(450,0,l),
(450,-100,l),
(350,-100,l),
(350,0,l)
);
},
{
attr = {
fillColor = (0,255);
};
closed = 1;
nodes = (
(450,100,l),
(450,0,l),
(350,0,l),
(350,100,l)
);
},
{
attr = {
fillColor = (0,255);
};
closed = 1;
nodes = (
(150,100,l),
(150,0,l),
(50,0,l),
(50,100,l)
);
},
{
attr = {
fillColor = (0,255);
};
closed = 1;
nodes = (
(550,200,l),
(550,100,l),
(450,100,l),
(450,200,l)
);
},
{
attr = {
fillColor = (0,255);
};
closed = 1;
nodes = (
(250,200,l),
(250,100,l),
(150,100,l),
(150,200,l)
);
},
{
attr = {
fillColor = (0,255);
};
closed = 1;
nodes = (
(350,300,l),
(350,200,l),
(250,200,l),
(250,300,l)
);
},
{
attr = {
fillColor = (0,255);
};
closed = 1;
nodes = (
(750,300,l),
(750,200,l),
(650,200,l),
(650,300,l)
);
},
{
attr = {
fillColor = (0,255);
};
closed = 1;
nodes = (
(650,300,l),
(650,200,l),
(550,200,l),
(550,300,l)
);
}
);
width = 800;
}
);
unicode = 12379;
},
{
glyphname = "ze-hira";
lastChange = "2021-03-12 12:56:11 +0000";
layers = (
{
layerId = m01;
shapes = (
{
attr = {
fillColor = (0,255);
};
closed = 1;
nodes = (
(450,400,l),
(450,300,l),
(350,300,l),
(350,400,l)
);
},
{
attr = {
fillColor = (0,255);
};
closed = 1;
nodes = (
(250,400,l),
(250,300,l),
(150,300,l),
(150,400,l)
);
},
{
attr = {
fillColor = (0,255);
};
closed = 1;
nodes = (
(750,400,l),
(750,300,l),
(650,300,l),
(650,400,l)
);
},
{
attr = {
fillColor = (0,255);
};
closed = 1;
nodes = (
(550,500,l),
(550,400,l),
(450,400,l),
(450,500,l)
);
},
{
attr = {
fillColor = (0,255);
};
closed = 1;
nodes = (
(250,500,l),
(250,400,l),
(150,400,l),
(150,500,l)
);
},
{
attr = {
fillColor = (0,255);
};
closed = 1;
nodes = (
(150,500,l),
(150,400,l),
(50,400,l),
(50,500,l)
);
},
{
attr = {
fillColor = (0,255);
};
closed = 1;
nodes = (
(650,500,l),
(650,400,l),
(550,400,l),
(550,500,l)
);
},
{
attr = {
fillColor = (0,255);
};
closed = 1;
nodes = (
(450,600,l),
(450,500,l),
(350,500,l),
(350,600,l)
);
},
{
attr = {
fillColor = (0,255);
};
closed = 1;
nodes = (
(750,600,l),
(750,500,l),
(650,500,l),
(650,600,l)
);
},
{
attr = {
fillColor = (0,255);
};
closed = 1;
nodes = (
(650,600,l),
(650,500,l),
(550,500,l),
(550,600,l)
);
},
{
attr = {
fillColor = (0,255);
};
closed = 1;
nodes = (
(450,700,l),
(450,600,l),
(350,600,l),
(350,700,l)
);
},
{
attr = {
fillColor = (0,255);
};
closed = 1;
nodes = (
(250,700,l),
(250,600,l),
(150,600,l),
(150,700,l)
);
},
{
attr = {
fillColor = (0,255);
};
closed = 1;
nodes = (
(350,800,l),
(350,700,l),
(250,700,l),
(250,800,l)
);
},
{
attr = {
fillColor = (0,255);
};
closed = 1;
nodes = (
(450,-100,l),
(450,-200,l),
(350,-200,l),
(350,-100,l)
);
},
{
attr = {
fillColor = (0,255);
};
closed = 1;
nodes = (
(450,0,l),
(450,-100,l),
(350,-100,l),
(350,0,l)
);
},
{
attr = {
fillColor = (0,255);
};
closed = 1;
nodes = (
(450,100,l),
(450,0,l),
(350,0,l),
(350,100,l)
);
},
{
attr = {
fillColor = (0,255);
};
closed = 1;
nodes = (
(150,100,l),
(150,0,l),
(50,0,l),
(50,100,l)
);
},
{
attr = {
fillColor = (0,255);
};
closed = 1;
nodes = (
(550,200,l),
(550,100,l),
(450,100,l),
(450,200,l)
);
},
{
attr = {
fillColor = (0,255);
};
closed = 1;
nodes = (
(250,200,l),
(250,100,l),
(150,100,l),
(150,200,l)
);
},
{
attr = {
fillColor = (0,255);
};
closed = 1;
nodes = (
(250,300,l),
(250,200,l),
(150,200,l),
(150,300,l)
);
},
{
attr = {
fillColor = (0,255);
};
closed = 1;
nodes = (
(650,300,l),
(650,200,l),
(550,200,l),
(550,300,l)
);
}
);
width = 800;
}
);
unicode = 12380;
},
{
glyphname = "so-hira";
lastChange = "2021-03-05 01:52:13 +0000";
layers = (
{
layerId = m01;
shapes = (
{
attr = {
fillColor = (0,255);
};
closed = 1;
nodes = (
(550,400,l),
(550,300,l),
(450,300,l),
(450,400,l)
);
},
{
attr = {
fillColor = (0,255);
};
closed = 1;
nodes = (
(350,400,l),
(350,300,l),
(250,300,l),
(250,400,l)
);
},
{
attr = {
fillColor = (0,255);
};
closed = 1;
nodes = (
(250,400,l),
(250,300,l),
(150,300,l),
(150,400,l)
);
},
{
attr = {
fillColor = (0,255);
};
closed = 1;
nodes = (
(150,400,l),
(150,300,l),
(50,300,l),
(50,400,l)
);
},
{
attr = {
fillColor = (0,255);
};
closed = 1;
nodes = (
(550,500,l),
(550,400,l),
(450,400,l),
(450,500,l)
);
},
{
attr = {
fillColor = (0,255);
};
closed = 1;
nodes = (
(450,600,l),
(450,500,l),
(350,500,l),
(350,600,l)
);
},
{
attr = {
fillColor = (0,255);
};
closed = 1;
nodes = (
(350,600,l),
(350,500,l),
(250,500,l),
(250,600,l)
);
},
{
attr = {
fillColor = (0,255);
};
closed = 1;
nodes = (
(450,700,l),
(450,600,l),
(350,600,l),
(350,700,l)
);
},
{
attr = {
fillColor = (0,255);
};
closed = 1;
nodes = (
(550,800,l),
(550,700,l),
(450,700,l),
(450,800,l)
);
},
{
attr = {
fillColor = (0,255);
};
closed = 1;
nodes = (
(850,-100,l),
(850,-200,l),
(750,-200,l),
(750,-100,l)
);
},
{
attr = {
fillColor = (0,255);
};
closed = 1;
nodes = (
(750,-100,l),
(750,-200,l),
(650,-200,l),
(650,-100,l)
);
},
{
attr = {
fillColor = (0,255);
};
closed = 1;
nodes = (
(650,-100,l),
(650,-200,l),
(550,-200,l),
(550,-100,l)
);
},
{
attr = {
fillColor = (0,255);
};
closed = 1;
nodes = (
(550,0,l),
(550,-100,l),
(450,-100,l),
(450,0,l)
);
},
{
attr = {
fillColor = (0,255);
};
closed = 1;
nodes = (
(150,0,l),
(150,-100,l),
(50,-100,l),
(50,0,l)
);
},
{
attr = {
fillColor = (0,255);
};
closed = 1;
nodes = (
(950,0,l),
(950,-100,l),
(850,-100,l),
(850,0,l)
);
},
{
attr = {
fillColor = (0,255);
};
closed = 1;
nodes = (
(550,100,l),
(550,0,l),
(450,0,l),
(450,100,l)
);
},
{
attr = {
fillColor = (0,255);
};
closed = 1;
nodes = (
(250,100,l),
(250,0,l),
(150,0,l),
(150,100,l)
);
},
{
attr = {
fillColor = (0,255);
};
closed = 1;
nodes = (
(550,200,l),
(550,100,l),
(450,100,l),
(450,200,l)
);
},
{
attr = {
fillColor = (0,255);
};
closed = 1;
nodes = (
(350,200,l),
(350,100,l),
(250,100,l),
(250,200,l)
);
},
{
attr = {
fillColor = (0,255);
};
closed = 1;
nodes = (
(550,300,l),
(550,200,l),
(450,200,l),
(450,300,l)
);
},
{
attr = {
fillColor = (0,255);
};
closed = 1;
nodes = (
(250,300,l),
(250,200,l),
(150,200,l),
(150,300,l)
);
}
);
width = 1000;
}
);
unicode = 12381;
},
{
glyphname = "zo-hira";
lastChange = "2021-03-12 12:56:49 +0000";
layers = (
{
layerId = m01;
shapes = (
{
attr = {
fillColor = (0,255);
};
closed = 1;
nodes = (
(550,400,l),
(550,300,l),
(450,300,l),
(450,400,l)
);
},
{
attr = {
fillColor = (0,255);
};
closed = 1;
nodes = (
(250,400,l),
(250,300,l),
(150,300,l),
(150,400,l)
);
},
{
attr = {
fillColor = (0,255);
};
closed = 1;
nodes = (
(150,400,l),
(150,300,l),
(50,300,l),
(50,400,l)
);
},
{
attr = {
fillColor = (0,255);
};
closed = 1;
nodes = (
(450,500,l),
(450,400,l),
(350,400,l),
(350,500,l)
);
},
{
attr = {
fillColor = (0,255);
};
closed = 1;
nodes = (
(350,500,l),
(350,400,l),
(250,400,l),
(250,500,l)
);
},
{
attr = {
fillColor = (0,255);
};
closed = 1;
nodes = (
(450,600,l),
(450,500,l),
(350,500,l),
(350,600,l)
);
},
{
attr = {
fillColor = (0,255);
};
closed = 1;
nodes = (
(750,600,l),
(750,500,l),
(650,500,l),
(650,600,l)
);
},
{
attr = {
fillColor = (0,255);
};
closed = 1;
nodes = (
(650,600,l),
(650,500,l),
(550,500,l),
(550,600,l)
);
},
{
attr = {
fillColor = (0,255);
};
closed = 1;
nodes = (
(450,700,l),
(450,600,l),
(350,600,l),
(350,700,l)
);
},
{
attr = {
fillColor = (0,255);
};
closed = 1;
nodes = (
(550,800,l),
(550,700,l),
(450,700,l),
(450,800,l)
);
},
{
attr = {
fillColor = (0,255);
};
closed = 1;
nodes = (
(850,-100,l),
(850,-200,l),
(750,-200,l),
(750,-100,l)
);
},
{
attr = {
fillColor = (0,255);
};
closed = 1;
nodes = (
(750,-100,l),
(750,-200,l),
(650,-200,l),
(650,-100,l)
);
},
{
attr = {
fillColor = (0,255);
};
closed = 1;
nodes = (
(650,-100,l),
(650,-200,l),
(550,-200,l),
(550,-100,l)
);
},
{
attr = {
fillColor = (0,255);
};
closed = 1;
nodes = (
(550,0,l),
(550,-100,l),
(450,-100,l),
(450,0,l)
);
},
{
attr = {
fillColor = (0,255);
};
closed = 1;
nodes = (
(150,0,l),
(150,-100,l),
(50,-100,l),
(50,0,l)
);
},
{
attr = {
fillColor = (0,255);
};
closed = 1;
nodes = (
(550,100,l),
(550,0,l),
(450,0,l),
(450,100,l)
);
},
{
attr = {
fillColor = (0,255);
};
closed = 1;
nodes = (
(250,100,l),
(250,0,l),
(150,0,l),
(150,100,l)
);
},
{
attr = {
fillColor = (0,255);
};
closed = 1;
nodes = (
(550,200,l),
(550,100,l),
(450,100,l),
(450,200,l)
);
},
{
attr = {
fillColor = (0,255);
};
closed = 1;
nodes = (
(350,200,l),
(350,100,l),
(250,100,l),
(250,200,l)
);
},
{
attr = {
fillColor = (0,255);
};
closed = 1;
nodes = (
(550,300,l),
(550,200,l),
(450,200,l),
(450,300,l)
);
},
{
attr = {
fillColor = (0,255);
};
closed = 1;
nodes = (
(250,300,l),
(250,200,l),
(150,200,l),
(150,300,l)
);
}
);
width = 900;
}
);
unicode = 12382;
},
{
glyphname = "ta-hira";
lastChange = "2021-03-06 11:39:57 +0000";
layers = (
{
layerId = m01;
shapes = (
{
attr = {
fillColor = (0,255);
};
closed = 1;
nodes = (
(450,400,l),
(450,300,l),
(350,300,l),
(350,400,l)
);
},
{
attr = {
fillColor = (0,255);
};
closed = 1;
nodes = (
(350,400,l),
(350,300,l),
(250,300,l),
(250,400,l)
);
},
{
attr = {
fillColor = (0,255);
};
closed = 1;
nodes = (
(250,400,l),
(250,300,l),
(150,300,l),
(150,400,l)
);
},
{
attr = {
fillColor = (0,255);
};
closed = 1;
nodes = (
(150,400,l),
(150,300,l),
(50,300,l),
(50,400,l)
);
},
{
attr = {
fillColor = (0,255);
};
closed = 1;
nodes = (
(650,400,l),
(650,300,l),
(550,300,l),
(550,400,l)
);
},
{
attr = {
fillColor = (0,255);
};
closed = 1;
nodes = (
(450,500,l),
(450,400,l),
(350,400,l),
(350,500,l)
);
},
{
attr = {
fillColor = (0,255);
};
closed = 1;
nodes = (
(250,500,l),
(250,400,l),
(150,400,l),
(150,500,l)
);
},
{
attr = {
fillColor = (0,255);
};
closed = 1;
nodes = (
(750,500,l),
(750,400,l),
(650,400,l),
(650,500,l)
);
},
{
attr = {
fillColor = (0,255);
};
closed = 1;
nodes = (
(650,500,l),
(650,400,l),
(550,400,l),
(550,500,l)
);
},
{
attr = {
fillColor = (0,255);
};
closed = 1;
nodes = (
(450,600,l),
(450,500,l),
(350,500,l),
(350,600,l)
);
},
{
attr = {
fillColor = (0,255);
};
closed = 1;
nodes = (
(250,600,l),
(250,500,l),
(150,500,l),
(150,600,l)
);
},
{
attr = {
fillColor = (0,255);
};
closed = 1;
nodes = (
(550,700,l),
(550,600,l),
(450,600,l),
(450,700,l)
);
},
{
attr = {
fillColor = (0,255);
};
closed = 1;
nodes = (
(450,700,l),
(450,600,l),
(350,600,l),
(350,700,l)
);
},
{
attr = {
fillColor = (0,255);
};
closed = 1;
nodes = (
(450,800,l),
(450,700,l),
(350,700,l),
(350,800,l)
);
},
{
attr = {
fillColor = (0,255);
};
closed = 1;
nodes = (
(350,800,l),
(350,700,l),
(250,700,l),
(250,800,l)
);
},
{
attr = {
fillColor = (0,255);
};
closed = 1;
nodes = (
(450,-100,l),
(450,-200,l),
(350,-200,l),
(350,-100,l)
);
},
{
attr = {
fillColor = (0,255);
};
closed = 1;
nodes = (
(450,0,l),
(450,-100,l),
(350,-100,l),
(350,0,l)
);
},
{
attr = {
fillColor = (0,255);
};
closed = 1;
nodes = (
(450,100,l),
(450,0,l),
(350,0,l),
(350,100,l)
);
},
{
attr = {
fillColor = (0,255);
};
closed = 1;
nodes = (
(150,100,l),
(150,0,l),
(50,0,l),
(50,100,l)
);
},
{
attr = {
fillColor = (0,255);
};
closed = 1;
nodes = (
(450,200,l),
(450,100,l),
(350,100,l),
(350,200,l)
);
},
{
attr = {
fillColor = (0,255);
};
closed = 1;
nodes = (
(350,200,l),
(350,100,l),
(250,100,l),
(250,200,l)
);
},
{
attr = {
fillColor = (0,255);
};
closed = 1;
nodes = (
(250,200,l),
(250,100,l),
(150,100,l),
(150,200,l)
);
},
{
attr = {
fillColor = (0,255);
};
closed = 1;
nodes = (
(550,300,l),
(550,200,l),
(450,200,l),
(450,300,l)
);
},
{
attr = {
fillColor = (0,255);
};
closed = 1;
nodes = (
(450,300,l),
(450,200,l),
(350,200,l),
(350,300,l)
);
},
{
attr = {
fillColor = (0,255);
};
closed = 1;
nodes = (
(250,300,l),
(250,200,l),
(150,200,l),
(150,300,l)
);
},
{
attr = {
fillColor = (0,255);
};
closed = 1;
nodes = (
(150,300,l),
(150,200,l),
(50,200,l),
(50,300,l)
);
}
);
width = 800;
}
);
unicode = 12383;
},
{
glyphname = "da-hira";
lastChange = "2021-03-12 12:57:47 +0000";
layers = (
{
layerId = m01;
shapes = (
{
attr = {
fillColor = (0,255);
};
closed = 1;
nodes = (
(450,400,l),
(450,300,l),
(350,300,l),
(350,400,l)
);
},
{
attr = {
fillColor = (0,255);
};
closed = 1;
nodes = (
(350,400,l),
(350,300,l),
(250,300,l),
(250,400,l)
);
},
{
attr = {
fillColor = (0,255);
};
closed = 1;
nodes = (
(250,400,l),
(250,300,l),
(150,300,l),
(150,400,l)
);
},
{
attr = {
fillColor = (0,255);
};
closed = 1;
nodes = (
(650,400,l),
(650,300,l),
(550,300,l),
(550,400,l)
);
},
{
attr = {
fillColor = (0,255);
};
closed = 1;
nodes = (
(450,500,l),
(450,400,l),
(350,400,l),
(350,500,l)
);
},
{
attr = {
fillColor = (0,255);
};
closed = 1;
nodes = (
(250,500,l),
(250,400,l),
(150,400,l),
(150,500,l)
);
},
{
attr = {
fillColor = (0,255);
};
closed = 1;
nodes = (
(750,500,l),
(750,400,l),
(650,400,l),
(650,500,l)
);
},
{
attr = {
fillColor = (0,255);
};
closed = 1;
nodes = (
(450,600,l),
(450,500,l),
(350,500,l),
(350,600,l)
);
},
{
attr = {
fillColor = (0,255);
};
closed = 1;
nodes = (
(450,700,l),
(450,600,l),
(350,600,l),
(350,700,l)
);
},
{
attr = {
fillColor = (0,255);
};
closed = 1;
nodes = (
(750,700,l),
(750,600,l),
(650,600,l),
(650,700,l)
);
},
{
attr = {
fillColor = (0,255);
};
closed = 1;
nodes = (
(650,700,l),
(650,600,l),
(550,600,l),
(550,700,l)
);
},
{
attr = {
fillColor = (0,255);
};
closed = 1;
nodes = (
(450,800,l),
(450,700,l),
(350,700,l),
(350,800,l)
);
},
{
attr = {
fillColor = (0,255);
};
closed = 1;
nodes = (
(350,800,l),
(350,700,l),
(250,700,l),
(250,800,l)
);
},
{
attr = {
fillColor = (0,255);
};
closed = 1;
nodes = (
(450,-100,l),
(450,-200,l),
(350,-200,l),
(350,-100,l)
);
},
{
attr = {
fillColor = (0,255);
};
closed = 1;
nodes = (
(450,0,l),
(450,-100,l),
(350,-100,l),
(350,0,l)
);
},
{
attr = {
fillColor = (0,255);
};
closed = 1;
nodes = (
(450,100,l),
(450,0,l),
(350,0,l),
(350,100,l)
);
},
{
attr = {
fillColor = (0,255);
};
closed = 1;
nodes = (
(150,100,l),
(150,0,l),
(50,0,l),
(50,100,l)
);
},
{
attr = {
fillColor = (0,255);
};
closed = 1;
nodes = (
(450,200,l),
(450,100,l),
(350,100,l),
(350,200,l)
);
},
{
attr = {
fillColor = (0,255);
};
closed = 1;
nodes = (
(250,200,l),
(250,100,l),
(150,100,l),
(150,200,l)
);
},
{
attr = {
fillColor = (0,255);
};
closed = 1;
nodes = (
(550,300,l),
(550,200,l),
(450,200,l),
(450,300,l)
);
},
{
attr = {
fillColor = (0,255);
};
closed = 1;
nodes = (
(450,300,l),
(450,200,l),
(350,200,l),
(350,300,l)
);
},
{
attr = {
fillColor = (0,255);
};
closed = 1;
nodes = (
(250,300,l),
(250,200,l),
(150,200,l),
(150,300,l)
);
},
{
attr = {
fillColor = (0,255);
};
closed = 1;
nodes = (
(150,300,l),
(150,200,l),
(50,200,l),
(50,300,l)
);
}
);
width = 800;
}
);
unicode = 12384;
},
{
glyphname = "ti-hira";
lastChange = "2021-03-06 11:40:24 +0000";
layers = (
{
layerId = m01;
shapes = (
{
attr = {
fillColor = (0,255);
};
closed = 1;
nodes = (
(550,400,l),
(550,300,l),
(450,300,l),
(450,400,l)
);
},
{
attr = {
fillColor = (0,255);
};
closed = 1;
nodes = (
(350,400,l),
(350,300,l),
(250,300,l),
(250,400,l)
);
},
{
attr = {
fillColor = (0,255);
};
closed = 1;
nodes = (
(250,400,l),
(250,300,l),
(150,300,l),
(150,400,l)
);
},
{
attr = {
fillColor = (0,255);
};
closed = 1;
nodes = (
(750,400,l),
(750,300,l),
(650,300,l),
(650,400,l)
);
},
{
attr = {
fillColor = (0,255);
};
closed = 1;
nodes = (
(650,400,l),
(650,300,l),
(550,300,l),
(550,400,l)
);
},
{
attr = {
fillColor = (0,255);
};
closed = 1;
nodes = (
(550,500,l),
(550,400,l),
(450,400,l),
(450,500,l)
);
},
{
attr = {
fillColor = (0,255);
};
closed = 1;
nodes = (
(350,500,l),
(350,400,l),
(250,400,l),
(250,500,l)
);
},
{
attr = {
fillColor = (0,255);
};
closed = 1;
nodes = (
(750,500,l),
(750,400,l),
(650,400,l),
(650,500,l)
);
},
{
attr = {
fillColor = (0,255);
};
closed = 1;
nodes = (
(550,600,l),
(550,500,l),
(450,500,l),
(450,600,l)
);
},
{
attr = {
fillColor = (0,255);
};
closed = 1;
nodes = (
(550,700,l),
(550,600,l),
(450,600,l),
(450,700,l)
);
},
{
attr = {
fillColor = (0,255);
};
closed = 1;
nodes = (
(650,700,l),
(650,600,l),
(550,600,l),
(550,700,l)
);
},
{
attr = {
fillColor = (0,255);
};
closed = 1;
nodes = (
(550,800,l),
(550,700,l),
(450,700,l),
(450,800,l)
);
},
{
attr = {
fillColor = (0,255);
};
closed = 1;
nodes = (
(150,-100,l),
(150,-200,l),
(50,-200,l),
(50,-100,l)
);
},
{
attr = {
fillColor = (0,255);
};
closed = 1;
nodes = (
(1050,-100,l),
(1050,-200,l),
(950,-200,l),
(950,-100,l)
);
},
{
attr = {
fillColor = (0,255);
};
closed = 1;
nodes = (
(950,-100,l),
(950,-200,l),
(850,-200,l),
(850,-100,l)
);
},
{
attr = {
fillColor = (0,255);
};
closed = 1;
nodes = (
(850,-100,l),
(850,-200,l),
(750,-200,l),
(750,-100,l)
);
},
{
attr = {
fillColor = (0,255);
};
closed = 1;
nodes = (
(250,0,l),
(250,-100,l),
(150,-100,l),
(150,0,l)
);
},
{
attr = {
fillColor = (0,255);
};
closed = 1;
nodes = (
(750,0,l),
(750,-100,l),
(650,-100,l),
(650,0,l)
);
},
{
attr = {
fillColor = (0,255);
};
closed = 1;
nodes = (
(350,100,l),
(350,0,l),
(250,0,l),
(250,100,l)
);
},
{
attr = {
fillColor = (0,255);
};
closed = 1;
nodes = (
(650,100,l),
(650,0,l),
(550,0,l),
(550,100,l)
);
},
{
attr = {
fillColor = (0,255);
};
closed = 1;
nodes = (
(550,200,l),
(550,100,l),
(450,100,l),
(450,200,l)
);
},
{
attr = {
fillColor = (0,255);
};
closed = 1;
nodes = (
(350,200,l),
(350,100,l),
(250,100,l),
(250,200,l)
);
},
{
attr = {
fillColor = (0,255);
};
closed = 1;
nodes = (
(250,200,l),
(250,100,l),
(150,100,l),
(150,200,l)
);
},
{
attr = {
fillColor = (0,255);
};
closed = 1;
nodes = (
(150,200,l),
(150,100,l),
(50,100,l),
(50,200,l)
);
},
{
attr = {
fillColor = (0,255);
};
closed = 1;
nodes = (
(550,300,l),
(550,200,l),
(450,200,l),
(450,300,l)
);
},
{
attr = {
fillColor = (0,255);
};
closed = 1;
nodes = (
(450,300,l),
(450,200,l),
(350,200,l),
(350,300,l)
);
},
{
attr = {
fillColor = (0,255);
};
closed = 1;
nodes = (
(350,300,l),
(350,200,l),
(250,200,l),
(250,300,l)
);
},
{
attr = {
fillColor = (0,255);
};
closed = 1;
nodes = (
(150,300,l),
(150,200,l),
(50,200,l),
(50,300,l)
);
}
);
width = 1100;
}
);
unicode = 12385;
},
{
glyphname = "di-hira";
lastChange = "2021-03-12 12:58:21 +0000";
layers = (
{
layerId = m01;
shapes = (
{
attr = {
fillColor = (0,255);
};
closed = 1;
nodes = (
(550,400,l),
(550,300,l),
(450,300,l),
(450,400,l)
);
},
{
attr = {
fillColor = (0,255);
};
closed = 1;
nodes = (
(350,400,l),
(350,300,l),
(250,300,l),
(250,400,l)
);
},
{
attr = {
fillColor = (0,255);
};
closed = 1;
nodes = (
(250,400,l),
(250,300,l),
(150,300,l),
(150,400,l)
);
},
{
attr = {
fillColor = (0,255);
};
closed = 1;
nodes = (
(750,400,l),
(750,300,l),
(650,300,l),
(650,400,l)
);
},
{
attr = {
fillColor = (0,255);
};
closed = 1;
nodes = (
(650,400,l),
(650,300,l),
(550,300,l),
(550,400,l)
);
},
{
attr = {
fillColor = (0,255);
};
closed = 1;
nodes = (
(550,500,l),
(550,400,l),
(450,400,l),
(450,500,l)
);
},
{
attr = {
fillColor = (0,255);
};
closed = 1;
nodes = (
(350,500,l),
(350,400,l),
(250,400,l),
(250,500,l)
);
},
{
attr = {
fillColor = (0,255);
};
closed = 1;
nodes = (
(750,500,l),
(750,400,l),
(650,400,l),
(650,500,l)
);
},
{
attr = {
fillColor = (0,255);
};
closed = 1;
nodes = (
(550,600,l),
(550,500,l),
(450,500,l),
(450,600,l)
);
},
{
attr = {
fillColor = (0,255);
};
closed = 1;
nodes = (
(950,600,l),
(950,500,l),
(850,500,l),
(850,600,l)
);
},
{
attr = {
fillColor = (0,255);
};
closed = 1;
nodes = (
(850,600,l),
(850,500,l),
(750,500,l),
(750,600,l)
);
},
{
attr = {
fillColor = (0,255);
};
closed = 1;
nodes = (
(550,700,l),
(550,600,l),
(450,600,l),
(450,700,l)
);
},
{
attr = {
fillColor = (0,255);
};
closed = 1;
nodes = (
(650,700,l),
(650,600,l),
(550,600,l),
(550,700,l)
);
},
{
attr = {
fillColor = (0,255);
};
closed = 1;
nodes = (
(550,800,l),
(550,700,l),
(450,700,l),
(450,800,l)
);
},
{
attr = {
fillColor = (0,255);
};
closed = 1;
nodes = (
(150,-100,l),
(150,-200,l),
(50,-200,l),
(50,-100,l)
);
},
{
attr = {
fillColor = (0,255);
};
closed = 1;
nodes = (
(1050,-100,l),
(1050,-200,l),
(950,-200,l),
(950,-100,l)
);
},
{
attr = {
fillColor = (0,255);
};
closed = 1;
nodes = (
(950,-100,l),
(950,-200,l),
(850,-200,l),
(850,-100,l)
);
},
{
attr = {
fillColor = (0,255);
};
closed = 1;
nodes = (
(850,-100,l),
(850,-200,l),
(750,-200,l),
(750,-100,l)
);
},
{
attr = {
fillColor = (0,255);
};
closed = 1;
nodes = (
(250,0,l),
(250,-100,l),
(150,-100,l),
(150,0,l)
);
},
{
attr = {
fillColor = (0,255);
};
closed = 1;
nodes = (
(750,0,l),
(750,-100,l),
(650,-100,l),
(650,0,l)
);
},
{
attr = {
fillColor = (0,255);
};
closed = 1;
nodes = (
(350,100,l),
(350,0,l),
(250,0,l),
(250,100,l)
);
},
{
attr = {
fillColor = (0,255);
};
closed = 1;
nodes = (
(650,100,l),
(650,0,l),
(550,0,l),
(550,100,l)
);
},
{
attr = {
fillColor = (0,255);
};
closed = 1;
nodes = (
(550,200,l),
(550,100,l),
(450,100,l),
(450,200,l)
);
},
{
attr = {
fillColor = (0,255);
};
closed = 1;
nodes = (
(350,200,l),
(350,100,l),
(250,100,l),
(250,200,l)
);
},
{
attr = {
fillColor = (0,255);
};
closed = 1;
nodes = (
(250,200,l),
(250,100,l),
(150,100,l),
(150,200,l)
);
},
{
attr = {
fillColor = (0,255);
};
closed = 1;
nodes = (
(150,200,l),
(150,100,l),
(50,100,l),
(50,200,l)
);
},
{
attr = {
fillColor = (0,255);
};
closed = 1;
nodes = (
(550,300,l),
(550,200,l),
(450,200,l),
(450,300,l)
);
},
{
attr = {
fillColor = (0,255);
};
closed = 1;
nodes = (
(450,300,l),
(450,200,l),
(350,200,l),
(350,300,l)
);
},
{
attr = {
fillColor = (0,255);
};
closed = 1;
nodes = (
(350,300,l),
(350,200,l),
(250,200,l),
(250,300,l)
);
},
{
attr = {
fillColor = (0,255);
};
closed = 1;
nodes = (
(150,300,l),
(150,200,l),
(50,200,l),
(50,300,l)
);
}
);
width = 1100;
}
);
unicode = 12386;
},
{
glyphname = "tu-hira";
lastChange = "2021-03-06 11:41:06 +0000";
layers = (
{
layerId = m01;
shapes = (
{
attr = {
fillColor = (0,255);
};
closed = 1;
nodes = (
(550,400,l),
(550,300,l),
(450,300,l),
(450,400,l)
);
},
{
attr = {
fillColor = (0,255);
};
closed = 1;
nodes = (
(450,400,l),
(450,300,l),
(350,300,l),
(350,400,l)
);
},
{
attr = {
fillColor = (0,255);
};
closed = 1;
nodes = (
(250,400,l),
(250,300,l),
(150,300,l),
(150,400,l)
);
},
{
attr = {
fillColor = (0,255);
};
closed = 1;
nodes = (
(650,400,l),
(650,300,l),
(550,300,l),
(550,400,l)
);
},
{
attr = {
fillColor = (0,255);
};
closed = 1;
nodes = (
(450,500,l),
(450,400,l),
(350,400,l),
(350,500,l)
);
},
{
attr = {
fillColor = (0,255);
};
closed = 1;
nodes = (
(350,500,l),
(350,400,l),
(250,400,l),
(250,500,l)
);
},
{
attr = {
fillColor = (0,255);
};
closed = 1;
nodes = (
(450,600,l),
(450,500,l),
(350,500,l),
(350,600,l)
);
},
{
attr = {
fillColor = (0,255);
};
closed = 1;
nodes = (
(550,700,l),
(550,600,l),
(450,600,l),
(450,700,l)
);
},
{
attr = {
fillColor = (0,255);
};
closed = 1;
nodes = (
(550,800,l),
(550,700,l),
(450,700,l),
(450,800,l)
);
},
{
attr = {
fillColor = (0,255);
};
closed = 1;
nodes = (
(450,-100,l),
(450,-200,l),
(350,-200,l),
(350,-100,l)
);
},
{
attr = {
fillColor = (0,255);
};
closed = 1;
nodes = (
(450,0,l),
(450,-100,l),
(350,-100,l),
(350,0,l)
);
},
{
attr = {
fillColor = (0,255);
};
closed = 1;
nodes = (
(450,100,l),
(450,0,l),
(350,0,l),
(350,100,l)
);
},
{
attr = {
fillColor = (0,255);
};
closed = 1;
nodes = (
(450,200,l),
(450,100,l),
(350,100,l),
(350,200,l)
);
},
{
attr = {
fillColor = (0,255);
};
closed = 1;
nodes = (
(250,200,l),
(250,100,l),
(150,100,l),
(150,200,l)
);
},
{
attr = {
fillColor = (0,255);
};
closed = 1;
nodes = (
(650,200,l),
(650,100,l),
(550,100,l),
(550,200,l)
);
},
{
attr = {
fillColor = (0,255);
};
closed = 1;
nodes = (
(450,300,l),
(450,200,l),
(350,200,l),
(350,300,l)
);
},
{
attr = {
fillColor = (0,255);
};
closed = 1;
nodes = (
(350,300,l),
(350,200,l),
(250,200,l),
(250,300,l)
);
},
{
attr = {
fillColor = (0,255);
};
closed = 1;
nodes = (
(150,300,l),
(150,200,l),
(50,200,l),
(50,300,l)
);
},
{
attr = {
fillColor = (0,255);
};
closed = 1;
nodes = (
(750,300,l),
(750,200,l),
(650,200,l),
(650,300,l)
);
}
);
width = 800;
}
);
unicode = 12388;
},
{
glyphname = "tusmall-hira";
lastChange = "2021-03-14 11:05:44 +0000";
layers = (
{
layerId = m01;
shapes = (
{
attr = {
fillColor = (0,255);
};
closed = 1;
nodes = (
(450,300,l),
(450,200,l),
(350,200,l),
(350,300,l)
);
},
{
attr = {
fillColor = (0,255);
};
closed = 1;
nodes = (
(150,300,l),
(150,200,l),
(50,200,l),
(50,300,l)
);
},
{
attr = {
fillColor = (0,255);
};
closed = 1;
nodes = (
(350,400,l),
(350,300,l),
(250,300,l),
(250,400,l)
);
},
{
attr = {
fillColor = (0,255);
};
closed = 1;
nodes = (
(250,400,l),
(250,300,l),
(150,300,l),
(150,400,l)
);
},
{
attr = {
fillColor = (0,255);
};
closed = 1;
nodes = (
(150,400,l),
(150,300,l),
(50,300,l),
(50,400,l)
);
},
{
attr = {
fillColor = (0,255);
};
closed = 1;
nodes = (
(250,500,l),
(250,400,l),
(150,400,l),
(150,500,l)
);
},
{
attr = {
fillColor = (0,255);
};
closed = 1;
nodes = (
(350,0,l),
(350,-100,l),
(250,-100,l),
(250,0,l)
);
},
{
attr = {
fillColor = (0,255);
};
closed = 1;
nodes = (
(350,100,l),
(350,0,l),
(250,0,l),
(250,100,l)
);
},
{
attr = {
fillColor = (0,255);
};
closed = 1;
nodes = (
(350,200,l),
(350,100,l),
(250,100,l),
(250,200,l)
);
},
{
attr = {
fillColor = (0,255);
};
closed = 1;
nodes = (
(250,200,l),
(250,100,l),
(150,100,l),
(150,200,l)
);
}
);
width = 500;
}
);
unicode = 12387;
},
{
glyphname = "du-hira";
lastChange = "2021-03-12 12:59:03 +0000";
layers = (
{
layerId = m01;
shapes = (
{
attr = {
fillColor = (0,255);
};
closed = 1;
nodes = (
(550,400,l),
(550,300,l),
(450,300,l),
(450,400,l)
);
},
{
attr = {
fillColor = (0,255);
};
closed = 1;
nodes = (
(450,400,l),
(450,300,l),
(350,300,l),
(350,400,l)
);
},
{
attr = {
fillColor = (0,255);
};
closed = 1;
nodes = (
(250,400,l),
(250,300,l),
(150,300,l),
(150,400,l)
);
},
{
attr = {
fillColor = (0,255);
};
closed = 1;
nodes = (
(450,500,l),
(450,400,l),
(350,400,l),
(350,500,l)
);
},
{
attr = {
fillColor = (0,255);
};
closed = 1;
nodes = (
(350,500,l),
(350,400,l),
(250,400,l),
(250,500,l)
);
},
{
attr = {
fillColor = (0,255);
};
closed = 1;
nodes = (
(750,500,l),
(750,400,l),
(650,400,l),
(650,500,l)
);
},
{
attr = {
fillColor = (0,255);
};
closed = 1;
nodes = (
(650,500,l),
(650,400,l),
(550,400,l),
(550,500,l)
);
},
{
attr = {
fillColor = (0,255);
};
closed = 1;
nodes = (
(450,600,l),
(450,500,l),
(350,500,l),
(350,600,l)
);
},
{
attr = {
fillColor = (0,255);
};
closed = 1;
nodes = (
(550,700,l),
(550,600,l),
(450,600,l),
(450,700,l)
);
},
{
attr = {
fillColor = (0,255);
};
closed = 1;
nodes = (
(550,800,l),
(550,700,l),
(450,700,l),
(450,800,l)
);
},
{
attr = {
fillColor = (0,255);
};
closed = 1;
nodes = (
(450,-100,l),
(450,-200,l),
(350,-200,l),
(350,-100,l)
);
},
{
attr = {
fillColor = (0,255);
};
closed = 1;
nodes = (
(450,0,l),
(450,-100,l),
(350,-100,l),
(350,0,l)
);
},
{
attr = {
fillColor = (0,255);
};
closed = 1;
nodes = (
(450,100,l),
(450,0,l),
(350,0,l),
(350,100,l)
);
},
{
attr = {
fillColor = (0,255);
};
closed = 1;
nodes = (
(450,200,l),
(450,100,l),
(350,100,l),
(350,200,l)
);
},
{
attr = {
fillColor = (0,255);
};
closed = 1;
nodes = (
(250,200,l),
(250,100,l),
(150,100,l),
(150,200,l)
);
},
{
attr = {
fillColor = (0,255);
};
closed = 1;
nodes = (
(650,200,l),
(650,100,l),
(550,100,l),
(550,200,l)
);
},
{
attr = {
fillColor = (0,255);
};
closed = 1;
nodes = (
(450,300,l),
(450,200,l),
(350,200,l),
(350,300,l)
);
},
{
attr = {
fillColor = (0,255);
};
closed = 1;
nodes = (
(350,300,l),
(350,200,l),
(250,200,l),
(250,300,l)
);
},
{
attr = {
fillColor = (0,255);
};
closed = 1;
nodes = (
(150,300,l),
(150,200,l),
(50,200,l),
(50,300,l)
);
},
{
attr = {
fillColor = (0,255);
};
closed = 1;
nodes = (
(650,300,l),
(650,200,l),
(550,200,l),
(550,300,l)
);
}
);
width = 800;
}
);
unicode = 12389;
},
{
glyphname = "te-hira";
lastChange = "2021-03-06 11:45:02 +0000";
layers = (
{
layerId = m01;
shapes = (
{
attr = {
fillColor = (0,255);
};
closed = 1;
nodes = (
(450,400,l),
(450,300,l),
(350,300,l),
(350,400,l)
);
},
{
attr = {
fillColor = (0,255);
};
closed = 1;
nodes = (
(350,400,l),
(350,300,l),
(250,300,l),
(250,400,l)
);
},
{
attr = {
fillColor = (0,255);
};
closed = 1;
nodes = (
(150,400,l),
(150,300,l),
(50,300,l),
(50,400,l)
);
},
{
attr = {
fillColor = (0,255);
};
closed = 1;
nodes = (
(750,400,l),
(750,300,l),
(650,300,l),
(650,400,l)
);
},
{
attr = {
fillColor = (0,255);
};
closed = 1;
nodes = (
(350,500,l),
(350,400,l),
(250,400,l),
(250,500,l)
);
},
{
attr = {
fillColor = (0,255);
};
closed = 1;
nodes = (
(650,500,l),
(650,400,l),
(550,400,l),
(550,500,l)
);
},
{
attr = {
fillColor = (0,255);
};
closed = 1;
nodes = (
(550,600,l),
(550,500,l),
(450,500,l),
(450,600,l)
);
},
{
attr = {
fillColor = (0,255);
};
closed = 1;
nodes = (
(250,600,l),
(250,500,l),
(150,500,l),
(150,600,l)
);
},
{
attr = {
fillColor = (0,255);
};
closed = 1;
nodes = (
(550,700,l),
(550,600,l),
(450,600,l),
(450,700,l)
);
},
{
attr = {
fillColor = (0,255);
};
closed = 1;
nodes = (
(350,700,l),
(350,600,l),
(250,600,l),
(250,700,l)
);
},
{
attr = {
fillColor = (0,255);
};
closed = 1;
nodes = (
(450,800,l),
(450,700,l),
(350,700,l),
(350,800,l)
);
},
{
attr = {
fillColor = (0,255);
};
closed = 1;
nodes = (
(450,-100,l),
(450,-200,l),
(350,-200,l),
(350,-100,l)
);
},
{
attr = {
fillColor = (0,255);
};
closed = 1;
nodes = (
(450,0,l),
(450,-100,l),
(350,-100,l),
(350,0,l)
);
},
{
attr = {
fillColor = (0,255);
};
closed = 1;
nodes = (
(450,100,l),
(450,0,l),
(350,0,l),
(350,100,l)
);
},
{
attr = {
fillColor = (0,255);
};
closed = 1;
nodes = (
(150,100,l),
(150,0,l),
(50,0,l),
(50,100,l)
);
},
{
attr = {
fillColor = (0,255);
};
closed = 1;
nodes = (
(550,200,l),
(550,100,l),
(450,100,l),
(450,200,l)
);
},
{
attr = {
fillColor = (0,255);
};
closed = 1;
nodes = (
(250,200,l),
(250,100,l),
(150,100,l),
(150,200,l)
);
},
{
attr = {
fillColor = (0,255);
};
closed = 1;
nodes = (
(250,300,l),
(250,200,l),
(150,200,l),
(150,300,l)
);
},
{
attr = {
fillColor = (0,255);
};
closed = 1;
nodes = (
(150,300,l),
(150,200,l),
(50,200,l),
(50,300,l)
);
},
{
attr = {
fillColor = (0,255);
};
closed = 1;
nodes = (
(750,300,l),
(750,200,l),
(650,200,l),
(650,300,l)
);
},
{
attr = {
fillColor = (0,255);
};
closed = 1;
nodes = (
(650,300,l),
(650,200,l),
(550,200,l),
(550,300,l)
);
}
);
width = 800;
}
);
unicode = 12390;
},
{
glyphname = "de-hira";
lastChange = "2021-03-12 12:59:26 +0000";
layers = (
{
layerId = m01;
shapes = (
{
attr = {
fillColor = (0,255);
};
closed = 1;
nodes = (
(350,400,l),
(350,300,l),
(250,300,l),
(250,400,l)
);
},
{
attr = {
fillColor = (0,255);
};
closed = 1;
nodes = (
(250,400,l),
(250,300,l),
(150,300,l),
(150,400,l)
);
},
{
attr = {
fillColor = (0,255);
};
closed = 1;
nodes = (
(150,400,l),
(150,300,l),
(50,300,l),
(50,400,l)
);
},
{
attr = {
fillColor = (0,255);
};
closed = 1;
nodes = (
(750,400,l),
(750,300,l),
(650,300,l),
(650,400,l)
);
},
{
attr = {
fillColor = (0,255);
};
closed = 1;
nodes = (
(550,500,l),
(550,400,l),
(450,400,l),
(450,500,l)
);
},
{
attr = {
fillColor = (0,255);
};
closed = 1;
nodes = (
(250,500,l),
(250,400,l),
(150,400,l),
(150,500,l)
);
},
{
attr = {
fillColor = (0,255);
};
closed = 1;
nodes = (
(650,500,l),
(650,400,l),
(550,400,l),
(550,500,l)
);
},
{
attr = {
fillColor = (0,255);
};
closed = 1;
nodes = (
(450,600,l),
(450,500,l),
(350,500,l),
(350,600,l)
);
},
{
attr = {
fillColor = (0,255);
};
closed = 1;
nodes = (
(750,600,l),
(750,500,l),
(650,500,l),
(650,600,l)
);
},
{
attr = {
fillColor = (0,255);
};
closed = 1;
nodes = (
(650,600,l),
(650,500,l),
(550,500,l),
(550,600,l)
);
},
{
attr = {
fillColor = (0,255);
};
closed = 1;
nodes = (
(450,700,l),
(450,600,l),
(350,600,l),
(350,700,l)
);
},
{
attr = {
fillColor = (0,255);
};
closed = 1;
nodes = (
(250,700,l),
(250,600,l),
(150,600,l),
(150,700,l)
);
},
{
attr = {
fillColor = (0,255);
};
closed = 1;
nodes = (
(350,800,l),
(350,700,l),
(250,700,l),
(250,800,l)
);
},
{
attr = {
fillColor = (0,255);
};
closed = 1;
nodes = (
(450,-100,l),
(450,-200,l),
(350,-200,l),
(350,-100,l)
);
},
{
attr = {
fillColor = (0,255);
};
closed = 1;
nodes = (
(450,0,l),
(450,-100,l),
(350,-100,l),
(350,0,l)
);
},
{
attr = {
fillColor = (0,255);
};
closed = 1;
nodes = (
(450,100,l),
(450,0,l),
(350,0,l),
(350,100,l)
);
},
{
attr = {
fillColor = (0,255);
};
closed = 1;
nodes = (
(150,100,l),
(150,0,l),
(50,0,l),
(50,100,l)
);
},
{
attr = {
fillColor = (0,255);
};
closed = 1;
nodes = (
(550,200,l),
(550,100,l),
(450,100,l),
(450,200,l)
);
},
{
attr = {
fillColor = (0,255);
};
closed = 1;
nodes = (
(250,200,l),
(250,100,l),
(150,100,l),
(150,200,l)
);
},
{
attr = {
fillColor = (0,255);
};
closed = 1;
nodes = (
(250,300,l),
(250,200,l),
(150,200,l),
(150,300,l)
);
},
{
attr = {
fillColor = (0,255);
};
closed = 1;
nodes = (
(150,300,l),
(150,200,l),
(50,200,l),
(50,300,l)
);
},
{
attr = {
fillColor = (0,255);
};
closed = 1;
nodes = (
(750,300,l),
(750,200,l),
(650,200,l),
(650,300,l)
);
},
{
attr = {
fillColor = (0,255);
};
closed = 1;
nodes = (
(650,300,l),
(650,200,l),
(550,200,l),
(550,300,l)
);
}
);
width = 800;
}
);
unicode = 12391;
},
{
glyphname = "to-hira";
lastChange = "2021-03-06 11:45:24 +0000";
layers = (
{
layerId = m01;
shapes = (
{
attr = {
fillColor = (0,255);
};
closed = 1;
nodes = (
(550,400,l),
(550,300,l),
(450,300,l),
(450,400,l)
);
},
{
attr = {
fillColor = (0,255);
};
closed = 1;
nodes = (
(550,500,l),
(550,400,l),
(450,400,l),
(450,500,l)
);
},
{
attr = {
fillColor = (0,255);
};
closed = 1;
nodes = (
(350,500,l),
(350,400,l),
(250,400,l),
(250,500,l)
);
},
{
attr = {
fillColor = (0,255);
};
closed = 1;
nodes = (
(450,600,l),
(450,500,l),
(350,500,l),
(350,600,l)
);
},
{
attr = {
fillColor = (0,255);
};
closed = 1;
nodes = (
(450,700,l),
(450,600,l),
(350,600,l),
(350,700,l)
);
},
{
attr = {
fillColor = (0,255);
};
closed = 1;
nodes = (
(550,800,l),
(550,700,l),
(450,700,l),
(450,800,l)
);
},
{
attr = {
fillColor = (0,255);
};
closed = 1;
nodes = (
(150,-100,l),
(150,-200,l),
(50,-200,l),
(50,-100,l)
);
},
{
attr = {
fillColor = (0,255);
};
closed = 1;
nodes = (
(850,-100,l),
(850,-200,l),
(750,-200,l),
(750,-100,l)
);
},
{
attr = {
fillColor = (0,255);
};
closed = 1;
nodes = (
(750,-100,l),
(750,-200,l),
(650,-200,l),
(650,-100,l)
);
},
{
attr = {
fillColor = (0,255);
};
closed = 1;
nodes = (
(650,-100,l),
(650,-200,l),
(550,-200,l),
(550,-100,l)
);
},
{
attr = {
fillColor = (0,255);
};
closed = 1;
nodes = (
(550,0,l),
(550,-100,l),
(450,-100,l),
(450,0,l)
);
},
{
attr = {
fillColor = (0,255);
};
closed = 1;
nodes = (
(250,0,l),
(250,-100,l),
(150,-100,l),
(150,0,l)
);
},
{
attr = {
fillColor = (0,255);
};
closed = 1;
nodes = (
(950,0,l),
(950,-100,l),
(850,-100,l),
(850,0,l)
);
},
{
attr = {
fillColor = (0,255);
};
closed = 1;
nodes = (
(550,100,l),
(550,0,l),
(450,0,l),
(450,100,l)
);
},
{
attr = {
fillColor = (0,255);
};
closed = 1;
nodes = (
(250,100,l),
(250,0,l),
(150,0,l),
(150,100,l)
);
},
{
attr = {
fillColor = (0,255);
};
closed = 1;
nodes = (
(150,100,l),
(150,0,l),
(50,0,l),
(50,100,l)
);
},
{
attr = {
fillColor = (0,255);
};
closed = 1;
nodes = (
(550,200,l),
(550,100,l),
(450,100,l),
(450,200,l)
);
},
{
attr = {
fillColor = (0,255);
};
closed = 1;
nodes = (
(350,200,l),
(350,100,l),
(250,100,l),
(250,200,l)
);
},
{
attr = {
fillColor = (0,255);
};
closed = 1;
nodes = (
(250,200,l),
(250,100,l),
(150,100,l),
(150,200,l)
);
},
{
attr = {
fillColor = (0,255);
};
closed = 1;
nodes = (
(550,300,l),
(550,200,l),
(450,200,l),
(450,300,l)
);
},
{
attr = {
fillColor = (0,255);
};
closed = 1;
nodes = (
(250,300,l),
(250,200,l),
(150,200,l),
(150,300,l)
);
}
);
width = 1000;
}
);
unicode = 12392;
},
{
glyphname = "do-hira";
lastChange = "2021-03-12 13:00:38 +0000";
layers = (
{
layerId = m01;
shapes = (
{
attr = {
fillColor = (0,255);
};
closed = 1;
nodes = (
(550,400,l),
(550,300,l),
(450,300,l),
(450,400,l)
);
},
{
attr = {
fillColor = (0,255);
};
closed = 1;
nodes = (
(550,500,l),
(550,400,l),
(450,400,l),
(450,500,l)
);
},
{
attr = {
fillColor = (0,255);
};
closed = 1;
nodes = (
(350,500,l),
(350,400,l),
(250,400,l),
(250,500,l)
);
},
{
attr = {
fillColor = (0,255);
};
closed = 1;
nodes = (
(850,500,l),
(850,400,l),
(750,400,l),
(750,500,l)
);
},
{
attr = {
fillColor = (0,255);
};
closed = 1;
nodes = (
(750,500,l),
(750,400,l),
(650,400,l),
(650,500,l)
);
},
{
attr = {
fillColor = (0,255);
};
closed = 1;
nodes = (
(450,600,l),
(450,500,l),
(350,500,l),
(350,600,l)
);
},
{
attr = {
fillColor = (0,255);
};
closed = 1;
nodes = (
(550,700,l),
(550,600,l),
(450,600,l),
(450,700,l)
);
},
{
attr = {
fillColor = (0,255);
};
closed = 1;
nodes = (
(550,800,l),
(550,700,l),
(450,700,l),
(450,800,l)
);
},
{
attr = {
fillColor = (0,255);
};
closed = 1;
nodes = (
(150,-100,l),
(150,-200,l),
(50,-200,l),
(50,-100,l)
);
},
{
attr = {
fillColor = (0,255);
};
closed = 1;
nodes = (
(850,-100,l),
(850,-200,l),
(750,-200,l),
(750,-100,l)
);
},
{
attr = {
fillColor = (0,255);
};
closed = 1;
nodes = (
(750,-100,l),
(750,-200,l),
(650,-200,l),
(650,-100,l)
);
},
{
attr = {
fillColor = (0,255);
};
closed = 1;
nodes = (
(250,0,l),
(250,-100,l),
(150,-100,l),
(150,0,l)
);
},
{
attr = {
fillColor = (0,255);
};
closed = 1;
nodes = (
(950,0,l),
(950,-100,l),
(850,-100,l),
(850,0,l)
);
},
{
attr = {
fillColor = (0,255);
};
closed = 1;
nodes = (
(650,0,l),
(650,-100,l),
(550,-100,l),
(550,0,l)
);
},
{
attr = {
fillColor = (0,255);
};
closed = 1;
nodes = (
(550,100,l),
(550,0,l),
(450,0,l),
(450,100,l)
);
},
{
attr = {
fillColor = (0,255);
};
closed = 1;
nodes = (
(250,100,l),
(250,0,l),
(150,0,l),
(150,100,l)
);
},
{
attr = {
fillColor = (0,255);
};
closed = 1;
nodes = (
(150,100,l),
(150,0,l),
(50,0,l),
(50,100,l)
);
},
{
attr = {
fillColor = (0,255);
};
closed = 1;
nodes = (
(550,200,l),
(550,100,l),
(450,100,l),
(450,200,l)
);
},
{
attr = {
fillColor = (0,255);
};
closed = 1;
nodes = (
(350,200,l),
(350,100,l),
(250,100,l),
(250,200,l)
);
},
{
attr = {
fillColor = (0,255);
};
closed = 1;
nodes = (
(250,200,l),
(250,100,l),
(150,100,l),
(150,200,l)
);
},
{
attr = {
fillColor = (0,255);
};
closed = 1;
nodes = (
(550,300,l),
(550,200,l),
(450,200,l),
(450,300,l)
);
},
{
attr = {
fillColor = (0,255);
};
closed = 1;
nodes = (
(250,300,l),
(250,200,l),
(150,200,l),
(150,300,l)
);
}
);
width = 1000;
}
);
unicode = 12393;
},
{
glyphname = "na-hira";
lastChange = "2021-03-06 17:46:48 +0000";
layers = (
{
layerId = m01;
shapes = (
{
attr = {
fillColor = (0,255);
};
closed = 1;
nodes = (
(550,400,l),
(550,300,l),
(450,300,l),
(450,400,l)
);
},
{
attr = {
fillColor = (0,255);
};
closed = 1;
nodes = (
(450,400,l),
(450,300,l),
(350,300,l),
(350,400,l)
);
},
{
attr = {
fillColor = (0,255);
};
closed = 1;
nodes = (
(350,400,l),
(350,300,l),
(250,300,l),
(250,400,l)
);
},
{
attr = {
fillColor = (0,255);
};
closed = 1;
nodes = (
(250,400,l),
(250,300,l),
(150,300,l),
(150,400,l)
);
},
{
attr = {
fillColor = (0,255);
};
closed = 1;
nodes = (
(650,400,l),
(650,300,l),
(550,300,l),
(550,400,l)
);
},
{
attr = {
fillColor = (0,255);
};
closed = 1;
nodes = (
(250,500,l),
(250,400,l),
(150,400,l),
(150,500,l)
);
},
{
attr = {
fillColor = (0,255);
};
closed = 1;
nodes = (
(350,600,l),
(350,500,l),
(250,500,l),
(250,600,l)
);
},
{
attr = {
fillColor = (0,255);
};
closed = 1;
nodes = (
(450,700,l),
(450,600,l),
(350,600,l),
(350,700,l)
);
},
{
attr = {
fillColor = (0,255);
};
closed = 1;
nodes = (
(550,0,l),
(550,-100,l),
(450,-100,l),
(450,0,l)
);
},
{
attr = {
fillColor = (0,255);
};
closed = 1;
nodes = (
(450,0,l),
(450,-100,l),
(350,-100,l),
(350,0,l)
);
},
{
attr = {
fillColor = (0,255);
};
closed = 1;
nodes = (
(350,0,l),
(350,-100,l),
(250,-100,l),
(250,0,l)
);
},
{
attr = {
fillColor = (0,255);
};
closed = 1;
nodes = (
(650,100,l),
(650,0,l),
(550,0,l),
(550,100,l)
);
},
{
attr = {
fillColor = (0,255);
};
closed = 1;
nodes = (
(450,200,l),
(450,100,l),
(350,100,l),
(350,200,l)
);
},
{
attr = {
fillColor = (0,255);
};
closed = 1;
nodes = (
(150,200,l),
(150,100,l),
(50,100,l),
(50,200,l)
);
},
{
attr = {
fillColor = (0,255);
};
closed = 1;
nodes = (
(750,200,l),
(750,100,l),
(650,100,l),
(650,200,l)
);
},
{
attr = {
fillColor = (0,255);
};
closed = 1;
nodes = (
(250,300,l),
(250,200,l),
(150,200,l),
(150,300,l)
);
},
{
attr = {
fillColor = (0,255);
};
closed = 1;
nodes = (
(150,300,l),
(150,200,l),
(50,200,l),
(50,300,l)
);
},
{
attr = {
fillColor = (0,255);
};
closed = 1;
nodes = (
(750,300,l),
(750,200,l),
(650,200,l),
(650,300,l)
);
}
);
width = 800;
}
);
unicode = 12394;
},
{
glyphname = "ni-hira";
lastChange = "2021-03-06 17:47:32 +0000";
layers = (
{
layerId = m01;
shapes = (
{
attr = {
fillColor = (0,255);
};
closed = 1;
nodes = (
(550,400,l),
(550,300,l),
(450,300,l),
(450,400,l)
);
},
{
attr = {
fillColor = (0,255);
};
closed = 1;
nodes = (
(450,400,l),
(450,300,l),
(350,300,l),
(350,400,l)
);
},
{
attr = {
fillColor = (0,255);
};
closed = 1;
nodes = (
(350,400,l),
(350,300,l),
(250,300,l),
(250,400,l)
);
},
{
attr = {
fillColor = (0,255);
};
closed = 1;
nodes = (
(150,400,l),
(150,300,l),
(50,300,l),
(50,400,l)
);
},
{
attr = {
fillColor = (0,255);
};
closed = 1;
nodes = (
(450,500,l),
(450,400,l),
(350,400,l),
(350,500,l)
);
},
{
attr = {
fillColor = (0,255);
};
closed = 1;
nodes = (
(250,500,l),
(250,400,l),
(150,400,l),
(150,500,l)
);
},
{
attr = {
fillColor = (0,255);
};
closed = 1;
nodes = (
(750,500,l),
(750,400,l),
(650,400,l),
(650,500,l)
);
},
{
attr = {
fillColor = (0,255);
};
closed = 1;
nodes = (
(650,500,l),
(650,400,l),
(550,400,l),
(550,500,l)
);
},
{
attr = {
fillColor = (0,255);
};
closed = 1;
nodes = (
(450,600,l),
(450,500,l),
(350,500,l),
(350,600,l)
);
},
{
attr = {
fillColor = (0,255);
};
closed = 1;
nodes = (
(450,700,l),
(450,600,l),
(350,600,l),
(350,700,l)
);
},
{
attr = {
fillColor = (0,255);
};
closed = 1;
nodes = (
(450,800,l),
(450,700,l),
(350,700,l),
(350,800,l)
);
},
{
attr = {
fillColor = (0,255);
};
closed = 1;
nodes = (
(350,800,l),
(350,700,l),
(250,700,l),
(250,800,l)
);
},
{
attr = {
fillColor = (0,255);
};
closed = 1;
nodes = (
(450,-100,l),
(450,-200,l),
(350,-200,l),
(350,-100,l)
);
},
{
attr = {
fillColor = (0,255);
};
closed = 1;
nodes = (
(450,0,l),
(450,-100,l),
(350,-100,l),
(350,0,l)
);
},
{
attr = {
fillColor = (0,255);
};
closed = 1;
nodes = (
(450,100,l),
(450,0,l),
(350,0,l),
(350,100,l)
);
},
{
attr = {
fillColor = (0,255);
};
closed = 1;
nodes = (
(150,100,l),
(150,0,l),
(50,0,l),
(50,100,l)
);
},
{
attr = {
fillColor = (0,255);
};
closed = 1;
nodes = (
(850,100,l),
(850,0,l),
(750,0,l),
(750,100,l)
);
},
{
attr = {
fillColor = (0,255);
};
closed = 1;
nodes = (
(750,100,l),
(750,0,l),
(650,0,l),
(650,100,l)
);
},
{
attr = {
fillColor = (0,255);
};
closed = 1;
nodes = (
(450,200,l),
(450,100,l),
(350,100,l),
(350,200,l)
);
},
{
attr = {
fillColor = (0,255);
};
closed = 1;
nodes = (
(250,200,l),
(250,100,l),
(150,100,l),
(150,200,l)
);
},
{
attr = {
fillColor = (0,255);
};
closed = 1;
nodes = (
(650,200,l),
(650,100,l),
(550,100,l),
(550,200,l)
);
},
{
attr = {
fillColor = (0,255);
};
closed = 1;
nodes = (
(550,300,l),
(550,200,l),
(450,200,l),
(450,300,l)
);
},
{
attr = {
fillColor = (0,255);
};
closed = 1;
nodes = (
(450,300,l),
(450,200,l),
(350,200,l),
(350,300,l)
);
},
{
attr = {
fillColor = (0,255);
};
closed = 1;
nodes = (
(350,300,l),
(350,200,l),
(250,200,l),
(250,300,l)
);
},
{
attr = {
fillColor = (0,255);
};
closed = 1;
nodes = (
(250,300,l),
(250,200,l),
(150,200,l),
(150,300,l)
);
}
);
width = 900;
}
);
unicode = 12395;
},
{
glyphname = "nu-hira";
lastChange = "2021-03-06 17:48:24 +0000";
layers = (
{
layerId = m01;
shapes = (
{
attr = {
fillColor = (0,255);
};
closed = 1;
nodes = (
(450,400,l),
(450,300,l),
(350,300,l),
(350,400,l)
);
},
{
attr = {
fillColor = (0,255);
};
closed = 1;
nodes = (
(350,400,l),
(350,300,l),
(250,300,l),
(250,400,l)
);
},
{
attr = {
fillColor = (0,255);
};
closed = 1;
nodes = (
(150,400,l),
(150,300,l),
(50,300,l),
(50,400,l)
);
},
{
attr = {
fillColor = (0,255);
};
closed = 1;
nodes = (
(450,500,l),
(450,400,l),
(350,400,l),
(350,500,l)
);
},
{
attr = {
fillColor = (0,255);
};
closed = 1;
nodes = (
(250,500,l),
(250,400,l),
(150,400,l),
(150,500,l)
);
},
{
attr = {
fillColor = (0,255);
};
closed = 1;
nodes = (
(450,600,l),
(450,500,l),
(350,500,l),
(350,600,l)
);
},
{
attr = {
fillColor = (0,255);
};
closed = 1;
nodes = (
(550,700,l),
(550,600,l),
(450,600,l),
(450,700,l)
);
},
{
attr = {
fillColor = (0,255);
};
closed = 1;
nodes = (
(450,700,l),
(450,600,l),
(350,600,l),
(350,700,l)
);
},
{
attr = {
fillColor = (0,255);
};
closed = 1;
nodes = (
(450,800,l),
(450,700,l),
(350,700,l),
(350,800,l)
);
},
{
attr = {
fillColor = (0,255);
};
closed = 1;
nodes = (
(450,-100,l),
(450,-200,l),
(350,-200,l),
(350,-100,l)
);
},
{
attr = {
fillColor = (0,255);
};
closed = 1;
nodes = (
(450,0,l),
(450,-100,l),
(350,-100,l),
(350,0,l)
);
},
{
attr = {
fillColor = (0,255);
};
closed = 1;
nodes = (
(450,100,l),
(450,0,l),
(350,0,l),
(350,100,l)
);
},
{
attr = {
fillColor = (0,255);
};
closed = 1;
nodes = (
(150,100,l),
(150,0,l),
(50,0,l),
(50,100,l)
);
},
{
attr = {
fillColor = (0,255);
};
closed = 1;
nodes = (
(450,200,l),
(450,100,l),
(350,100,l),
(350,200,l)
);
},
{
attr = {
fillColor = (0,255);
};
closed = 1;
nodes = (
(350,200,l),
(350,100,l),
(250,100,l),
(250,200,l)
);
},
{
attr = {
fillColor = (0,255);
};
closed = 1;
nodes = (
(250,200,l),
(250,100,l),
(150,100,l),
(150,200,l)
);
},
{
attr = {
fillColor = (0,255);
};
closed = 1;
nodes = (
(550,300,l),
(550,200,l),
(450,200,l),
(450,300,l)
);
},
{
attr = {
fillColor = (0,255);
};
closed = 1;
nodes = (
(450,300,l),
(450,200,l),
(350,200,l),
(350,300,l)
);
},
{
attr = {
fillColor = (0,255);
};
closed = 1;
nodes = (
(350,300,l),
(350,200,l),
(250,200,l),
(250,300,l)
);
},
{
attr = {
fillColor = (0,255);
};
closed = 1;
nodes = (
(150,300,l),
(150,200,l),
(50,200,l),
(50,300,l)
);
},
{
attr = {
fillColor = (0,255);
};
closed = 1;
nodes = (
(750,300,l),
(750,200,l),
(650,200,l),
(650,300,l)
);
},
{
attr = {
fillColor = (0,255);
};
closed = 1;
nodes = (
(650,300,l),
(650,200,l),
(550,200,l),
(550,300,l)
);
}
);
width = 800;
}
);
unicode = 12396;
},
{
glyphname = "ne-hira";
lastChange = "2021-03-06 17:49:50 +0000";
layers = (
{
layerId = m01;
shapes = (
{
attr = {
fillColor = (0,255);
};
closed = 1;
nodes = (
(550,400,l),
(550,300,l),
(450,300,l),
(450,400,l)
);
},
{
attr = {
fillColor = (0,255);
};
closed = 1;
nodes = (
(350,400,l),
(350,300,l),
(250,300,l),
(250,400,l)
);
},
{
attr = {
fillColor = (0,255);
};
closed = 1;
nodes = (
(150,400,l),
(150,300,l),
(50,300,l),
(50,400,l)
);
},
{
attr = {
fillColor = (0,255);
};
closed = 1;
nodes = (
(550,500,l),
(550,400,l),
(450,400,l),
(450,500,l)
);
},
{
attr = {
fillColor = (0,255);
};
closed = 1;
nodes = (
(350,500,l),
(350,400,l),
(250,400,l),
(250,500,l)
);
},
{
attr = {
fillColor = (0,255);
};
closed = 1;
nodes = (
(150,500,l),
(150,400,l),
(50,400,l),
(50,500,l)
);
},
{
attr = {
fillColor = (0,255);
};
closed = 1;
nodes = (
(550,600,l),
(550,500,l),
(450,500,l),
(450,600,l)
);
},
{
attr = {
fillColor = (0,255);
};
closed = 1;
nodes = (
(250,600,l),
(250,500,l),
(150,500,l),
(150,600,l)
);
},
{
attr = {
fillColor = (0,255);
};
closed = 1;
nodes = (
(150,600,l),
(150,500,l),
(50,500,l),
(50,600,l)
);
},
{
attr = {
fillColor = (0,255);
};
closed = 1;
nodes = (
(450,700,l),
(450,600,l),
(350,600,l),
(350,700,l)
);
},
{
attr = {
fillColor = (0,255);
};
closed = 1;
nodes = (
(350,700,l),
(350,600,l),
(250,600,l),
(250,700,l)
);
},
{
attr = {
fillColor = (0,255);
};
closed = 1;
nodes = (
(150,700,l),
(150,600,l),
(50,600,l),
(50,700,l)
);
},
{
attr = {
fillColor = (0,255);
};
closed = 1;
nodes = (
(150,800,l),
(150,700,l),
(50,700,l),
(50,800,l)
);
},
{
attr = {
fillColor = (0,255);
};
closed = 1;
nodes = (
(150,-100,l),
(150,-200,l),
(50,-200,l),
(50,-100,l)
);
},
{
attr = {
fillColor = (0,255);
};
closed = 1;
nodes = (
(150,0,l),
(150,-100,l),
(50,-100,l),
(50,0,l)
);
},
{
attr = {
fillColor = (0,255);
};
closed = 1;
nodes = (
(250,100,l),
(250,0,l),
(150,0,l),
(150,100,l)
);
},
{
attr = {
fillColor = (0,255);
};
closed = 1;
nodes = (
(350,200,l),
(350,100,l),
(250,100,l),
(250,200,l)
);
},
{
attr = {
fillColor = (0,255);
};
closed = 1;
nodes = (
(450,300,l),
(450,200,l),
(350,200,l),
(350,300,l)
);
}
);
width = 600;
}
);
unicode = 12397;
},
{
glyphname = "no-hira";
lastChange = "2021-03-06 17:50:21 +0000";
layers = (
{
layerId = m01;
shapes = (
{
attr = {
fillColor = (0,255);
};
closed = 1;
nodes = (
(550,400,l),
(550,300,l),
(450,300,l),
(450,400,l)
);
},
{
attr = {
fillColor = (0,255);
};
closed = 1;
nodes = (
(350,400,l),
(350,300,l),
(250,300,l),
(250,400,l)
);
},
{
attr = {
fillColor = (0,255);
};
closed = 1;
nodes = (
(250,400,l),
(250,300,l),
(150,300,l),
(150,400,l)
);
},
{
attr = {
fillColor = (0,255);
};
closed = 1;
nodes = (
(550,500,l),
(550,400,l),
(450,400,l),
(450,500,l)
);
},
{
attr = {
fillColor = (0,255);
};
closed = 1;
nodes = (
(550,600,l),
(550,500,l),
(450,500,l),
(450,600,l)
);
},
{
attr = {
fillColor = (0,255);
};
closed = 1;
nodes = (
(350,600,l),
(350,500,l),
(250,500,l),
(250,600,l)
);
},
{
attr = {
fillColor = (0,255);
};
closed = 1;
nodes = (
(250,600,l),
(250,500,l),
(150,500,l),
(150,600,l)
);
},
{
attr = {
fillColor = (0,255);
};
closed = 1;
nodes = (
(550,700,l),
(550,600,l),
(450,600,l),
(450,700,l)
);
},
{
attr = {
fillColor = (0,255);
};
closed = 1;
nodes = (
(450,700,l),
(450,600,l),
(350,600,l),
(350,700,l)
);
},
{
attr = {
fillColor = (0,255);
};
closed = 1;
nodes = (
(350,700,l),
(350,600,l),
(250,600,l),
(250,700,l)
);
},
{
attr = {
fillColor = (0,255);
};
closed = 1;
nodes = (
(950,0,l),
(950,-100,l),
(850,-100,l),
(850,0,l)
);
},
{
attr = {
fillColor = (0,255);
};
closed = 1;
nodes = (
(850,0,l),
(850,-100,l),
(750,-100,l),
(750,0,l)
);
},
{
attr = {
fillColor = (0,255);
};
closed = 1;
nodes = (
(750,0,l),
(750,-100,l),
(650,-100,l),
(650,0,l)
);
},
{
attr = {
fillColor = (0,255);
};
closed = 1;
nodes = (
(650,0,l),
(650,-100,l),
(550,-100,l),
(550,0,l)
);
},
{
attr = {
fillColor = (0,255);
};
closed = 1;
nodes = (
(550,100,l),
(550,0,l),
(450,0,l),
(450,100,l)
);
},
{
attr = {
fillColor = (0,255);
};
closed = 1;
nodes = (
(150,100,l),
(150,0,l),
(50,0,l),
(50,100,l)
);
},
{
attr = {
fillColor = (0,255);
};
closed = 1;
nodes = (
(1050,100,l),
(1050,0,l),
(950,0,l),
(950,100,l)
);
},
{
attr = {
fillColor = (0,255);
};
closed = 1;
nodes = (
(450,200,l),
(450,100,l),
(350,100,l),
(350,200,l)
);
},
{
attr = {
fillColor = (0,255);
};
closed = 1;
nodes = (
(350,200,l),
(350,100,l),
(250,100,l),
(250,200,l)
);
},
{
attr = {
fillColor = (0,255);
};
closed = 1;
nodes = (
(250,200,l),
(250,100,l),
(150,100,l),
(150,200,l)
);
},
{
attr = {
fillColor = (0,255);
};
closed = 1;
nodes = (
(450,300,l),
(450,200,l),
(350,200,l),
(350,300,l)
);
}
);
width = 1100;
}
);
unicode = 12398;
},
{
glyphname = "ha-hira";
lastChange = "2021-03-08 03:34:43 +0000";
layers = (
{
layerId = m01;
shapes = (
{
attr = {
fillColor = (0,255);
};
closed = 1;
nodes = (
(650,400,l),
(650,300,l),
(550,300,l),
(550,400,l)
);
},
{
attr = {
fillColor = (0,255);
};
closed = 1;
nodes = (
(550,500,l),
(550,400,l),
(450,400,l),
(450,500,l)
);
},
{
attr = {
fillColor = (0,255);
};
closed = 1;
nodes = (
(350,500,l),
(350,400,l),
(250,400,l),
(250,500,l)
);
},
{
attr = {
fillColor = (0,255);
};
closed = 1;
nodes = (
(250,500,l),
(250,400,l),
(150,400,l),
(150,500,l)
);
},
{
attr = {
fillColor = (0,255);
};
closed = 1;
nodes = (
(550,600,l),
(550,500,l),
(450,500,l),
(450,600,l)
);
},
{
attr = {
fillColor = (0,255);
};
closed = 1;
nodes = (
(450,600,l),
(450,500,l),
(350,500,l),
(350,600,l)
);
},
{
attr = {
fillColor = (0,255);
};
closed = 1;
nodes = (
(550,700,l),
(550,600,l),
(450,600,l),
(450,700,l)
);
},
{
attr = {
fillColor = (0,255);
};
closed = 1;
nodes = (
(750,700,l),
(750,600,l),
(650,600,l),
(650,700,l)
);
},
{
attr = {
fillColor = (0,255);
};
closed = 1;
nodes = (
(650,700,l),
(650,600,l),
(550,600,l),
(550,700,l)
);
},
{
attr = {
fillColor = (0,255);
};
closed = 1;
nodes = (
(650,800,l),
(650,700,l),
(550,700,l),
(550,800,l)
);
},
{
attr = {
fillColor = (0,255);
};
closed = 1;
nodes = (
(250,-100,l),
(250,-200,l),
(150,-200,l),
(150,-100,l)
);
},
{
attr = {
fillColor = (0,255);
};
closed = 1;
nodes = (
(150,-100,l),
(150,-200,l),
(50,-200,l),
(50,-100,l)
);
},
{
attr = {
fillColor = (0,255);
};
closed = 1;
nodes = (
(350,0,l),
(350,-100,l),
(250,-100,l),
(250,0,l)
);
},
{
attr = {
fillColor = (0,255);
};
closed = 1;
nodes = (
(450,100,l),
(450,0,l),
(350,0,l),
(350,100,l)
);
},
{
attr = {
fillColor = (0,255);
};
closed = 1;
nodes = (
(550,200,l),
(550,100,l),
(450,100,l),
(450,200,l)
);
},
{
attr = {
fillColor = (0,255);
};
closed = 1;
nodes = (
(350,200,l),
(350,100,l),
(250,100,l),
(250,200,l)
);
},
{
attr = {
fillColor = (0,255);
};
closed = 1;
nodes = (
(550,300,l),
(550,200,l),
(450,200,l),
(450,300,l)
);
},
{
attr = {
fillColor = (0,255);
};
closed = 1;
nodes = (
(450,300,l),
(450,200,l),
(350,200,l),
(350,300,l)
);
}
);
width = 800;
}
);
unicode = 12399;
},
{
glyphname = "ba-hira";
lastChange = "2021-03-12 13:01:18 +0000";
layers = (
{
layerId = m01;
shapes = (
{
attr = {
fillColor = (0,255);
};
closed = 1;
nodes = (
(650,400,l),
(650,300,l),
(550,300,l),
(550,400,l)
);
},
{
attr = {
fillColor = (0,255);
};
closed = 1;
nodes = (
(550,500,l),
(550,400,l),
(450,400,l),
(450,500,l)
);
},
{
attr = {
fillColor = (0,255);
};
closed = 1;
nodes = (
(350,500,l),
(350,400,l),
(250,400,l),
(250,500,l)
);
},
{
attr = {
fillColor = (0,255);
};
closed = 1;
nodes = (
(250,500,l),
(250,400,l),
(150,400,l),
(150,500,l)
);
},
{
attr = {
fillColor = (0,255);
};
closed = 1;
nodes = (
(850,500,l),
(850,400,l),
(750,400,l),
(750,500,l)
);
},
{
attr = {
fillColor = (0,255);
};
closed = 1;
nodes = (
(750,500,l),
(750,400,l),
(650,400,l),
(650,500,l)
);
},
{
attr = {
fillColor = (0,255);
};
closed = 1;
nodes = (
(550,600,l),
(550,500,l),
(450,500,l),
(450,600,l)
);
},
{
attr = {
fillColor = (0,255);
};
closed = 1;
nodes = (
(450,600,l),
(450,500,l),
(350,500,l),
(350,600,l)
);
},
{
attr = {
fillColor = (0,255);
};
closed = 1;
nodes = (
(550,700,l),
(550,600,l),
(450,600,l),
(450,700,l)
);
},
{
attr = {
fillColor = (0,255);
};
closed = 1;
nodes = (
(650,700,l),
(650,600,l),
(550,600,l),
(550,700,l)
);
},
{
attr = {
fillColor = (0,255);
};
closed = 1;
nodes = (
(650,800,l),
(650,700,l),
(550,700,l),
(550,800,l)
);
},
{
attr = {
fillColor = (0,255);
};
closed = 1;
nodes = (
(250,-100,l),
(250,-200,l),
(150,-200,l),
(150,-100,l)
);
},
{
attr = {
fillColor = (0,255);
};
closed = 1;
nodes = (
(150,-100,l),
(150,-200,l),
(50,-200,l),
(50,-100,l)
);
},
{
attr = {
fillColor = (0,255);
};
closed = 1;
nodes = (
(350,0,l),
(350,-100,l),
(250,-100,l),
(250,0,l)
);
},
{
attr = {
fillColor = (0,255);
};
closed = 1;
nodes = (
(450,100,l),
(450,0,l),
(350,0,l),
(350,100,l)
);
},
{
attr = {
fillColor = (0,255);
};
closed = 1;
nodes = (
(550,200,l),
(550,100,l),
(450,100,l),
(450,200,l)
);
},
{
attr = {
fillColor = (0,255);
};
closed = 1;
nodes = (
(350,200,l),
(350,100,l),
(250,100,l),
(250,200,l)
);
},
{
attr = {
fillColor = (0,255);
};
closed = 1;
nodes = (
(550,300,l),
(550,200,l),
(450,200,l),
(450,300,l)
);
},
{
attr = {
fillColor = (0,255);
};
closed = 1;
nodes = (
(450,300,l),
(450,200,l),
(350,200,l),
(350,300,l)
);
}
);
width = 900;
}
);
unicode = 12400;
},
{
glyphname = "pa-hira";
lastChange = "2021-03-14 10:04:09 +0000";
layers = (
{
layerId = m01;
shapes = (
{
attr = {
fillColor = (0,255);
};
closed = 1;
nodes = (
(650,400,l),
(650,300,l),
(550,300,l),
(550,400,l)
);
},
{
attr = {
fillColor = (0,255);
};
closed = 1;
nodes = (
(550,500,l),
(550,400,l),
(450,400,l),
(450,500,l)
);
},
{
attr = {
fillColor = (0,255);
};
closed = 1;
nodes = (
(350,500,l),
(350,400,l),
(250,400,l),
(250,500,l)
);
},
{
attr = {
fillColor = (0,255);
};
closed = 1;
nodes = (
(250,500,l),
(250,400,l),
(150,400,l),
(150,500,l)
);
},
{
attr = {
fillColor = (0,255);
};
closed = 1;
nodes = (
(850,500,l),
(850,400,l),
(750,400,l),
(750,500,l)
);
},
{
attr = {
fillColor = (0,255);
};
closed = 1;
nodes = (
(550,600,l),
(550,500,l),
(450,500,l),
(450,600,l)
);
},
{
attr = {
fillColor = (0,255);
};
closed = 1;
nodes = (
(450,600,l),
(450,500,l),
(350,500,l),
(350,600,l)
);
},
{
attr = {
fillColor = (0,255);
};
closed = 1;
nodes = (
(850,600,l),
(850,500,l),
(750,500,l),
(750,600,l)
);
},
{
attr = {
fillColor = (0,255);
};
closed = 1;
nodes = (
(750,600,l),
(750,500,l),
(650,500,l),
(650,600,l)
);
},
{
attr = {
fillColor = (0,255);
};
closed = 1;
nodes = (
(550,700,l),
(550,600,l),
(450,600,l),
(450,700,l)
);
},
{
attr = {
fillColor = (0,255);
};
closed = 1;
nodes = (
(650,700,l),
(650,600,l),
(550,600,l),
(550,700,l)
);
},
{
attr = {
fillColor = (0,255);
};
closed = 1;
nodes = (
(650,800,l),
(650,700,l),
(550,700,l),
(550,800,l)
);
},
{
attr = {
fillColor = (0,255);
};
closed = 1;
nodes = (
(250,-100,l),
(250,-200,l),
(150,-200,l),
(150,-100,l)
);
},
{
attr = {
fillColor = (0,255);
};
closed = 1;
nodes = (
(150,-100,l),
(150,-200,l),
(50,-200,l),
(50,-100,l)
);
},
{
attr = {
fillColor = (0,255);
};
closed = 1;
nodes = (
(350,0,l),
(350,-100,l),
(250,-100,l),
(250,0,l)
);
},
{
attr = {
fillColor = (0,255);
};
closed = 1;
nodes = (
(450,100,l),
(450,0,l),
(350,0,l),
(350,100,l)
);
},
{
attr = {
fillColor = (0,255);
};
closed = 1;
nodes = (
(550,200,l),
(550,100,l),
(450,100,l),
(450,200,l)
);
},
{
attr = {
fillColor = (0,255);
};
closed = 1;
nodes = (
(350,200,l),
(350,100,l),
(250,100,l),
(250,200,l)
);
},
{
attr = {
fillColor = (0,255);
};
closed = 1;
nodes = (
(550,300,l),
(550,200,l),
(450,200,l),
(450,300,l)
);
},
{
attr = {
fillColor = (0,255);
};
closed = 1;
nodes = (
(450,300,l),
(450,200,l),
(350,200,l),
(350,300,l)
);
}
);
width = 900;
}
);
unicode = 12401;
},
{
glyphname = "hi-hira";
lastChange = "2021-03-08 03:35:21 +0000";
layers = (
{
layerId = m01;
shapes = (
{
attr = {
fillColor = (0,255);
};
closed = 1;
nodes = (
(450,400,l),
(450,300,l),
(350,300,l),
(350,400,l)
);
},
{
attr = {
fillColor = (0,255);
};
closed = 1;
nodes = (
(350,400,l),
(350,300,l),
(250,300,l),
(250,400,l)
);
},
{
attr = {
fillColor = (0,255);
};
closed = 1;
nodes = (
(750,400,l),
(750,300,l),
(650,300,l),
(650,400,l)
);
},
{
attr = {
fillColor = (0,255);
};
closed = 1;
nodes = (
(650,400,l),
(650,300,l),
(550,300,l),
(550,400,l)
);
},
{
attr = {
fillColor = (0,255);
};
closed = 1;
nodes = (
(450,500,l),
(450,400,l),
(350,400,l),
(350,500,l)
);
},
{
attr = {
fillColor = (0,255);
};
closed = 1;
nodes = (
(250,500,l),
(250,400,l),
(150,400,l),
(150,500,l)
);
},
{
attr = {
fillColor = (0,255);
};
closed = 1;
nodes = (
(550,600,l),
(550,500,l),
(450,500,l),
(450,600,l)
);
},
{
attr = {
fillColor = (0,255);
};
closed = 1;
nodes = (
(350,600,l),
(350,500,l),
(250,500,l),
(250,600,l)
);
},
{
attr = {
fillColor = (0,255);
};
closed = 1;
nodes = (
(750,700,l),
(750,600,l),
(650,600,l),
(650,700,l)
);
},
{
attr = {
fillColor = (0,255);
};
closed = 1;
nodes = (
(650,700,l),
(650,600,l),
(550,600,l),
(550,700,l)
);
},
{
attr = {
fillColor = (0,255);
};
closed = 1;
nodes = (
(650,800,l),
(650,700,l),
(550,700,l),
(550,800,l)
);
},
{
attr = {
fillColor = (0,255);
};
closed = 1;
nodes = (
(150,-100,l),
(150,-200,l),
(50,-200,l),
(50,-100,l)
);
},
{
attr = {
fillColor = (0,255);
};
closed = 1;
nodes = (
(1050,-100,l),
(1050,-200,l),
(950,-200,l),
(950,-100,l)
);
},
{
attr = {
fillColor = (0,255);
};
closed = 1;
nodes = (
(950,-100,l),
(950,-200,l),
(850,-200,l),
(850,-100,l)
);
},
{
attr = {
fillColor = (0,255);
};
closed = 1;
nodes = (
(250,0,l),
(250,-100,l),
(150,-100,l),
(150,0,l)
);
},
{
attr = {
fillColor = (0,255);
};
closed = 1;
nodes = (
(850,0,l),
(850,-100,l),
(750,-100,l),
(750,0,l)
);
},
{
attr = {
fillColor = (0,255);
};
closed = 1;
nodes = (
(250,100,l),
(250,0,l),
(150,0,l),
(150,100,l)
);
},
{
attr = {
fillColor = (0,255);
};
closed = 1;
nodes = (
(750,100,l),
(750,0,l),
(650,0,l),
(650,100,l)
);
},
{
attr = {
fillColor = (0,255);
};
closed = 1;
nodes = (
(350,200,l),
(350,100,l),
(250,100,l),
(250,200,l)
);
},
{
attr = {
fillColor = (0,255);
};
closed = 1;
nodes = (
(750,200,l),
(750,100,l),
(650,100,l),
(650,200,l)
);
},
{
attr = {
fillColor = (0,255);
};
closed = 1;
nodes = (
(550,300,l),
(550,200,l),
(450,200,l),
(450,300,l)
);
},
{
attr = {
fillColor = (0,255);
};
closed = 1;
nodes = (
(350,300,l),
(350,200,l),
(250,200,l),
(250,300,l)
);
},
{
attr = {
fillColor = (0,255);
};
closed = 1;
nodes = (
(750,300,l),
(750,200,l),
(650,200,l),
(650,300,l)
);
}
);
width = 1100;
}
);
unicode = 12402;
},
{
glyphname = "bi-hira";
lastChange = "2021-03-12 13:01:41 +0000";
layers = (
{
layerId = m01;
shapes = (
{
attr = {
fillColor = (0,255);
};
closed = 1;
nodes = (
(450,400,l),
(450,300,l),
(350,300,l),
(350,400,l)
);
},
{
attr = {
fillColor = (0,255);
};
closed = 1;
nodes = (
(350,400,l),
(350,300,l),
(250,300,l),
(250,400,l)
);
},
{
attr = {
fillColor = (0,255);
};
closed = 1;
nodes = (
(650,400,l),
(650,300,l),
(550,300,l),
(550,400,l)
);
},
{
attr = {
fillColor = (0,255);
};
closed = 1;
nodes = (
(450,500,l),
(450,400,l),
(350,400,l),
(350,500,l)
);
},
{
attr = {
fillColor = (0,255);
};
closed = 1;
nodes = (
(250,500,l),
(250,400,l),
(150,400,l),
(150,500,l)
);
},
{
attr = {
fillColor = (0,255);
};
closed = 1;
nodes = (
(850,500,l),
(850,400,l),
(750,400,l),
(750,500,l)
);
},
{
attr = {
fillColor = (0,255);
};
closed = 1;
nodes = (
(750,500,l),
(750,400,l),
(650,400,l),
(650,500,l)
);
},
{
attr = {
fillColor = (0,255);
};
closed = 1;
nodes = (
(550,600,l),
(550,500,l),
(450,500,l),
(450,600,l)
);
},
{
attr = {
fillColor = (0,255);
};
closed = 1;
nodes = (
(350,600,l),
(350,500,l),
(250,500,l),
(250,600,l)
);
},
{
attr = {
fillColor = (0,255);
};
closed = 1;
nodes = (
(750,700,l),
(750,600,l),
(650,600,l),
(650,700,l)
);
},
{
attr = {
fillColor = (0,255);
};
closed = 1;
nodes = (
(650,700,l),
(650,600,l),
(550,600,l),
(550,700,l)
);
},
{
attr = {
fillColor = (0,255);
};
closed = 1;
nodes = (
(650,800,l),
(650,700,l),
(550,700,l),
(550,800,l)
);
},
{
attr = {
fillColor = (0,255);
};
closed = 1;
nodes = (
(150,-100,l),
(150,-200,l),
(50,-200,l),
(50,-100,l)
);
},
{
attr = {
fillColor = (0,255);
};
closed = 1;
nodes = (
(1050,-100,l),
(1050,-200,l),
(950,-200,l),
(950,-100,l)
);
},
{
attr = {
fillColor = (0,255);
};
closed = 1;
nodes = (
(950,-100,l),
(950,-200,l),
(850,-200,l),
(850,-100,l)
);
},
{
attr = {
fillColor = (0,255);
};
closed = 1;
nodes = (
(850,-100,l),
(850,-200,l),
(750,-200,l),
(750,-100,l)
);
},
{
attr = {
fillColor = (0,255);
};
closed = 1;
nodes = (
(250,0,l),
(250,-100,l),
(150,-100,l),
(150,0,l)
);
},
{
attr = {
fillColor = (0,255);
};
closed = 1;
nodes = (
(750,0,l),
(750,-100,l),
(650,-100,l),
(650,0,l)
);
},
{
attr = {
fillColor = (0,255);
};
closed = 1;
nodes = (
(250,100,l),
(250,0,l),
(150,0,l),
(150,100,l)
);
},
{
attr = {
fillColor = (0,255);
};
closed = 1;
nodes = (
(750,100,l),
(750,0,l),
(650,0,l),
(650,100,l)
);
},
{
attr = {
fillColor = (0,255);
};
closed = 1;
nodes = (
(350,200,l),
(350,100,l),
(250,100,l),
(250,200,l)
);
},
{
attr = {
fillColor = (0,255);
};
closed = 1;
nodes = (
(750,200,l),
(750,100,l),
(650,100,l),
(650,200,l)
);
},
{
attr = {
fillColor = (0,255);
};
closed = 1;
nodes = (
(550,300,l),
(550,200,l),
(450,200,l),
(450,300,l)
);
},
{
attr = {
fillColor = (0,255);
};
closed = 1;
nodes = (
(350,300,l),
(350,200,l),
(250,200,l),
(250,300,l)
);
},
{
attr = {
fillColor = (0,255);
};
closed = 1;
nodes = (
(750,300,l),
(750,200,l),
(650,200,l),
(650,300,l)
);
}
);
width = 1100;
}
);
unicode = 12403;
},
{
glyphname = "pi-hira";
lastChange = "2021-03-14 10:05:03 +0000";
layers = (
{
layerId = m01;
shapes = (
{
attr = {
fillColor = (0,255);
};
closed = 1;
nodes = (
(450,400,l),
(450,300,l),
(350,300,l),
(350,400,l)
);
},
{
attr = {
fillColor = (0,255);
};
closed = 1;
nodes = (
(350,400,l),
(350,300,l),
(250,300,l),
(250,400,l)
);
},
{
attr = {
fillColor = (0,255);
};
closed = 1;
nodes = (
(650,400,l),
(650,300,l),
(550,300,l),
(550,400,l)
);
},
{
attr = {
fillColor = (0,255);
};
closed = 1;
nodes = (
(450,500,l),
(450,400,l),
(350,400,l),
(350,500,l)
);
},
{
attr = {
fillColor = (0,255);
};
closed = 1;
nodes = (
(250,500,l),
(250,400,l),
(150,400,l),
(150,500,l)
);
},
{
attr = {
fillColor = (0,255);
};
closed = 1;
nodes = (
(850,500,l),
(850,400,l),
(750,400,l),
(750,500,l)
);
},
{
attr = {
fillColor = (0,255);
};
closed = 1;
nodes = (
(550,600,l),
(550,500,l),
(450,500,l),
(450,600,l)
);
},
{
attr = {
fillColor = (0,255);
};
closed = 1;
nodes = (
(350,600,l),
(350,500,l),
(250,500,l),
(250,600,l)
);
},
{
attr = {
fillColor = (0,255);
};
closed = 1;
nodes = (
(850,600,l),
(850,500,l),
(750,500,l),
(750,600,l)
);
},
{
attr = {
fillColor = (0,255);
};
closed = 1;
nodes = (
(750,600,l),
(750,500,l),
(650,500,l),
(650,600,l)
);
},
{
attr = {
fillColor = (0,255);
};
closed = 1;
nodes = (
(650,700,l),
(650,600,l),
(550,600,l),
(550,700,l)
);
},
{
attr = {
fillColor = (0,255);
};
closed = 1;
nodes = (
(650,800,l),
(650,700,l),
(550,700,l),
(550,800,l)
);
},
{
attr = {
fillColor = (0,255);
};
closed = 1;
nodes = (
(150,-100,l),
(150,-200,l),
(50,-200,l),
(50,-100,l)
);
},
{
attr = {
fillColor = (0,255);
};
closed = 1;
nodes = (
(1050,-100,l),
(1050,-200,l),
(950,-200,l),
(950,-100,l)
);
},
{
attr = {
fillColor = (0,255);
};
closed = 1;
nodes = (
(950,-100,l),
(950,-200,l),
(850,-200,l),
(850,-100,l)
);
},
{
attr = {
fillColor = (0,255);
};
closed = 1;
nodes = (
(850,-100,l),
(850,-200,l),
(750,-200,l),
(750,-100,l)
);
},
{
attr = {
fillColor = (0,255);
};
closed = 1;
nodes = (
(250,0,l),
(250,-100,l),
(150,-100,l),
(150,0,l)
);
},
{
attr = {
fillColor = (0,255);
};
closed = 1;
nodes = (
(750,0,l),
(750,-100,l),
(650,-100,l),
(650,0,l)
);
},
{
attr = {
fillColor = (0,255);
};
closed = 1;
nodes = (
(250,100,l),
(250,0,l),
(150,0,l),
(150,100,l)
);
},
{
attr = {
fillColor = (0,255);
};
closed = 1;
nodes = (
(750,100,l),
(750,0,l),
(650,0,l),
(650,100,l)
);
},
{
attr = {
fillColor = (0,255);
};
closed = 1;
nodes = (
(350,200,l),
(350,100,l),
(250,100,l),
(250,200,l)
);
},
{
attr = {
fillColor = (0,255);
};
closed = 1;
nodes = (
(750,200,l),
(750,100,l),
(650,100,l),
(650,200,l)
);
},
{
attr = {
fillColor = (0,255);
};
closed = 1;
nodes = (
(550,300,l),
(550,200,l),
(450,200,l),
(450,300,l)
);
},
{
attr = {
fillColor = (0,255);
};
closed = 1;
nodes = (
(350,300,l),
(350,200,l),
(250,200,l),
(250,300,l)
);
},
{
attr = {
fillColor = (0,255);
};
closed = 1;
nodes = (
(750,300,l),
(750,200,l),
(650,200,l),
(650,300,l)
);
}
);
width = 1100;
}
);
unicode = 12404;
},
{
glyphname = "hu-hira";
lastChange = "2021-03-08 03:35:40 +0000";
layers = (
{
layerId = m01;
shapes = (
{
attr = {
fillColor = (0,255);
};
closed = 1;
nodes = (
(550,400,l),
(550,300,l),
(450,300,l),
(450,400,l)
);
},
{
attr = {
fillColor = (0,255);
};
closed = 1;
nodes = (
(450,400,l),
(450,300,l),
(350,300,l),
(350,400,l)
);
},
{
attr = {
fillColor = (0,255);
};
closed = 1;
nodes = (
(350,400,l),
(350,300,l),
(250,300,l),
(250,400,l)
);
},
{
attr = {
fillColor = (0,255);
};
closed = 1;
nodes = (
(550,500,l),
(550,400,l),
(450,400,l),
(450,500,l)
);
},
{
attr = {
fillColor = (0,255);
};
closed = 1;
nodes = (
(450,500,l),
(450,400,l),
(350,400,l),
(350,500,l)
);
},
{
attr = {
fillColor = (0,255);
};
closed = 1;
nodes = (
(250,500,l),
(250,400,l),
(150,400,l),
(150,500,l)
);
},
{
attr = {
fillColor = (0,255);
};
closed = 1;
nodes = (
(650,500,l),
(650,400,l),
(550,400,l),
(550,500,l)
);
},
{
attr = {
fillColor = (0,255);
};
closed = 1;
nodes = (
(550,600,l),
(550,500,l),
(450,500,l),
(450,600,l)
);
},
{
attr = {
fillColor = (0,255);
};
closed = 1;
nodes = (
(350,600,l),
(350,500,l),
(250,500,l),
(250,600,l)
);
},
{
attr = {
fillColor = (0,255);
};
closed = 1;
nodes = (
(750,600,l),
(750,500,l),
(650,500,l),
(650,600,l)
);
},
{
attr = {
fillColor = (0,255);
};
closed = 1;
nodes = (
(550,700,l),
(550,600,l),
(450,600,l),
(450,700,l)
);
},
{
attr = {
fillColor = (0,255);
};
closed = 1;
nodes = (
(550,800,l),
(550,700,l),
(450,700,l),
(450,800,l)
);
},
{
attr = {
fillColor = (0,255);
};
closed = 1;
nodes = (
(450,800,l),
(450,700,l),
(350,700,l),
(350,800,l)
);
},
{
attr = {
fillColor = (0,255);
};
closed = 1;
nodes = (
(550,-100,l),
(550,-200,l),
(450,-200,l),
(450,-100,l)
);
},
{
attr = {
fillColor = (0,255);
};
closed = 1;
nodes = (
(550,0,l),
(550,-100,l),
(450,-100,l),
(450,0,l)
);
},
{
attr = {
fillColor = (0,255);
};
closed = 1;
nodes = (
(550,100,l),
(550,0,l),
(450,0,l),
(450,100,l)
);
},
{
attr = {
fillColor = (0,255);
};
closed = 1;
nodes = (
(450,100,l),
(450,0,l),
(350,0,l),
(350,100,l)
);
},
{
attr = {
fillColor = (0,255);
};
closed = 1;
nodes = (
(150,100,l),
(150,0,l),
(50,0,l),
(50,100,l)
);
},
{
attr = {
fillColor = (0,255);
};
closed = 1;
nodes = (
(550,200,l),
(550,100,l),
(450,100,l),
(450,200,l)
);
},
{
attr = {
fillColor = (0,255);
};
closed = 1;
nodes = (
(250,200,l),
(250,100,l),
(150,100,l),
(150,200,l)
);
},
{
attr = {
fillColor = (0,255);
};
closed = 1;
nodes = (
(750,200,l),
(750,100,l),
(650,100,l),
(650,200,l)
);
},
{
attr = {
fillColor = (0,255);
};
closed = 1;
nodes = (
(650,200,l),
(650,100,l),
(550,100,l),
(550,200,l)
);
},
{
attr = {
fillColor = (0,255);
};
closed = 1;
nodes = (
(550,300,l),
(550,200,l),
(450,200,l),
(450,300,l)
);
},
{
attr = {
fillColor = (0,255);
};
closed = 1;
nodes = (
(350,300,l),
(350,200,l),
(250,200,l),
(250,300,l)
);
},
{
attr = {
fillColor = (0,255);
};
closed = 1;
nodes = (
(950,300,l),
(950,200,l),
(850,200,l),
(850,300,l)
);
},
{
attr = {
fillColor = (0,255);
};
closed = 1;
nodes = (
(850,300,l),
(850,200,l),
(750,200,l),
(750,300,l)
);
}
);
width = 1000;
}
);
unicode = 12405;
},
{
glyphname = "bu-hira";
lastChange = "2021-03-12 13:02:37 +0000";
layers = (
{
layerId = m01;
shapes = (
{
attr = {
fillColor = (0,255);
};
closed = 1;
nodes = (
(550,400,l),
(550,300,l),
(450,300,l),
(450,400,l)
);
},
{
attr = {
fillColor = (0,255);
};
closed = 1;
nodes = (
(450,400,l),
(450,300,l),
(350,300,l),
(350,400,l)
);
},
{
attr = {
fillColor = (0,255);
};
closed = 1;
nodes = (
(350,400,l),
(350,300,l),
(250,300,l),
(250,400,l)
);
},
{
attr = {
fillColor = (0,255);
};
closed = 1;
nodes = (
(850,400,l),
(850,300,l),
(750,300,l),
(750,400,l)
);
},
{
attr = {
fillColor = (0,255);
};
closed = 1;
nodes = (
(750,400,l),
(750,300,l),
(650,300,l),
(650,400,l)
);
},
{
attr = {
fillColor = (0,255);
};
closed = 1;
nodes = (
(550,500,l),
(550,400,l),
(450,400,l),
(450,500,l)
);
},
{
attr = {
fillColor = (0,255);
};
closed = 1;
nodes = (
(450,500,l),
(450,400,l),
(350,400,l),
(350,500,l)
);
},
{
attr = {
fillColor = (0,255);
};
closed = 1;
nodes = (
(250,500,l),
(250,400,l),
(150,400,l),
(150,500,l)
);
},
{
attr = {
fillColor = (0,255);
};
closed = 1;
nodes = (
(650,500,l),
(650,400,l),
(550,400,l),
(550,500,l)
);
},
{
attr = {
fillColor = (0,255);
};
closed = 1;
nodes = (
(550,600,l),
(550,500,l),
(450,500,l),
(450,600,l)
);
},
{
attr = {
fillColor = (0,255);
};
closed = 1;
nodes = (
(350,600,l),
(350,500,l),
(250,500,l),
(250,600,l)
);
},
{
attr = {
fillColor = (0,255);
};
closed = 1;
nodes = (
(750,600,l),
(750,500,l),
(650,500,l),
(650,600,l)
);
},
{
attr = {
fillColor = (0,255);
};
closed = 1;
nodes = (
(550,700,l),
(550,600,l),
(450,600,l),
(450,700,l)
);
},
{
attr = {
fillColor = (0,255);
};
closed = 1;
nodes = (
(550,800,l),
(550,700,l),
(450,700,l),
(450,800,l)
);
},
{
attr = {
fillColor = (0,255);
};
closed = 1;
nodes = (
(450,800,l),
(450,700,l),
(350,700,l),
(350,800,l)
);
},
{
attr = {
fillColor = (0,255);
};
closed = 1;
nodes = (
(550,-100,l),
(550,-200,l),
(450,-200,l),
(450,-100,l)
);
},
{
attr = {
fillColor = (0,255);
};
closed = 1;
nodes = (
(550,0,l),
(550,-100,l),
(450,-100,l),
(450,0,l)
);
},
{
attr = {
fillColor = (0,255);
};
closed = 1;
nodes = (
(550,100,l),
(550,0,l),
(450,0,l),
(450,100,l)
);
},
{
attr = {
fillColor = (0,255);
};
closed = 1;
nodes = (
(450,100,l),
(450,0,l),
(350,0,l),
(350,100,l)
);
},
{
attr = {
fillColor = (0,255);
};
closed = 1;
nodes = (
(150,100,l),
(150,0,l),
(50,0,l),
(50,100,l)
);
},
{
attr = {
fillColor = (0,255);
};
closed = 1;
nodes = (
(550,200,l),
(550,100,l),
(450,100,l),
(450,200,l)
);
},
{
attr = {
fillColor = (0,255);
};
closed = 1;
nodes = (
(250,200,l),
(250,100,l),
(150,100,l),
(150,200,l)
);
},
{
attr = {
fillColor = (0,255);
};
closed = 1;
nodes = (
(750,200,l),
(750,100,l),
(650,100,l),
(650,200,l)
);
},
{
attr = {
fillColor = (0,255);
};
closed = 1;
nodes = (
(650,200,l),
(650,100,l),
(550,100,l),
(550,200,l)
);
},
{
attr = {
fillColor = (0,255);
};
closed = 1;
nodes = (
(550,300,l),
(550,200,l),
(450,200,l),
(450,300,l)
);
},
{
attr = {
fillColor = (0,255);
};
closed = 1;
nodes = (
(350,300,l),
(350,200,l),
(250,200,l),
(250,300,l)
);
},
{
attr = {
fillColor = (0,255);
};
closed = 1;
nodes = (
(950,300,l),
(950,200,l),
(850,200,l),
(850,300,l)
);
},
{
attr = {
fillColor = (0,255);
};
closed = 1;
nodes = (
(850,300,l),
(850,200,l),
(750,200,l),
(750,300,l)
);
}
);
width = 1000;
}
);
unicode = 12406;
},
{
glyphname = "pu-hira";
lastChange = "2021-03-14 10:05:34 +0000";
layers = (
{
layerId = m01;
shapes = (
{
attr = {
fillColor = (0,255);
};
closed = 1;
nodes = (
(550,400,l),
(550,300,l),
(450,300,l),
(450,400,l)
);
},
{
attr = {
fillColor = (0,255);
};
closed = 1;
nodes = (
(450,400,l),
(450,300,l),
(350,300,l),
(350,400,l)
);
},
{
attr = {
fillColor = (0,255);
};
closed = 1;
nodes = (
(350,400,l),
(350,300,l),
(250,300,l),
(250,400,l)
);
},
{
attr = {
fillColor = (0,255);
};
closed = 1;
nodes = (
(950,400,l),
(950,300,l),
(850,300,l),
(850,400,l)
);
},
{
attr = {
fillColor = (0,255);
};
closed = 1;
nodes = (
(550,500,l),
(550,400,l),
(450,400,l),
(450,500,l)
);
},
{
attr = {
fillColor = (0,255);
};
closed = 1;
nodes = (
(450,500,l),
(450,400,l),
(350,400,l),
(350,500,l)
);
},
{
attr = {
fillColor = (0,255);
};
closed = 1;
nodes = (
(250,500,l),
(250,400,l),
(150,400,l),
(150,500,l)
);
},
{
attr = {
fillColor = (0,255);
};
closed = 1;
nodes = (
(950,500,l),
(950,400,l),
(850,400,l),
(850,500,l)
);
},
{
attr = {
fillColor = (0,255);
};
closed = 1;
nodes = (
(850,500,l),
(850,400,l),
(750,400,l),
(750,500,l)
);
},
{
attr = {
fillColor = (0,255);
};
closed = 1;
nodes = (
(650,500,l),
(650,400,l),
(550,400,l),
(550,500,l)
);
},
{
attr = {
fillColor = (0,255);
};
closed = 1;
nodes = (
(550,600,l),
(550,500,l),
(450,500,l),
(450,600,l)
);
},
{
attr = {
fillColor = (0,255);
};
closed = 1;
nodes = (
(350,600,l),
(350,500,l),
(250,500,l),
(250,600,l)
);
},
{
attr = {
fillColor = (0,255);
};
closed = 1;
nodes = (
(750,600,l),
(750,500,l),
(650,500,l),
(650,600,l)
);
},
{
attr = {
fillColor = (0,255);
};
closed = 1;
nodes = (
(550,700,l),
(550,600,l),
(450,600,l),
(450,700,l)
);
},
{
attr = {
fillColor = (0,255);
};
closed = 1;
nodes = (
(550,800,l),
(550,700,l),
(450,700,l),
(450,800,l)
);
},
{
attr = {
fillColor = (0,255);
};
closed = 1;
nodes = (
(450,800,l),
(450,700,l),
(350,700,l),
(350,800,l)
);
},
{
attr = {
fillColor = (0,255);
};
closed = 1;
nodes = (
(550,-100,l),
(550,-200,l),
(450,-200,l),
(450,-100,l)
);
},
{
attr = {
fillColor = (0,255);
};
closed = 1;
nodes = (
(550,0,l),
(550,-100,l),
(450,-100,l),
(450,0,l)
);
},
{
attr = {
fillColor = (0,255);
};
closed = 1;
nodes = (
(550,100,l),
(550,0,l),
(450,0,l),
(450,100,l)
);
},
{
attr = {
fillColor = (0,255);
};
closed = 1;
nodes = (
(450,100,l),
(450,0,l),
(350,0,l),
(350,100,l)
);
},
{
attr = {
fillColor = (0,255);
};
closed = 1;
nodes = (
(150,100,l),
(150,0,l),
(50,0,l),
(50,100,l)
);
},
{
attr = {
fillColor = (0,255);
};
closed = 1;
nodes = (
(550,200,l),
(550,100,l),
(450,100,l),
(450,200,l)
);
},
{
attr = {
fillColor = (0,255);
};
closed = 1;
nodes = (
(250,200,l),
(250,100,l),
(150,100,l),
(150,200,l)
);
},
{
attr = {
fillColor = (0,255);
};
closed = 1;
nodes = (
(750,200,l),
(750,100,l),
(650,100,l),
(650,200,l)
);
},
{
attr = {
fillColor = (0,255);
};
closed = 1;
nodes = (
(650,200,l),
(650,100,l),
(550,100,l),
(550,200,l)
);
},
{
attr = {
fillColor = (0,255);
};
closed = 1;
nodes = (
(550,300,l),
(550,200,l),
(450,200,l),
(450,300,l)
);
},
{
attr = {
fillColor = (0,255);
};
closed = 1;
nodes = (
(350,300,l),
(350,200,l),
(250,200,l),
(250,300,l)
);
},
{
attr = {
fillColor = (0,255);
};
closed = 1;
nodes = (
(950,300,l),
(950,200,l),
(850,200,l),
(850,300,l)
);
},
{
attr = {
fillColor = (0,255);
};
closed = 1;
nodes = (
(850,300,l),
(850,200,l),
(750,200,l),
(750,300,l)
);
}
);
width = 1000;
}
);
unicode = 12407;
},
{
glyphname = "he-hira";
lastChange = "2021-03-08 04:06:25 +0000";
layers = (
{
layerId = m01;
shapes = (
{
attr = {
fillColor = (0,255);
};
closed = 1;
nodes = (
(550,400,l),
(550,300,l),
(450,300,l),
(450,400,l)
);
},
{
attr = {
fillColor = (0,255);
};
closed = 1;
nodes = (
(450,400,l),
(450,300,l),
(350,300,l),
(350,400,l)
);
},
{
attr = {
fillColor = (0,255);
};
closed = 1;
nodes = (
(350,400,l),
(350,300,l),
(250,300,l),
(250,400,l)
);
},
{
attr = {
fillColor = (0,255);
};
closed = 1;
nodes = (
(450,500,l),
(450,400,l),
(350,400,l),
(350,500,l)
);
},
{
attr = {
fillColor = (0,255);
};
closed = 1;
nodes = (
(350,500,l),
(350,400,l),
(250,400,l),
(250,500,l)
);
},
{
attr = {
fillColor = (0,255);
};
closed = 1;
nodes = (
(550,600,l),
(550,500,l),
(450,500,l),
(450,600,l)
);
},
{
attr = {
fillColor = (0,255);
};
closed = 1;
nodes = (
(450,600,l),
(450,500,l),
(350,500,l),
(350,600,l)
);
},
{
attr = {
fillColor = (0,255);
};
closed = 1;
nodes = (
(250,600,l),
(250,500,l),
(150,500,l),
(150,600,l)
);
},
{
attr = {
fillColor = (0,255);
};
closed = 1;
nodes = (
(350,700,l),
(350,600,l),
(250,600,l),
(250,700,l)
);
},
{
attr = {
fillColor = (0,255);
};
closed = 1;
nodes = (
(650,700,l),
(650,600,l),
(550,600,l),
(550,700,l)
);
},
{
attr = {
fillColor = (0,255);
};
closed = 1;
nodes = (
(650,800,l),
(650,700,l),
(550,700,l),
(550,800,l)
);
},
{
attr = {
fillColor = (0,255);
};
closed = 1;
nodes = (
(550,-100,l),
(550,-200,l),
(450,-200,l),
(450,-100,l)
);
},
{
attr = {
fillColor = (0,255);
};
closed = 1;
nodes = (
(450,0,l),
(450,-100,l),
(350,-100,l),
(350,0,l)
);
},
{
attr = {
fillColor = (0,255);
};
closed = 1;
nodes = (
(550,100,l),
(550,0,l),
(450,0,l),
(450,100,l)
);
},
{
attr = {
fillColor = (0,255);
};
closed = 1;
nodes = (
(150,200,l),
(150,100,l),
(50,100,l),
(50,200,l)
);
},
{
attr = {
fillColor = (0,255);
};
closed = 1;
nodes = (
(650,200,l),
(650,100,l),
(550,100,l),
(550,200,l)
);
},
{
attr = {
fillColor = (0,255);
};
closed = 1;
nodes = (
(250,300,l),
(250,200,l),
(150,200,l),
(150,300,l)
);
},
{
attr = {
fillColor = (0,255);
};
closed = 1;
nodes = (
(150,300,l),
(150,200,l),
(50,200,l),
(50,300,l)
);
},
{
attr = {
fillColor = (0,255);
};
closed = 1;
nodes = (
(650,300,l),
(650,200,l),
(550,200,l),
(550,300,l)
);
}
);
width = 700;
}
);
unicode = 12408;
},
{
glyphname = "be-hira";
lastChange = "2021-03-14 10:08:14 +0000";
layers = (
{
layerId = m01;
shapes = (
{
attr = {
fillColor = (0,255);
};
closed = 1;
nodes = (
(550,400,l),
(550,300,l),
(450,300,l),
(450,400,l)
);
},
{
attr = {
fillColor = (0,255);
};
closed = 1;
nodes = (
(450,400,l),
(450,300,l),
(350,300,l),
(350,400,l)
);
},
{
attr = {
fillColor = (0,255);
};
closed = 1;
nodes = (
(350,400,l),
(350,300,l),
(250,300,l),
(250,400,l)
);
},
{
attr = {
fillColor = (0,255);
};
closed = 1;
nodes = (
(450,500,l),
(450,400,l),
(350,400,l),
(350,500,l)
);
},
{
attr = {
fillColor = (0,255);
};
closed = 1;
nodes = (
(250,500,l),
(250,400,l),
(150,400,l),
(150,500,l)
);
},
{
attr = {
fillColor = (0,255);
};
closed = 1;
nodes = (
(750,500,l),
(750,400,l),
(650,400,l),
(650,500,l)
);
},
{
attr = {
fillColor = (0,255);
};
closed = 1;
nodes = (
(650,500,l),
(650,400,l),
(550,400,l),
(550,500,l)
);
},
{
attr = {
fillColor = (0,255);
};
closed = 1;
nodes = (
(450,600,l),
(450,500,l),
(350,500,l),
(350,600,l)
);
},
{
attr = {
fillColor = (0,255);
};
closed = 1;
nodes = (
(350,600,l),
(350,500,l),
(250,500,l),
(250,600,l)
);
},
{
attr = {
fillColor = (0,255);
};
closed = 1;
nodes = (
(550,700,l),
(550,600,l),
(450,600,l),
(450,700,l)
);
},
{
attr = {
fillColor = (0,255);
};
closed = 1;
nodes = (
(650,800,l),
(650,700,l),
(550,700,l),
(550,800,l)
);
},
{
attr = {
fillColor = (0,255);
};
closed = 1;
nodes = (
(450,-100,l),
(450,-200,l),
(350,-200,l),
(350,-100,l)
);
},
{
attr = {
fillColor = (0,255);
};
closed = 1;
nodes = (
(350,0,l),
(350,-100,l),
(250,-100,l),
(250,0,l)
);
},
{
attr = {
fillColor = (0,255);
};
closed = 1;
nodes = (
(450,100,l),
(450,0,l),
(350,0,l),
(350,100,l)
);
},
{
attr = {
fillColor = (0,255);
};
closed = 1;
nodes = (
(550,200,l),
(550,100,l),
(450,100,l),
(450,200,l)
);
},
{
attr = {
fillColor = (0,255);
};
closed = 1;
nodes = (
(150,200,l),
(150,100,l),
(50,100,l),
(50,200,l)
);
},
{
attr = {
fillColor = (0,255);
};
closed = 1;
nodes = (
(650,200,l),
(650,100,l),
(550,100,l),
(550,200,l)
);
},
{
attr = {
fillColor = (0,255);
};
closed = 1;
nodes = (
(250,300,l),
(250,200,l),
(150,200,l),
(150,300,l)
);
},
{
attr = {
fillColor = (0,255);
};
closed = 1;
nodes = (
(650,300,l),
(650,200,l),
(550,200,l),
(550,300,l)
);
}
);
width = 800;
}
);
unicode = 12409;
},
{
glyphname = "pe-hira";
lastChange = "2021-03-14 10:07:02 +0000";
layers = (
{
layerId = m01;
shapes = (
{
attr = {
fillColor = (0,255);
};
closed = 1;
nodes = (
(550,400,l),
(550,300,l),
(450,300,l),
(450,400,l)
);
},
{
attr = {
fillColor = (0,255);
};
closed = 1;
nodes = (
(450,400,l),
(450,300,l),
(350,300,l),
(350,400,l)
);
},
{
attr = {
fillColor = (0,255);
};
closed = 1;
nodes = (
(350,400,l),
(350,300,l),
(250,300,l),
(250,400,l)
);
},
{
attr = {
fillColor = (0,255);
};
closed = 1;
nodes = (
(450,500,l),
(450,400,l),
(350,400,l),
(350,500,l)
);
},
{
attr = {
fillColor = (0,255);
};
closed = 1;
nodes = (
(250,500,l),
(250,400,l),
(150,400,l),
(150,500,l)
);
},
{
attr = {
fillColor = (0,255);
};
closed = 1;
nodes = (
(750,500,l),
(750,400,l),
(650,400,l),
(650,500,l)
);
},
{
attr = {
fillColor = (0,255);
};
closed = 1;
nodes = (
(450,600,l),
(450,500,l),
(350,500,l),
(350,600,l)
);
},
{
attr = {
fillColor = (0,255);
};
closed = 1;
nodes = (
(350,600,l),
(350,500,l),
(250,500,l),
(250,600,l)
);
},
{
attr = {
fillColor = (0,255);
};
closed = 1;
nodes = (
(750,600,l),
(750,500,l),
(650,500,l),
(650,600,l)
);
},
{
attr = {
fillColor = (0,255);
};
closed = 1;
nodes = (
(650,600,l),
(650,500,l),
(550,500,l),
(550,600,l)
);
},
{
attr = {
fillColor = (0,255);
};
closed = 1;
nodes = (
(550,700,l),
(550,600,l),
(450,600,l),
(450,700,l)
);
},
{
attr = {
fillColor = (0,255);
};
closed = 1;
nodes = (
(650,800,l),
(650,700,l),
(550,700,l),
(550,800,l)
);
},
{
attr = {
fillColor = (0,255);
};
closed = 1;
nodes = (
(450,-100,l),
(450,-200,l),
(350,-200,l),
(350,-100,l)
);
},
{
attr = {
fillColor = (0,255);
};
closed = 1;
nodes = (
(350,0,l),
(350,-100,l),
(250,-100,l),
(250,0,l)
);
},
{
attr = {
fillColor = (0,255);
};
closed = 1;
nodes = (
(450,100,l),
(450,0,l),
(350,0,l),
(350,100,l)
);
},
{
attr = {
fillColor = (0,255);
};
closed = 1;
nodes = (
(550,200,l),
(550,100,l),
(450,100,l),
(450,200,l)
);
},
{
attr = {
fillColor = (0,255);
};
closed = 1;
nodes = (
(150,200,l),
(150,100,l),
(50,100,l),
(50,200,l)
);
},
{
attr = {
fillColor = (0,255);
};
closed = 1;
nodes = (
(650,200,l),
(650,100,l),
(550,100,l),
(550,200,l)
);
},
{
attr = {
fillColor = (0,255);
};
closed = 1;
nodes = (
(250,300,l),
(250,200,l),
(150,200,l),
(150,300,l)
);
},
{
attr = {
fillColor = (0,255);
};
closed = 1;
nodes = (
(650,300,l),
(650,200,l),
(550,200,l),
(550,300,l)
);
}
);
width = 800;
}
);
unicode = 12410;
},
{
glyphname = "ho-hira";
lastChange = "2021-03-08 04:06:43 +0000";
layers = (
{
layerId = m01;
shapes = (
{
attr = {
fillColor = (0,255);
};
closed = 1;
nodes = (
(550,400,l),
(550,300,l),
(450,300,l),
(450,400,l)
);
},
{
attr = {
fillColor = (0,255);
};
closed = 1;
nodes = (
(350,400,l),
(350,300,l),
(250,300,l),
(250,400,l)
);
},
{
attr = {
fillColor = (0,255);
};
closed = 1;
nodes = (
(650,400,l),
(650,300,l),
(550,300,l),
(550,400,l)
);
},
{
attr = {
fillColor = (0,255);
};
closed = 1;
nodes = (
(550,500,l),
(550,400,l),
(450,400,l),
(450,500,l)
);
},
{
attr = {
fillColor = (0,255);
};
closed = 1;
nodes = (
(450,600,l),
(450,500,l),
(350,500,l),
(350,600,l)
);
},
{
attr = {
fillColor = (0,255);
};
closed = 1;
nodes = (
(350,600,l),
(350,500,l),
(250,500,l),
(250,600,l)
);
},
{
attr = {
fillColor = (0,255);
};
closed = 1;
nodes = (
(550,700,l),
(550,600,l),
(450,600,l),
(450,700,l)
);
},
{
attr = {
fillColor = (0,255);
};
closed = 1;
nodes = (
(550,800,l),
(550,700,l),
(450,700,l),
(450,800,l)
);
},
{
attr = {
fillColor = (0,255);
};
closed = 1;
nodes = (
(850,-100,l),
(850,-200,l),
(750,-200,l),
(750,-100,l)
);
},
{
attr = {
fillColor = (0,255);
};
closed = 1;
nodes = (
(750,-100,l),
(750,-200,l),
(650,-200,l),
(650,-100,l)
);
},
{
attr = {
fillColor = (0,255);
};
closed = 1;
nodes = (
(150,0,l),
(150,-100,l),
(50,-100,l),
(50,0,l)
);
},
{
attr = {
fillColor = (0,255);
};
closed = 1;
nodes = (
(950,0,l),
(950,-100,l),
(850,-100,l),
(850,0,l)
);
},
{
attr = {
fillColor = (0,255);
};
closed = 1;
nodes = (
(650,0,l),
(650,-100,l),
(550,-100,l),
(550,0,l)
);
},
{
attr = {
fillColor = (0,255);
};
closed = 1;
nodes = (
(550,100,l),
(550,0,l),
(450,0,l),
(450,100,l)
);
},
{
attr = {
fillColor = (0,255);
};
closed = 1;
nodes = (
(250,100,l),
(250,0,l),
(150,0,l),
(150,100,l)
);
},
{
attr = {
fillColor = (0,255);
};
closed = 1;
nodes = (
(550,200,l),
(550,100,l),
(450,100,l),
(450,200,l)
);
},
{
attr = {
fillColor = (0,255);
};
closed = 1;
nodes = (
(350,200,l),
(350,100,l),
(250,100,l),
(250,200,l)
);
},
{
attr = {
fillColor = (0,255);
};
closed = 1;
nodes = (
(550,300,l),
(550,200,l),
(450,200,l),
(450,300,l)
);
},
{
attr = {
fillColor = (0,255);
};
closed = 1;
nodes = (
(450,300,l),
(450,200,l),
(350,200,l),
(350,300,l)
);
},
{
attr = {
fillColor = (0,255);
};
closed = 1;
nodes = (
(250,300,l),
(250,200,l),
(150,200,l),
(150,300,l)
);
}
);
width = 1000;
}
);
unicode = 12411;
},
{
glyphname = "bo-hira";
lastChange = "2021-03-12 13:03:24 +0000";
layers = (
{
layerId = m01;
shapes = (
{
attr = {
fillColor = (0,255);
};
closed = 1;
nodes = (
(550,400,l),
(550,300,l),
(450,300,l),
(450,400,l)
);
},
{
attr = {
fillColor = (0,255);
};
closed = 1;
nodes = (
(550,500,l),
(550,400,l),
(450,400,l),
(450,500,l)
);
},
{
attr = {
fillColor = (0,255);
};
closed = 1;
nodes = (
(350,500,l),
(350,400,l),
(250,400,l),
(250,500,l)
);
},
{
attr = {
fillColor = (0,255);
};
closed = 1;
nodes = (
(850,500,l),
(850,400,l),
(750,400,l),
(750,500,l)
);
},
{
attr = {
fillColor = (0,255);
};
closed = 1;
nodes = (
(750,500,l),
(750,400,l),
(650,400,l),
(650,500,l)
);
},
{
attr = {
fillColor = (0,255);
};
closed = 1;
nodes = (
(450,600,l),
(450,500,l),
(350,500,l),
(350,600,l)
);
},
{
attr = {
fillColor = (0,255);
};
closed = 1;
nodes = (
(550,700,l),
(550,600,l),
(450,600,l),
(450,700,l)
);
},
{
attr = {
fillColor = (0,255);
};
closed = 1;
nodes = (
(550,800,l),
(550,700,l),
(450,700,l),
(450,800,l)
);
},
{
attr = {
fillColor = (0,255);
};
closed = 1;
nodes = (
(150,-100,l),
(150,-200,l),
(50,-200,l),
(50,-100,l)
);
},
{
attr = {
fillColor = (0,255);
};
closed = 1;
nodes = (
(850,-100,l),
(850,-200,l),
(750,-200,l),
(750,-100,l)
);
},
{
attr = {
fillColor = (0,255);
};
closed = 1;
nodes = (
(750,-100,l),
(750,-200,l),
(650,-200,l),
(650,-100,l)
);
},
{
attr = {
fillColor = (0,255);
};
closed = 1;
nodes = (
(250,0,l),
(250,-100,l),
(150,-100,l),
(150,0,l)
);
},
{
attr = {
fillColor = (0,255);
};
closed = 1;
nodes = (
(950,0,l),
(950,-100,l),
(850,-100,l),
(850,0,l)
);
},
{
attr = {
fillColor = (0,255);
};
closed = 1;
nodes = (
(650,0,l),
(650,-100,l),
(550,-100,l),
(550,0,l)
);
},
{
attr = {
fillColor = (0,255);
};
closed = 1;
nodes = (
(550,100,l),
(550,0,l),
(450,0,l),
(450,100,l)
);
},
{
attr = {
fillColor = (0,255);
};
closed = 1;
nodes = (
(250,100,l),
(250,0,l),
(150,0,l),
(150,100,l)
);
},
{
attr = {
fillColor = (0,255);
};
closed = 1;
nodes = (
(150,100,l),
(150,0,l),
(50,0,l),
(50,100,l)
);
},
{
attr = {
fillColor = (0,255);
};
closed = 1;
nodes = (
(550,200,l),
(550,100,l),
(450,100,l),
(450,200,l)
);
},
{
attr = {
fillColor = (0,255);
};
closed = 1;
nodes = (
(350,200,l),
(350,100,l),
(250,100,l),
(250,200,l)
);
},
{
attr = {
fillColor = (0,255);
};
closed = 1;
nodes = (
(250,200,l),
(250,100,l),
(150,100,l),
(150,200,l)
);
},
{
attr = {
fillColor = (0,255);
};
closed = 1;
nodes = (
(550,300,l),
(550,200,l),
(450,200,l),
(450,300,l)
);
},
{
attr = {
fillColor = (0,255);
};
closed = 1;
nodes = (
(250,300,l),
(250,200,l),
(150,200,l),
(150,300,l)
);
}
);
width = 1000;
}
);
unicode = 12412;
},
{
glyphname = "po-hira";
lastChange = "2021-03-14 10:10:41 +0000";
layers = (
{
layerId = m01;
shapes = (
{
attr = {
fillColor = (0,255);
};
closed = 1;
nodes = (
(550,400,l),
(550,300,l),
(450,300,l),
(450,400,l)
);
},
{
attr = {
fillColor = (0,255);
};
closed = 1;
nodes = (
(350,400,l),
(350,300,l),
(250,300,l),
(250,400,l)
);
},
{
attr = {
fillColor = (0,255);
};
closed = 1;
nodes = (
(650,400,l),
(650,300,l),
(550,300,l),
(550,400,l)
);
},
{
attr = {
fillColor = (0,255);
};
closed = 1;
nodes = (
(550,500,l),
(550,400,l),
(450,400,l),
(450,500,l)
);
},
{
attr = {
fillColor = (0,255);
};
closed = 1;
nodes = (
(450,600,l),
(450,500,l),
(350,500,l),
(350,600,l)
);
},
{
attr = {
fillColor = (0,255);
};
closed = 1;
nodes = (
(350,600,l),
(350,500,l),
(250,500,l),
(250,600,l)
);
},
{
attr = {
fillColor = (0,255);
};
closed = 1;
nodes = (
(750,600,l),
(750,500,l),
(650,500,l),
(650,600,l)
);
},
{
attr = {
fillColor = (0,255);
};
closed = 1;
nodes = (
(650,600,l),
(650,500,l),
(550,500,l),
(550,600,l)
);
},
{
attr = {
fillColor = (0,255);
};
closed = 1;
nodes = (
(450,700,l),
(450,600,l),
(350,600,l),
(350,700,l)
);
},
{
attr = {
fillColor = (0,255);
};
closed = 1;
nodes = (
(550,800,l),
(550,700,l),
(450,700,l),
(450,800,l)
);
},
{
attr = {
fillColor = (0,255);
};
closed = 1;
nodes = (
(850,-100,l),
(850,-200,l),
(750,-200,l),
(750,-100,l)
);
},
{
attr = {
fillColor = (0,255);
};
closed = 1;
nodes = (
(750,-100,l),
(750,-200,l),
(650,-200,l),
(650,-100,l)
);
},
{
attr = {
fillColor = (0,255);
};
closed = 1;
nodes = (
(150,0,l),
(150,-100,l),
(50,-100,l),
(50,0,l)
);
},
{
attr = {
fillColor = (0,255);
};
closed = 1;
nodes = (
(950,0,l),
(950,-100,l),
(850,-100,l),
(850,0,l)
);
},
{
attr = {
fillColor = (0,255);
};
closed = 1;
nodes = (
(650,0,l),
(650,-100,l),
(550,-100,l),
(550,0,l)
);
},
{
attr = {
fillColor = (0,255);
};
closed = 1;
nodes = (
(550,100,l),
(550,0,l),
(450,0,l),
(450,100,l)
);
},
{
attr = {
fillColor = (0,255);
};
closed = 1;
nodes = (
(250,100,l),
(250,0,l),
(150,0,l),
(150,100,l)
);
},
{
attr = {
fillColor = (0,255);
};
closed = 1;
nodes = (
(550,200,l),
(550,100,l),
(450,100,l),
(450,200,l)
);
},
{
attr = {
fillColor = (0,255);
};
closed = 1;
nodes = (
(350,200,l),
(350,100,l),
(250,100,l),
(250,200,l)
);
},
{
attr = {
fillColor = (0,255);
};
closed = 1;
nodes = (
(550,300,l),
(550,200,l),
(450,200,l),
(450,300,l)
);
},
{
attr = {
fillColor = (0,255);
};
closed = 1;
nodes = (
(450,300,l),
(450,200,l),
(350,200,l),
(350,300,l)
);
},
{
attr = {
fillColor = (0,255);
};
closed = 1;
nodes = (
(250,300,l),
(250,200,l),
(150,200,l),
(150,300,l)
);
}
);
width = 1000;
}
);
unicode = 12413;
},
{
glyphname = "ma-hira";
lastChange = "2021-03-11 00:05:44 +0000";
layers = (
{
layerId = m01;
shapes = (
{
attr = {
fillColor = (0,255);
};
closed = 1;
nodes = (
(550,400,l),
(550,300,l),
(450,300,l),
(450,400,l)
);
},
{
attr = {
fillColor = (0,255);
};
closed = 1;
nodes = (
(350,400,l),
(350,300,l),
(250,300,l),
(250,400,l)
);
},
{
attr = {
fillColor = (0,255);
};
closed = 1;
nodes = (
(750,400,l),
(750,300,l),
(650,300,l),
(650,400,l)
);
},
{
attr = {
fillColor = (0,255);
};
closed = 1;
nodes = (
(650,400,l),
(650,300,l),
(550,300,l),
(550,400,l)
);
},
{
attr = {
fillColor = (0,255);
};
closed = 1;
nodes = (
(550,500,l),
(550,400,l),
(450,400,l),
(450,500,l)
);
},
{
attr = {
fillColor = (0,255);
};
closed = 1;
nodes = (
(450,500,l),
(450,400,l),
(350,400,l),
(350,500,l)
);
},
{
attr = {
fillColor = (0,255);
};
closed = 1;
nodes = (
(550,600,l),
(550,500,l),
(450,500,l),
(450,600,l)
);
},
{
attr = {
fillColor = (0,255);
};
closed = 1;
nodes = (
(450,600,l),
(450,500,l),
(350,500,l),
(350,600,l)
);
},
{
attr = {
fillColor = (0,255);
};
closed = 1;
nodes = (
(350,600,l),
(350,500,l),
(250,500,l),
(250,600,l)
);
},
{
attr = {
fillColor = (0,255);
};
closed = 1;
nodes = (
(250,600,l),
(250,500,l),
(150,500,l),
(150,600,l)
);
},
{
attr = {
fillColor = (0,255);
};
closed = 1;
nodes = (
(550,700,l),
(550,600,l),
(450,600,l),
(450,700,l)
);
},
{
attr = {
fillColor = (0,255);
};
closed = 1;
nodes = (
(650,700,l),
(650,600,l),
(550,600,l),
(550,700,l)
);
},
{
attr = {
fillColor = (0,255);
};
closed = 1;
nodes = (
(550,800,l),
(550,700,l),
(450,700,l),
(450,800,l)
);
},
{
attr = {
fillColor = (0,255);
};
closed = 1;
nodes = (
(350,-100,l),
(350,-200,l),
(250,-200,l),
(250,-100,l)
);
},
{
attr = {
fillColor = (0,255);
};
closed = 1;
nodes = (
(450,0,l),
(450,-100,l),
(350,-100,l),
(350,0,l)
);
},
{
attr = {
fillColor = (0,255);
};
closed = 1;
nodes = (
(550,100,l),
(550,0,l),
(450,0,l),
(450,100,l)
);
},
{
attr = {
fillColor = (0,255);
};
closed = 1;
nodes = (
(550,200,l),
(550,100,l),
(450,100,l),
(450,200,l)
);
},
{
attr = {
fillColor = (0,255);
};
closed = 1;
nodes = (
(150,200,l),
(150,100,l),
(50,100,l),
(50,200,l)
);
},
{
attr = {
fillColor = (0,255);
};
closed = 1;
nodes = (
(550,300,l),
(550,200,l),
(450,200,l),
(450,300,l)
);
},
{
attr = {
fillColor = (0,255);
};
closed = 1;
nodes = (
(450,300,l),
(450,200,l),
(350,200,l),
(350,300,l)
);
},
{
attr = {
fillColor = (0,255);
};
closed = 1;
nodes = (
(350,300,l),
(350,200,l),
(250,200,l),
(250,300,l)
);
},
{
attr = {
fillColor = (0,255);
};
closed = 1;
nodes = (
(250,300,l),
(250,200,l),
(150,200,l),
(150,300,l)
);
}
);
width = 800;
}
);
unicode = 12414;
},
{
glyphname = "mi-hira";
lastChange = "2021-03-11 00:06:04 +0000";
layers = (
{
layerId = m01;
shapes = (
{
attr = {
fillColor = (0,255);
};
closed = 1;
nodes = (
(550,400,l),
(550,300,l),
(450,300,l),
(450,400,l)
);
},
{
attr = {
fillColor = (0,255);
};
closed = 1;
nodes = (
(450,400,l),
(450,300,l),
(350,300,l),
(350,400,l)
);
},
{
attr = {
fillColor = (0,255);
};
closed = 1;
nodes = (
(650,400,l),
(650,300,l),
(550,300,l),
(550,400,l)
);
},
{
attr = {
fillColor = (0,255);
};
closed = 1;
nodes = (
(550,500,l),
(550,400,l),
(450,400,l),
(450,500,l)
);
},
{
attr = {
fillColor = (0,255);
};
closed = 1;
nodes = (
(350,500,l),
(350,400,l),
(250,400,l),
(250,500,l)
);
},
{
attr = {
fillColor = (0,255);
};
closed = 1;
nodes = (
(550,600,l),
(550,500,l),
(450,500,l),
(450,600,l)
);
},
{
attr = {
fillColor = (0,255);
};
closed = 1;
nodes = (
(450,600,l),
(450,500,l),
(350,500,l),
(350,600,l)
);
},
{
attr = {
fillColor = (0,255);
};
closed = 1;
nodes = (
(350,600,l),
(350,500,l),
(250,500,l),
(250,600,l)
);
},
{
attr = {
fillColor = (0,255);
};
closed = 1;
nodes = (
(250,600,l),
(250,500,l),
(150,500,l),
(150,600,l)
);
},
{
attr = {
fillColor = (0,255);
};
closed = 1;
nodes = (
(550,700,l),
(550,600,l),
(450,600,l),
(450,700,l)
);
},
{
attr = {
fillColor = (0,255);
};
closed = 1;
nodes = (
(650,700,l),
(650,600,l),
(550,600,l),
(550,700,l)
);
},
{
attr = {
fillColor = (0,255);
};
closed = 1;
nodes = (
(550,800,l),
(550,700,l),
(450,700,l),
(450,800,l)
);
},
{
attr = {
fillColor = (0,255);
};
closed = 1;
nodes = (
(850,-100,l),
(850,-200,l),
(750,-200,l),
(750,-100,l)
);
},
{
attr = {
fillColor = (0,255);
};
closed = 1;
nodes = (
(750,-100,l),
(750,-200,l),
(650,-200,l),
(650,-100,l)
);
},
{
attr = {
fillColor = (0,255);
};
closed = 1;
nodes = (
(650,-100,l),
(650,-200,l),
(550,-200,l),
(550,-100,l)
);
},
{
attr = {
fillColor = (0,255);
};
closed = 1;
nodes = (
(550,0,l),
(550,-100,l),
(450,-100,l),
(450,0,l)
);
},
{
attr = {
fillColor = (0,255);
};
closed = 1;
nodes = (
(450,100,l),
(450,0,l),
(350,0,l),
(350,100,l)
);
},
{
attr = {
fillColor = (0,255);
};
closed = 1;
nodes = (
(550,200,l),
(550,100,l),
(450,100,l),
(450,200,l)
);
},
{
attr = {
fillColor = (0,255);
};
closed = 1;
nodes = (
(350,300,l),
(350,200,l),
(250,200,l),
(250,300,l)
);
},
{
attr = {
fillColor = (0,255);
};
closed = 1;
nodes = (
(250,300,l),
(250,200,l),
(150,200,l),
(150,300,l)
);
},
{
attr = {
fillColor = (0,255);
};
closed = 1;
nodes = (
(150,300,l),
(150,200,l),
(50,200,l),
(50,300,l)
);
},
{
attr = {
fillColor = (0,255);
};
closed = 1;
nodes = (
(650,300,l),
(650,200,l),
(550,200,l),
(550,300,l)
);
}
);
width = 900;
}
);
unicode = 12415;
},
{
glyphname = "mu-hira";
lastChange = "2021-03-11 00:06:24 +0000";
layers = (
{
layerId = m01;
shapes = (
{
attr = {
fillColor = (0,255);
};
closed = 1;
nodes = (
(550,400,l),
(550,300,l),
(450,300,l),
(450,400,l)
);
},
{
attr = {
fillColor = (0,255);
};
closed = 1;
nodes = (
(450,400,l),
(450,300,l),
(350,300,l),
(350,400,l)
);
},
{
attr = {
fillColor = (0,255);
};
closed = 1;
nodes = (
(250,400,l),
(250,300,l),
(150,300,l),
(150,400,l)
);
},
{
attr = {
fillColor = (0,255);
};
closed = 1;
nodes = (
(550,500,l),
(550,400,l),
(450,400,l),
(450,500,l)
);
},
{
attr = {
fillColor = (0,255);
};
closed = 1;
nodes = (
(250,500,l),
(250,400,l),
(150,400,l),
(150,500,l)
);
},
{
attr = {
fillColor = (0,255);
};
closed = 1;
nodes = (
(150,500,l),
(150,400,l),
(50,400,l),
(50,500,l)
);
},
{
attr = {
fillColor = (0,255);
};
closed = 1;
nodes = (
(750,500,l),
(750,400,l),
(650,400,l),
(650,500,l)
);
},
{
attr = {
fillColor = (0,255);
};
closed = 1;
nodes = (
(650,500,l),
(650,400,l),
(550,400,l),
(550,500,l)
);
},
{
attr = {
fillColor = (0,255);
};
closed = 1;
nodes = (
(550,600,l),
(550,500,l),
(450,500,l),
(450,600,l)
);
},
{
attr = {
fillColor = (0,255);
};
closed = 1;
nodes = (
(550,700,l),
(550,600,l),
(450,600,l),
(450,700,l)
);
},
{
attr = {
fillColor = (0,255);
};
closed = 1;
nodes = (
(350,700,l),
(350,600,l),
(250,600,l),
(250,700,l)
);
},
{
attr = {
fillColor = (0,255);
};
closed = 1;
nodes = (
(550,800,l),
(550,700,l),
(450,700,l),
(450,800,l)
);
},
{
attr = {
fillColor = (0,255);
};
closed = 1;
nodes = (
(550,-100,l),
(550,-200,l),
(450,-200,l),
(450,-100,l)
);
},
{
attr = {
fillColor = (0,255);
};
closed = 1;
nodes = (
(550,0,l),
(550,-100,l),
(450,-100,l),
(450,0,l)
);
},
{
attr = {
fillColor = (0,255);
};
closed = 1;
nodes = (
(550,100,l),
(550,0,l),
(450,0,l),
(450,100,l)
);
},
{
attr = {
fillColor = (0,255);
};
closed = 1;
nodes = (
(550,200,l),
(550,100,l),
(450,100,l),
(450,200,l)
);
},
{
attr = {
fillColor = (0,255);
};
closed = 1;
nodes = (
(550,300,l),
(550,200,l),
(450,200,l),
(450,300,l)
);
},
{
attr = {
fillColor = (0,255);
};
closed = 1;
nodes = (
(350,300,l),
(350,200,l),
(250,200,l),
(250,300,l)
);
},
{
attr = {
fillColor = (0,255);
};
closed = 1;
nodes = (
(250,300,l),
(250,200,l),
(150,200,l),
(150,300,l)
);
},
{
attr = {
fillColor = (0,255);
};
closed = 1;
nodes = (
(150,300,l),
(150,200,l),
(50,200,l),
(50,300,l)
);
}
);
width = 800;
}
);
unicode = 12416;
},
{
glyphname = "me-hira";
lastChange = "2021-03-11 00:06:45 +0000";
layers = (
{
layerId = m01;
shapes = (
{
attr = {
fillColor = (0,255);
};
closed = 1;
nodes = (
(450,400,l),
(450,300,l),
(350,300,l),
(350,400,l)
);
},
{
attr = {
fillColor = (0,255);
};
closed = 1;
nodes = (
(250,400,l),
(250,300,l),
(150,300,l),
(150,400,l)
);
},
{
attr = {
fillColor = (0,255);
};
closed = 1;
nodes = (
(150,400,l),
(150,300,l),
(50,300,l),
(50,400,l)
);
},
{
attr = {
fillColor = (0,255);
};
closed = 1;
nodes = (
(450,500,l),
(450,400,l),
(350,400,l),
(350,500,l)
);
},
{
attr = {
fillColor = (0,255);
};
closed = 1;
nodes = (
(350,500,l),
(350,400,l),
(250,400,l),
(250,500,l)
);
},
{
attr = {
fillColor = (0,255);
};
closed = 1;
nodes = (
(250,500,l),
(250,400,l),
(150,400,l),
(150,500,l)
);
},
{
attr = {
fillColor = (0,255);
};
closed = 1;
nodes = (
(550,600,l),
(550,500,l),
(450,500,l),
(450,600,l)
);
},
{
attr = {
fillColor = (0,255);
};
closed = 1;
nodes = (
(450,600,l),
(450,500,l),
(350,500,l),
(350,600,l)
);
},
{
attr = {
fillColor = (0,255);
};
closed = 1;
nodes = (
(250,600,l),
(250,500,l),
(150,500,l),
(150,600,l)
);
},
{
attr = {
fillColor = (0,255);
};
closed = 1;
nodes = (
(150,600,l),
(150,500,l),
(50,500,l),
(50,600,l)
);
},
{
attr = {
fillColor = (0,255);
};
closed = 1;
nodes = (
(650,600,l),
(650,500,l),
(550,500,l),
(550,600,l)
);
},
{
attr = {
fillColor = (0,255);
};
closed = 1;
nodes = (
(450,700,l),
(450,600,l),
(350,600,l),
(350,700,l)
);
},
{
attr = {
fillColor = (0,255);
};
closed = 1;
nodes = (
(450,800,l),
(450,700,l),
(350,700,l),
(350,800,l)
);
},
{
attr = {
fillColor = (0,255);
};
closed = 1;
nodes = (
(350,-100,l),
(350,-200,l),
(250,-200,l),
(250,-100,l)
);
},
{
attr = {
fillColor = (0,255);
};
closed = 1;
nodes = (
(350,0,l),
(350,-100,l),
(250,-100,l),
(250,0,l)
);
},
{
attr = {
fillColor = (0,255);
};
closed = 1;
nodes = (
(550,100,l),
(550,0,l),
(450,0,l),
(450,100,l)
);
},
{
attr = {
fillColor = (0,255);
};
closed = 1;
nodes = (
(450,100,l),
(450,0,l),
(350,0,l),
(350,100,l)
);
},
{
attr = {
fillColor = (0,255);
};
closed = 1;
nodes = (
(650,200,l),
(650,100,l),
(550,100,l),
(550,200,l)
);
},
{
attr = {
fillColor = (0,255);
};
closed = 1;
nodes = (
(550,300,l),
(550,200,l),
(450,200,l),
(450,300,l)
);
},
{
attr = {
fillColor = (0,255);
};
closed = 1;
nodes = (
(650,300,l),
(650,200,l),
(550,200,l),
(550,300,l)
);
}
);
width = 700;
}
);
unicode = 12417;
},
{
glyphname = "mo-hira";
lastChange = "2021-03-11 00:07:16 +0000";
layers = (
{
layerId = m01;
shapes = (
{
attr = {
fillColor = (0,255);
};
closed = 1;
nodes = (
(550,400,l),
(550,300,l),
(450,300,l),
(450,400,l)
);
},
{
attr = {
fillColor = (0,255);
};
closed = 1;
nodes = (
(350,400,l),
(350,300,l),
(250,300,l),
(250,400,l)
);
},
{
attr = {
fillColor = (0,255);
};
closed = 1;
nodes = (
(250,400,l),
(250,300,l),
(150,300,l),
(150,400,l)
);
},
{
attr = {
fillColor = (0,255);
};
closed = 1;
nodes = (
(150,400,l),
(150,300,l),
(50,300,l),
(50,400,l)
);
},
{
attr = {
fillColor = (0,255);
};
closed = 1;
nodes = (
(550,500,l),
(550,400,l),
(450,400,l),
(450,500,l)
);
},
{
attr = {
fillColor = (0,255);
};
closed = 1;
nodes = (
(450,600,l),
(450,500,l),
(350,500,l),
(350,600,l)
);
},
{
attr = {
fillColor = (0,255);
};
closed = 1;
nodes = (
(350,600,l),
(350,500,l),
(250,500,l),
(250,600,l)
);
},
{
attr = {
fillColor = (0,255);
};
closed = 1;
nodes = (
(250,600,l),
(250,500,l),
(150,500,l),
(150,600,l)
);
},
{
attr = {
fillColor = (0,255);
};
closed = 1;
nodes = (
(550,700,l),
(550,600,l),
(450,600,l),
(450,700,l)
);
},
{
attr = {
fillColor = (0,255);
};
closed = 1;
nodes = (
(450,700,l),
(450,600,l),
(350,600,l),
(350,700,l)
);
},
{
attr = {
fillColor = (0,255);
};
closed = 1;
nodes = (
(350,700,l),
(350,600,l),
(250,600,l),
(250,700,l)
);
},
{
attr = {
fillColor = (0,255);
};
closed = 1;
nodes = (
(650,800,l),
(650,700,l),
(550,700,l),
(550,800,l)
);
},
{
attr = {
fillColor = (0,255);
};
closed = 1;
nodes = (
(750,-100,l),
(750,-200,l),
(650,-200,l),
(650,-100,l)
);
},
{
attr = {
fillColor = (0,255);
};
closed = 1;
nodes = (
(650,-100,l),
(650,-200,l),
(550,-200,l),
(550,-100,l)
);
},
{
attr = {
fillColor = (0,255);
};
closed = 1;
nodes = (
(550,0,l),
(550,-100,l),
(450,-100,l),
(450,0,l)
);
},
{
attr = {
fillColor = (0,255);
};
closed = 1;
nodes = (
(850,0,l),
(850,-100,l),
(750,-100,l),
(750,0,l)
);
},
{
attr = {
fillColor = (0,255);
};
closed = 1;
nodes = (
(450,100,l),
(450,0,l),
(350,0,l),
(350,100,l)
);
},
{
attr = {
fillColor = (0,255);
};
closed = 1;
nodes = (
(450,200,l),
(450,100,l),
(350,100,l),
(350,200,l)
);
},
{
attr = {
fillColor = (0,255);
};
closed = 1;
nodes = (
(350,200,l),
(350,100,l),
(250,100,l),
(250,200,l)
);
},
{
attr = {
fillColor = (0,255);
};
closed = 1;
nodes = (
(250,200,l),
(250,100,l),
(150,100,l),
(150,200,l)
);
},
{
attr = {
fillColor = (0,255);
};
closed = 1;
nodes = (
(150,200,l),
(150,100,l),
(50,100,l),
(50,200,l)
);
},
{
attr = {
fillColor = (0,255);
};
closed = 1;
nodes = (
(450,300,l),
(450,200,l),
(350,200,l),
(350,300,l)
);
},
{
attr = {
fillColor = (0,255);
};
closed = 1;
nodes = (
(250,300,l),
(250,200,l),
(150,200,l),
(150,300,l)
);
}
);
width = 900;
}
);
unicode = 12418;
},
{
glyphname = "ya-hira";
lastChange = "2021-03-11 00:08:07 +0000";
layers = (
{
layerId = m01;
shapes = (
{
attr = {
fillColor = (0,255);
};
closed = 1;
nodes = (
(450,400,l),
(450,300,l),
(350,300,l),
(350,400,l)
);
},
{
attr = {
fillColor = (0,255);
};
closed = 1;
nodes = (
(250,400,l),
(250,300,l),
(150,300,l),
(150,400,l)
);
},
{
attr = {
fillColor = (0,255);
};
closed = 1;
nodes = (
(750,400,l),
(750,300,l),
(650,300,l),
(650,400,l)
);
},
{
attr = {
fillColor = (0,255);
};
closed = 1;
nodes = (
(450,500,l),
(450,400,l),
(350,400,l),
(350,500,l)
);
},
{
attr = {
fillColor = (0,255);
};
closed = 1;
nodes = (
(350,500,l),
(350,400,l),
(250,400,l),
(250,500,l)
);
},
{
attr = {
fillColor = (0,255);
};
closed = 1;
nodes = (
(250,500,l),
(250,400,l),
(150,400,l),
(150,500,l)
);
},
{
attr = {
fillColor = (0,255);
};
closed = 1;
nodes = (
(150,500,l),
(150,400,l),
(50,400,l),
(50,500,l)
);
},
{
attr = {
fillColor = (0,255);
};
closed = 1;
nodes = (
(450,600,l),
(450,500,l),
(350,500,l),
(350,600,l)
);
},
{
attr = {
fillColor = (0,255);
};
closed = 1;
nodes = (
(450,700,l),
(450,600,l),
(350,600,l),
(350,700,l)
);
},
{
attr = {
fillColor = (0,255);
};
closed = 1;
nodes = (
(450,800,l),
(450,700,l),
(350,700,l),
(350,800,l)
);
},
{
attr = {
fillColor = (0,255);
};
closed = 1;
nodes = (
(350,800,l),
(350,700,l),
(250,700,l),
(250,800,l)
);
},
{
attr = {
fillColor = (0,255);
};
closed = 1;
nodes = (
(450,-100,l),
(450,-200,l),
(350,-200,l),
(350,-100,l)
);
},
{
attr = {
fillColor = (0,255);
};
closed = 1;
nodes = (
(450,0,l),
(450,-100,l),
(350,-100,l),
(350,0,l)
);
},
{
attr = {
fillColor = (0,255);
};
closed = 1;
nodes = (
(450,100,l),
(450,0,l),
(350,0,l),
(350,100,l)
);
},
{
attr = {
fillColor = (0,255);
};
closed = 1;
nodes = (
(150,100,l),
(150,0,l),
(50,0,l),
(50,100,l)
);
},
{
attr = {
fillColor = (0,255);
};
closed = 1;
nodes = (
(550,200,l),
(550,100,l),
(450,100,l),
(450,200,l)
);
},
{
attr = {
fillColor = (0,255);
};
closed = 1;
nodes = (
(450,200,l),
(450,100,l),
(350,100,l),
(350,200,l)
);
},
{
attr = {
fillColor = (0,255);
};
closed = 1;
nodes = (
(250,200,l),
(250,100,l),
(150,100,l),
(150,200,l)
);
},
{
attr = {
fillColor = (0,255);
};
closed = 1;
nodes = (
(450,300,l),
(450,200,l),
(350,200,l),
(350,300,l)
);
},
{
attr = {
fillColor = (0,255);
};
closed = 1;
nodes = (
(350,300,l),
(350,200,l),
(250,200,l),
(250,300,l)
);
},
{
attr = {
fillColor = (0,255);
};
closed = 1;
nodes = (
(650,300,l),
(650,200,l),
(550,200,l),
(550,300,l)
);
}
);
width = 800;
}
);
unicode = 12420;
},
{
glyphname = "yasmall-hira";
lastChange = "2021-03-14 11:05:56 +0000";
layers = (
{
layerId = m01;
shapes = (
{
attr = {
fillColor = (0,255);
};
closed = 1;
nodes = (
(350,290,l),
(350,190,l),
(250,190,l),
(250,290,l)
);
},
{
attr = {
fillColor = (0,255);
};
closed = 1;
nodes = (
(350,390,l),
(350,290,l),
(250,290,l),
(250,390,l)
);
},
{
attr = {
fillColor = (0,255);
};
closed = 1;
nodes = (
(250,390,l),
(250,290,l),
(150,290,l),
(150,390,l)
);
},
{
attr = {
fillColor = (0,255);
};
closed = 1;
nodes = (
(450,490,l),
(450,390,l),
(350,390,l),
(350,490,l)
);
},
{
attr = {
fillColor = (0,255);
};
closed = 1;
nodes = (
(250,-10,l),
(250,-110,l),
(150,-110,l),
(150,-10,l)
);
},
{
attr = {
fillColor = (0,255);
};
closed = 1;
nodes = (
(350,90,l),
(350,-10,l),
(250,-10,l),
(250,90,l)
);
},
{
attr = {
fillColor = (0,255);
};
closed = 1;
nodes = (
(150,90,l),
(150,-10,l),
(50,-10,l),
(50,90,l)
);
},
{
attr = {
fillColor = (0,255);
};
closed = 1;
nodes = (
(450,190,l),
(450,90,l),
(350,90,l),
(350,190,l)
);
},
{
attr = {
fillColor = (0,255);
};
closed = 1;
nodes = (
(250,190,l),
(250,90,l),
(150,90,l),
(150,190,l)
);
}
);
width = 500;
}
);
unicode = 12419;
},
{
glyphname = "yu-hira";
lastChange = "2021-03-11 00:11:20 +0000";
layers = (
{
layerId = m01;
shapes = (
{
attr = {
fillColor = (0,255);
};
closed = 1;
nodes = (
(550,400,l),
(550,300,l),
(450,300,l),
(450,400,l)
);
},
{
attr = {
fillColor = (0,255);
};
closed = 1;
nodes = (
(450,400,l),
(450,300,l),
(350,300,l),
(350,400,l)
);
},
{
attr = {
fillColor = (0,255);
};
closed = 1;
nodes = (
(650,400,l),
(650,300,l),
(550,300,l),
(550,400,l)
);
},
{
attr = {
fillColor = (0,255);
};
closed = 1;
nodes = (
(450,500,l),
(450,400,l),
(350,400,l),
(350,500,l)
);
},
{
attr = {
fillColor = (0,255);
};
closed = 1;
nodes = (
(250,500,l),
(250,400,l),
(150,400,l),
(150,500,l)
);
},
{
attr = {
fillColor = (0,255);
};
closed = 1;
nodes = (
(150,500,l),
(150,400,l),
(50,400,l),
(50,500,l)
);
},
{
attr = {
fillColor = (0,255);
};
closed = 1;
nodes = (
(550,600,l),
(550,500,l),
(450,500,l),
(450,600,l)
);
},
{
attr = {
fillColor = (0,255);
};
closed = 1;
nodes = (
(450,600,l),
(450,500,l),
(350,500,l),
(350,600,l)
);
},
{
attr = {
fillColor = (0,255);
};
closed = 1;
nodes = (
(350,600,l),
(350,500,l),
(250,500,l),
(250,600,l)
);
},
{
attr = {
fillColor = (0,255);
};
closed = 1;
nodes = (
(150,600,l),
(150,500,l),
(50,500,l),
(50,600,l)
);
},
{
attr = {
fillColor = (0,255);
};
closed = 1;
nodes = (
(550,700,l),
(550,600,l),
(450,600,l),
(450,700,l)
);
},
{
attr = {
fillColor = (0,255);
};
closed = 1;
nodes = (
(850,700,l),
(850,600,l),
(750,600,l),
(750,700,l)
);
},
{
attr = {
fillColor = (0,255);
};
closed = 1;
nodes = (
(750,700,l),
(750,600,l),
(650,600,l),
(650,700,l)
);
},
{
attr = {
fillColor = (0,255);
};
closed = 1;
nodes = (
(650,700,l),
(650,600,l),
(550,600,l),
(550,700,l)
);
},
{
attr = {
fillColor = (0,255);
};
closed = 1;
nodes = (
(450,800,l),
(450,700,l),
(350,700,l),
(350,800,l)
);
},
{
attr = {
fillColor = (0,255);
};
closed = 1;
nodes = (
(350,-100,l),
(350,-200,l),
(250,-200,l),
(250,-100,l)
);
},
{
attr = {
fillColor = (0,255);
};
closed = 1;
nodes = (
(250,-100,l),
(250,-200,l),
(150,-200,l),
(150,-100,l)
);
},
{
attr = {
fillColor = (0,255);
};
closed = 1;
nodes = (
(450,0,l),
(450,-100,l),
(350,-100,l),
(350,0,l)
);
},
{
attr = {
fillColor = (0,255);
};
closed = 1;
nodes = (
(550,100,l),
(550,0,l),
(450,0,l),
(450,100,l)
);
},
{
attr = {
fillColor = (0,255);
};
closed = 1;
nodes = (
(650,200,l),
(650,100,l),
(550,100,l),
(550,200,l)
);
},
{
attr = {
fillColor = (0,255);
};
closed = 1;
nodes = (
(650,300,l),
(650,200,l),
(550,200,l),
(550,300,l)
);
}
);
width = 900;
}
);
unicode = 12422;
},
{
glyphname = "yusmall-hira";
lastChange = "2021-03-14 11:06:03 +0000";
layers = (
{
layerId = m01;
shapes = (
{
attr = {
fillColor = (0,255);
};
closed = 1;
nodes = (
(450,300,l),
(450,200,l),
(350,200,l),
(350,300,l)
);
},
{
attr = {
fillColor = (0,255);
};
closed = 1;
nodes = (
(350,300,l),
(350,200,l),
(250,200,l),
(250,300,l)
);
},
{
attr = {
fillColor = (0,255);
};
closed = 1;
nodes = (
(150,300,l),
(150,200,l),
(50,200,l),
(50,300,l)
);
},
{
attr = {
fillColor = (0,255);
};
closed = 1;
nodes = (
(350,400,l),
(350,300,l),
(250,300,l),
(250,400,l)
);
},
{
attr = {
fillColor = (0,255);
};
closed = 1;
nodes = (
(250,400,l),
(250,300,l),
(150,300,l),
(150,400,l)
);
},
{
attr = {
fillColor = (0,255);
};
closed = 1;
nodes = (
(350,500,l),
(350,400,l),
(250,400,l),
(250,500,l)
);
},
{
attr = {
fillColor = (0,255);
};
closed = 1;
nodes = (
(250,500,l),
(250,400,l),
(150,400,l),
(150,500,l)
);
},
{
attr = {
fillColor = (0,255);
};
closed = 1;
nodes = (
(150,0,l),
(150,-100,l),
(50,-100,l),
(50,0,l)
);
},
{
attr = {
fillColor = (0,255);
};
closed = 1;
nodes = (
(250,100,l),
(250,0,l),
(150,0,l),
(150,100,l)
);
},
{
attr = {
fillColor = (0,255);
};
closed = 1;
nodes = (
(350,200,l),
(350,100,l),
(250,100,l),
(250,200,l)
);
}
);
width = 500;
}
);
unicode = 12421;
},
{
glyphname = "yo-hira";
lastChange = "2021-03-11 00:08:29 +0000";
layers = (
{
layerId = m01;
shapes = (
{
attr = {
fillColor = (0,255);
};
closed = 1;
nodes = (
(550,400,l),
(550,300,l),
(450,300,l),
(450,400,l)
);
},
{
attr = {
fillColor = (0,255);
};
closed = 1;
nodes = (
(550,500,l),
(550,400,l),
(450,400,l),
(450,500,l)
);
},
{
attr = {
fillColor = (0,255);
};
closed = 1;
nodes = (
(450,500,l),
(450,400,l),
(350,400,l),
(350,500,l)
);
},
{
attr = {
fillColor = (0,255);
};
closed = 1;
nodes = (
(450,600,l),
(450,500,l),
(350,500,l),
(350,600,l)
);
},
{
attr = {
fillColor = (0,255);
};
closed = 1;
nodes = (
(350,600,l),
(350,500,l),
(250,500,l),
(250,600,l)
);
},
{
attr = {
fillColor = (0,255);
};
closed = 1;
nodes = (
(250,600,l),
(250,500,l),
(150,500,l),
(150,600,l)
);
},
{
attr = {
fillColor = (0,255);
};
closed = 1;
nodes = (
(550,700,l),
(550,600,l),
(450,600,l),
(450,700,l)
);
},
{
attr = {
fillColor = (0,255);
};
closed = 1;
nodes = (
(450,700,l),
(450,600,l),
(350,600,l),
(350,700,l)
);
},
{
attr = {
fillColor = (0,255);
};
closed = 1;
nodes = (
(850,0,l),
(850,-100,l),
(750,-100,l),
(750,0,l)
);
},
{
attr = {
fillColor = (0,255);
};
closed = 1;
nodes = (
(750,0,l),
(750,-100,l),
(650,-100,l),
(650,0,l)
);
},
{
attr = {
fillColor = (0,255);
};
closed = 1;
nodes = (
(650,0,l),
(650,-100,l),
(550,-100,l),
(550,0,l)
);
},
{
attr = {
fillColor = (0,255);
};
closed = 1;
nodes = (
(550,100,l),
(550,0,l),
(450,0,l),
(450,100,l)
);
},
{
attr = {
fillColor = (0,255);
};
closed = 1;
nodes = (
(450,100,l),
(450,0,l),
(350,0,l),
(350,100,l)
);
},
{
attr = {
fillColor = (0,255);
};
closed = 1;
nodes = (
(150,100,l),
(150,0,l),
(50,0,l),
(50,100,l)
);
},
{
attr = {
fillColor = (0,255);
};
closed = 1;
nodes = (
(950,100,l),
(950,0,l),
(850,0,l),
(850,100,l)
);
},
{
attr = {
fillColor = (0,255);
};
closed = 1;
nodes = (
(350,200,l),
(350,100,l),
(250,100,l),
(250,200,l)
);
},
{
attr = {
fillColor = (0,255);
};
closed = 1;
nodes = (
(250,200,l),
(250,100,l),
(150,100,l),
(150,200,l)
);
},
{
attr = {
fillColor = (0,255);
};
closed = 1;
nodes = (
(450,300,l),
(450,200,l),
(350,200,l),
(350,300,l)
);
}
);
width = 1000;
}
);
unicode = 12424;
},
{
glyphname = "yosmall-hira";
lastChange = "2021-03-14 11:06:26 +0000";
layers = (
{
layerId = m01;
shapes = (
{
attr = {
fillColor = (0,255);
};
closed = 1;
nodes = (
(450,300,l),
(450,200,l),
(350,200,l),
(350,300,l)
);
},
{
attr = {
fillColor = (0,255);
};
closed = 1;
nodes = (
(450,400,l),
(450,300,l),
(350,300,l),
(350,400,l)
);
},
{
attr = {
fillColor = (0,255);
};
closed = 1;
nodes = (
(350,400,l),
(350,300,l),
(250,300,l),
(250,400,l)
);
},
{
attr = {
fillColor = (0,255);
};
closed = 1;
nodes = (
(350,500,l),
(350,400,l),
(250,400,l),
(250,500,l)
);
},
{
attr = {
fillColor = (0,255);
};
closed = 1;
nodes = (
(250,500,l),
(250,400,l),
(150,400,l),
(150,500,l)
);
},
{
attr = {
fillColor = (0,255);
};
closed = 1;
nodes = (
(550,0,l),
(550,-100,l),
(450,-100,l),
(450,0,l)
);
},
{
attr = {
fillColor = (0,255);
};
closed = 1;
nodes = (
(450,0,l),
(450,-100,l),
(350,-100,l),
(350,0,l)
);
},
{
attr = {
fillColor = (0,255);
};
closed = 1;
nodes = (
(450,100,l),
(450,0,l),
(350,0,l),
(350,100,l)
);
},
{
attr = {
fillColor = (0,255);
};
closed = 1;
nodes = (
(250,100,l),
(250,0,l),
(150,0,l),
(150,100,l)
);
},
{
attr = {
fillColor = (0,255);
};
closed = 1;
nodes = (
(150,100,l),
(150,0,l),
(50,0,l),
(50,100,l)
);
},
{
attr = {
fillColor = (0,255);
};
closed = 1;
nodes = (
(350,200,l),
(350,100,l),
(250,100,l),
(250,200,l)
);
}
);
width = 600;
}
);
unicode = 12423;
},
{
glyphname = "ra-hira";
lastChange = "2021-03-11 15:08:41 +0000";
layers = (
{
layerId = m01;
shapes = (
{
attr = {
fillColor = (0,255);
};
closed = 1;
nodes = (
(450,400,l),
(450,300,l),
(350,300,l),
(350,400,l)
);
},
{
attr = {
fillColor = (0,255);
};
closed = 1;
nodes = (
(250,400,l),
(250,300,l),
(150,300,l),
(150,400,l)
);
},
{
attr = {
fillColor = (0,255);
};
closed = 1;
nodes = (
(650,400,l),
(650,300,l),
(550,300,l),
(550,400,l)
);
},
{
attr = {
fillColor = (0,255);
};
closed = 1;
nodes = (
(550,500,l),
(550,400,l),
(450,400,l),
(450,500,l)
);
},
{
attr = {
fillColor = (0,255);
};
closed = 1;
nodes = (
(450,500,l),
(450,400,l),
(350,400,l),
(350,500,l)
);
},
{
attr = {
fillColor = (0,255);
};
closed = 1;
nodes = (
(350,500,l),
(350,400,l),
(250,400,l),
(250,500,l)
);
},
{
attr = {
fillColor = (0,255);
};
closed = 1;
nodes = (
(550,600,l),
(550,500,l),
(450,500,l),
(450,600,l)
);
},
{
attr = {
fillColor = (0,255);
};
closed = 1;
nodes = (
(350,700,l),
(350,600,l),
(250,600,l),
(250,700,l)
);
},
{
attr = {
fillColor = (0,255);
};
closed = 1;
nodes = (
(250,700,l),
(250,600,l),
(150,600,l),
(150,700,l)
);
},
{
attr = {
fillColor = (0,255);
};
closed = 1;
nodes = (
(650,700,l),
(650,600,l),
(550,600,l),
(550,700,l)
);
},
{
attr = {
fillColor = (0,255);
};
closed = 1;
nodes = (
(550,800,l),
(550,700,l),
(450,700,l),
(450,800,l)
);
},
{
attr = {
fillColor = (0,255);
};
closed = 1;
nodes = (
(450,800,l),
(450,700,l),
(350,700,l),
(350,800,l)
);
},
{
attr = {
fillColor = (0,255);
};
closed = 1;
nodes = (
(650,800,l),
(650,700,l),
(550,700,l),
(550,800,l)
);
},
{
attr = {
fillColor = (0,255);
};
closed = 1;
nodes = (
(350,-100,l),
(350,-200,l),
(250,-200,l),
(250,-100,l)
);
},
{
attr = {
fillColor = (0,255);
};
closed = 1;
nodes = (
(250,-100,l),
(250,-200,l),
(150,-200,l),
(150,-100,l)
);
},
{
attr = {
fillColor = (0,255);
};
closed = 1;
nodes = (
(450,0,l),
(450,-100,l),
(350,-100,l),
(350,0,l)
);
},
{
attr = {
fillColor = (0,255);
};
closed = 1;
nodes = (
(550,100,l),
(550,0,l),
(450,0,l),
(450,100,l)
);
},
{
attr = {
fillColor = (0,255);
};
closed = 1;
nodes = (
(250,200,l),
(250,100,l),
(150,100,l),
(150,200,l)
);
},
{
attr = {
fillColor = (0,255);
};
closed = 1;
nodes = (
(650,200,l),
(650,100,l),
(550,100,l),
(550,200,l)
);
},
{
attr = {
fillColor = (0,255);
};
closed = 1;
nodes = (
(350,300,l),
(350,200,l),
(250,200,l),
(250,300,l)
);
},
{
attr = {
fillColor = (0,255);
};
closed = 1;
nodes = (
(150,300,l),
(150,200,l),
(50,200,l),
(50,300,l)
);
},
{
attr = {
fillColor = (0,255);
};
closed = 1;
nodes = (
(650,300,l),
(650,200,l),
(550,200,l),
(550,300,l)
);
}
);
width = 700;
}
);
unicode = 12425;
},
{
glyphname = "ri-hira";
lastChange = "2021-03-11 15:11:23 +0000";
layers = (
{
layerId = m01;
shapes = (
{
attr = {
fillColor = (0,255);
};
closed = 1;
nodes = (
(550,400,l),
(550,300,l),
(450,300,l),
(450,400,l)
);
},
{
attr = {
fillColor = (0,255);
};
closed = 1;
nodes = (
(350,400,l),
(350,300,l),
(250,300,l),
(250,400,l)
);
},
{
attr = {
fillColor = (0,255);
};
closed = 1;
nodes = (
(650,400,l),
(650,300,l),
(550,300,l),
(550,400,l)
);
},
{
attr = {
fillColor = (0,255);
};
closed = 1;
nodes = (
(550,500,l),
(550,400,l),
(450,400,l),
(450,500,l)
);
},
{
attr = {
fillColor = (0,255);
};
closed = 1;
nodes = (
(350,500,l),
(350,400,l),
(250,400,l),
(250,500,l)
);
},
{
attr = {
fillColor = (0,255);
};
closed = 1;
nodes = (
(250,500,l),
(250,400,l),
(150,400,l),
(150,500,l)
);
},
{
attr = {
fillColor = (0,255);
};
closed = 1;
nodes = (
(750,500,l),
(750,400,l),
(650,400,l),
(650,500,l)
);
},
{
attr = {
fillColor = (0,255);
};
closed = 1;
nodes = (
(550,600,l),
(550,500,l),
(450,500,l),
(450,600,l)
);
},
{
attr = {
fillColor = (0,255);
};
closed = 1;
nodes = (
(550,700,l),
(550,600,l),
(450,600,l),
(450,700,l)
);
},
{
attr = {
fillColor = (0,255);
};
closed = 1;
nodes = (
(550,800,l),
(550,700,l),
(450,700,l),
(450,800,l)
);
},
{
attr = {
fillColor = (0,255);
};
closed = 1;
nodes = (
(450,800,l),
(450,700,l),
(350,700,l),
(350,800,l)
);
},
{
attr = {
fillColor = (0,255);
};
closed = 1;
nodes = (
(550,-100,l),
(550,-200,l),
(450,-200,l),
(450,-100,l)
);
},
{
attr = {
fillColor = (0,255);
};
closed = 1;
nodes = (
(550,0,l),
(550,-100,l),
(450,-100,l),
(450,0,l)
);
},
{
attr = {
fillColor = (0,255);
};
closed = 1;
nodes = (
(550,100,l),
(550,0,l),
(450,0,l),
(450,100,l)
);
},
{
attr = {
fillColor = (0,255);
};
closed = 1;
nodes = (
(250,100,l),
(250,0,l),
(150,0,l),
(150,100,l)
);
},
{
attr = {
fillColor = (0,255);
};
closed = 1;
nodes = (
(150,100,l),
(150,0,l),
(50,0,l),
(50,100,l)
);
},
{
attr = {
fillColor = (0,255);
};
closed = 1;
nodes = (
(950,100,l),
(950,0,l),
(850,0,l),
(850,100,l)
);
},
{
attr = {
fillColor = (0,255);
};
closed = 1;
nodes = (
(850,100,l),
(850,0,l),
(750,0,l),
(750,100,l)
);
},
{
attr = {
fillColor = (0,255);
};
closed = 1;
nodes = (
(550,200,l),
(550,100,l),
(450,100,l),
(450,200,l)
);
},
{
attr = {
fillColor = (0,255);
};
closed = 1;
nodes = (
(350,200,l),
(350,100,l),
(250,100,l),
(250,200,l)
);
},
{
attr = {
fillColor = (0,255);
};
closed = 1;
nodes = (
(750,200,l),
(750,100,l),
(650,100,l),
(650,200,l)
);
},
{
attr = {
fillColor = (0,255);
};
closed = 1;
nodes = (
(550,300,l),
(550,200,l),
(450,200,l),
(450,300,l)
);
},
{
attr = {
fillColor = (0,255);
};
closed = 1;
nodes = (
(450,300,l),
(450,200,l),
(350,200,l),
(350,300,l)
);
},
{
attr = {
fillColor = (0,255);
};
closed = 1;
nodes = (
(350,300,l),
(350,200,l),
(250,200,l),
(250,300,l)
);
},
{
attr = {
fillColor = (0,255);
};
closed = 1;
nodes = (
(250,300,l),
(250,200,l),
(150,200,l),
(150,300,l)
);
},
{
attr = {
fillColor = (0,255);
};
closed = 1;
nodes = (
(650,300,l),
(650,200,l),
(550,200,l),
(550,300,l)
);
}
);
width = 1000;
}
);
unicode = 12426;
},
{
glyphname = "ru-hira";
lastChange = "2021-03-11 15:12:07 +0000";
layers = (
{
layerId = m01;
shapes = (
{
attr = {
fillColor = (0,255);
};
closed = 1;
nodes = (
(550,400,l),
(550,300,l),
(450,300,l),
(450,400,l)
);
},
{
attr = {
fillColor = (0,255);
};
closed = 1;
nodes = (
(350,400,l),
(350,300,l),
(250,300,l),
(250,400,l)
);
},
{
attr = {
fillColor = (0,255);
};
closed = 1;
nodes = (
(550,500,l),
(550,400,l),
(450,400,l),
(450,500,l)
);
},
{
attr = {
fillColor = (0,255);
};
closed = 1;
nodes = (
(350,500,l),
(350,400,l),
(250,400,l),
(250,500,l)
);
},
{
attr = {
fillColor = (0,255);
};
closed = 1;
nodes = (
(250,500,l),
(250,400,l),
(150,400,l),
(150,500,l)
);
},
{
attr = {
fillColor = (0,255);
};
closed = 1;
nodes = (
(550,600,l),
(550,500,l),
(450,500,l),
(450,600,l)
);
},
{
attr = {
fillColor = (0,255);
};
closed = 1;
nodes = (
(550,700,l),
(550,600,l),
(450,600,l),
(450,700,l)
);
},
{
attr = {
fillColor = (0,255);
};
closed = 1;
nodes = (
(650,700,l),
(650,600,l),
(550,600,l),
(550,700,l)
);
},
{
attr = {
fillColor = (0,255);
};
closed = 1;
nodes = (
(550,800,l),
(550,700,l),
(450,700,l),
(450,800,l)
);
},
{
attr = {
fillColor = (0,255);
};
closed = 1;
nodes = (
(550,-100,l),
(550,-200,l),
(450,-200,l),
(450,-100,l)
);
},
{
attr = {
fillColor = (0,255);
};
closed = 1;
nodes = (
(550,0,l),
(550,-100,l),
(450,-100,l),
(450,0,l)
);
},
{
attr = {
fillColor = (0,255);
};
closed = 1;
nodes = (
(550,100,l),
(550,0,l),
(450,0,l),
(450,100,l)
);
},
{
attr = {
fillColor = (0,255);
};
closed = 1;
nodes = (
(450,100,l),
(450,0,l),
(350,0,l),
(350,100,l)
);
},
{
attr = {
fillColor = (0,255);
};
closed = 1;
nodes = (
(250,100,l),
(250,0,l),
(150,0,l),
(150,100,l)
);
},
{
attr = {
fillColor = (0,255);
};
closed = 1;
nodes = (
(150,100,l),
(150,0,l),
(50,0,l),
(50,100,l)
);
},
{
attr = {
fillColor = (0,255);
};
closed = 1;
nodes = (
(550,200,l),
(550,100,l),
(450,100,l),
(450,200,l)
);
},
{
attr = {
fillColor = (0,255);
};
closed = 1;
nodes = (
(350,200,l),
(350,100,l),
(250,100,l),
(250,200,l)
);
},
{
attr = {
fillColor = (0,255);
};
closed = 1;
nodes = (
(750,200,l),
(750,100,l),
(650,100,l),
(650,200,l)
);
},
{
attr = {
fillColor = (0,255);
};
closed = 1;
nodes = (
(650,200,l),
(650,100,l),
(550,100,l),
(550,200,l)
);
},
{
attr = {
fillColor = (0,255);
};
closed = 1;
nodes = (
(550,300,l),
(550,200,l),
(450,200,l),
(450,300,l)
);
},
{
attr = {
fillColor = (0,255);
};
closed = 1;
nodes = (
(450,300,l),
(450,200,l),
(350,200,l),
(350,300,l)
);
},
{
attr = {
fillColor = (0,255);
};
closed = 1;
nodes = (
(350,300,l),
(350,200,l),
(250,200,l),
(250,300,l)
);
},
{
attr = {
fillColor = (0,255);
};
closed = 1;
nodes = (
(250,300,l),
(250,200,l),
(150,200,l),
(150,300,l)
);
},
{
attr = {
fillColor = (0,255);
};
closed = 1;
nodes = (
(950,300,l),
(950,200,l),
(850,200,l),
(850,300,l)
);
},
{
attr = {
fillColor = (0,255);
};
closed = 1;
nodes = (
(850,300,l),
(850,200,l),
(750,200,l),
(750,300,l)
);
}
);
width = 1000;
}
);
unicode = 12427;
},
{
glyphname = "re-hira";
lastChange = "2021-03-11 15:12:36 +0000";
layers = (
{
layerId = m01;
shapes = (
{
attr = {
fillColor = (0,255);
};
closed = 1;
nodes = (
(550,400,l),
(550,300,l),
(450,300,l),
(450,400,l)
);
},
{
attr = {
fillColor = (0,255);
};
closed = 1;
nodes = (
(450,400,l),
(450,300,l),
(350,300,l),
(350,400,l)
);
},
{
attr = {
fillColor = (0,255);
};
closed = 1;
nodes = (
(250,400,l),
(250,300,l),
(150,300,l),
(150,400,l)
);
},
{
attr = {
fillColor = (0,255);
};
closed = 1;
nodes = (
(550,500,l),
(550,400,l),
(450,400,l),
(450,500,l)
);
},
{
attr = {
fillColor = (0,255);
};
closed = 1;
nodes = (
(450,600,l),
(450,500,l),
(350,500,l),
(350,600,l)
);
},
{
attr = {
fillColor = (0,255);
};
closed = 1;
nodes = (
(450,700,l),
(450,600,l),
(350,600,l),
(350,700,l)
);
},
{
attr = {
fillColor = (0,255);
};
closed = 1;
nodes = (
(250,700,l),
(250,600,l),
(150,600,l),
(150,700,l)
);
},
{
attr = {
fillColor = (0,255);
};
closed = 1;
nodes = (
(550,800,l),
(550,700,l),
(450,700,l),
(450,800,l)
);
},
{
attr = {
fillColor = (0,255);
};
closed = 1;
nodes = (
(450,800,l),
(450,700,l),
(350,700,l),
(350,800,l)
);
},
{
attr = {
fillColor = (0,255);
};
closed = 1;
nodes = (
(350,800,l),
(350,700,l),
(250,700,l),
(250,800,l)
);
},
{
attr = {
fillColor = (0,255);
};
closed = 1;
nodes = (
(150,-100,l),
(150,-200,l),
(50,-200,l),
(50,-100,l)
);
},
{
attr = {
fillColor = (0,255);
};
closed = 1;
nodes = (
(150,0,l),
(150,-100,l),
(50,-100,l),
(50,0,l)
);
},
{
attr = {
fillColor = (0,255);
};
closed = 1;
nodes = (
(150,100,l),
(150,0,l),
(50,0,l),
(50,100,l)
);
},
{
attr = {
fillColor = (0,255);
};
closed = 1;
nodes = (
(450,200,l),
(450,100,l),
(350,100,l),
(350,200,l)
);
},
{
attr = {
fillColor = (0,255);
};
closed = 1;
nodes = (
(350,200,l),
(350,100,l),
(250,100,l),
(250,200,l)
);
},
{
attr = {
fillColor = (0,255);
};
closed = 1;
nodes = (
(250,200,l),
(250,100,l),
(150,100,l),
(150,200,l)
);
},
{
attr = {
fillColor = (0,255);
};
closed = 1;
nodes = (
(350,300,l),
(350,200,l),
(250,200,l),
(250,300,l)
);
}
);
width = 600;
}
);
unicode = 12428;
},
{
glyphname = "ro-hira";
lastChange = "2021-03-11 15:13:00 +0000";
layers = (
{
layerId = m01;
shapes = (
{
attr = {
fillColor = (0,255);
};
closed = 1;
nodes = (
(550,390,l),
(550,290,l),
(450,290,l),
(450,390,l)
);
},
{
attr = {
fillColor = (0,255);
};
closed = 1;
nodes = (
(550,490,l),
(550,390,l),
(450,390,l),
(450,490,l)
);
},
{
attr = {
fillColor = (0,255);
};
closed = 1;
nodes = (
(450,490,l),
(450,390,l),
(350,390,l),
(350,490,l)
);
},
{
attr = {
fillColor = (0,255);
};
closed = 1;
nodes = (
(650,490,l),
(650,390,l),
(550,390,l),
(550,490,l)
);
},
{
attr = {
fillColor = (0,255);
};
closed = 1;
nodes = (
(550,590,l),
(550,490,l),
(450,490,l),
(450,590,l)
);
},
{
attr = {
fillColor = (0,255);
};
closed = 1;
nodes = (
(550,690,l),
(550,590,l),
(450,590,l),
(450,690,l)
);
},
{
attr = {
fillColor = (0,255);
};
closed = 1;
nodes = (
(450,690,l),
(450,590,l),
(350,590,l),
(350,690,l)
);
},
{
attr = {
fillColor = (0,255);
};
closed = 1;
nodes = (
(350,690,l),
(350,590,l),
(250,590,l),
(250,690,l)
);
},
{
attr = {
fillColor = (0,255);
};
closed = 1;
nodes = (
(650,690,l),
(650,590,l),
(550,590,l),
(550,690,l)
);
},
{
attr = {
fillColor = (0,255);
};
closed = 1;
nodes = (
(850,-10,l),
(850,-110,l),
(750,-110,l),
(750,-10,l)
);
},
{
attr = {
fillColor = (0,255);
};
closed = 1;
nodes = (
(750,-10,l),
(750,-110,l),
(650,-110,l),
(650,-10,l)
);
},
{
attr = {
fillColor = (0,255);
};
closed = 1;
nodes = (
(650,-10,l),
(650,-110,l),
(550,-110,l),
(550,-10,l)
);
},
{
attr = {
fillColor = (0,255);
};
closed = 1;
nodes = (
(550,90,l),
(550,-10,l),
(450,-10,l),
(450,90,l)
);
},
{
attr = {
fillColor = (0,255);
};
closed = 1;
nodes = (
(450,90,l),
(450,-10,l),
(350,-10,l),
(350,90,l)
);
},
{
attr = {
fillColor = (0,255);
};
closed = 1;
nodes = (
(150,90,l),
(150,-10,l),
(50,-10,l),
(50,90,l)
);
},
{
attr = {
fillColor = (0,255);
};
closed = 1;
nodes = (
(950,90,l),
(950,-10,l),
(850,-10,l),
(850,90,l)
);
},
{
attr = {
fillColor = (0,255);
};
closed = 1;
nodes = (
(350,190,l),
(350,90,l),
(250,90,l),
(250,190,l)
);
},
{
attr = {
fillColor = (0,255);
};
closed = 1;
nodes = (
(250,190,l),
(250,90,l),
(150,90,l),
(150,190,l)
);
},
{
attr = {
fillColor = (0,255);
};
closed = 1;
nodes = (
(450,290,l),
(450,190,l),
(350,190,l),
(350,290,l)
);
}
);
width = 1000;
}
);
unicode = 12429;
},
{
glyphname = "wa-hira";
lastChange = "2021-03-11 15:16:22 +0000";
layers = (
{
layerId = m01;
shapes = (
{
attr = {
fillColor = (0,255);
};
closed = 1;
nodes = (
(450,400,l),
(450,300,l),
(350,300,l),
(350,400,l)
);
},
{
attr = {
fillColor = (0,255);
};
closed = 1;
nodes = (
(350,400,l),
(350,300,l),
(250,300,l),
(250,400,l)
);
},
{
attr = {
fillColor = (0,255);
};
closed = 1;
nodes = (
(150,400,l),
(150,300,l),
(50,300,l),
(50,400,l)
);
},
{
attr = {
fillColor = (0,255);
};
closed = 1;
nodes = (
(750,400,l),
(750,300,l),
(650,300,l),
(650,400,l)
);
},
{
attr = {
fillColor = (0,255);
};
closed = 1;
nodes = (
(650,400,l),
(650,300,l),
(550,300,l),
(550,400,l)
);
},
{
attr = {
fillColor = (0,255);
};
closed = 1;
nodes = (
(450,500,l),
(450,400,l),
(350,400,l),
(350,500,l)
);
},
{
attr = {
fillColor = (0,255);
};
closed = 1;
nodes = (
(250,500,l),
(250,400,l),
(150,400,l),
(150,500,l)
);
},
{
attr = {
fillColor = (0,255);
};
closed = 1;
nodes = (
(750,500,l),
(750,400,l),
(650,400,l),
(650,500,l)
);
},
{
attr = {
fillColor = (0,255);
};
closed = 1;
nodes = (
(450,600,l),
(450,500,l),
(350,500,l),
(350,600,l)
);
},
{
attr = {
fillColor = (0,255);
};
closed = 1;
nodes = (
(550,700,l),
(550,600,l),
(450,600,l),
(450,700,l)
);
},
{
attr = {
fillColor = (0,255);
};
closed = 1;
nodes = (
(450,700,l),
(450,600,l),
(350,600,l),
(350,700,l)
);
},
{
attr = {
fillColor = (0,255);
};
closed = 1;
nodes = (
(450,800,l),
(450,700,l),
(350,700,l),
(350,800,l)
);
},
{
attr = {
fillColor = (0,255);
};
closed = 1;
nodes = (
(450,-100,l),
(450,-200,l),
(350,-200,l),
(350,-100,l)
);
},
{
attr = {
fillColor = (0,255);
};
closed = 1;
nodes = (
(450,0,l),
(450,-100,l),
(350,-100,l),
(350,0,l)
);
},
{
attr = {
fillColor = (0,255);
};
closed = 1;
nodes = (
(450,100,l),
(450,0,l),
(350,0,l),
(350,100,l)
);
},
{
attr = {
fillColor = (0,255);
};
closed = 1;
nodes = (
(450,200,l),
(450,100,l),
(350,100,l),
(350,200,l)
);
},
{
attr = {
fillColor = (0,255);
};
closed = 1;
nodes = (
(350,200,l),
(350,100,l),
(250,100,l),
(250,200,l)
);
},
{
attr = {
fillColor = (0,255);
};
closed = 1;
nodes = (
(250,200,l),
(250,100,l),
(150,100,l),
(150,200,l)
);
},
{
attr = {
fillColor = (0,255);
};
closed = 1;
nodes = (
(150,200,l),
(150,100,l),
(50,100,l),
(50,200,l)
);
},
{
attr = {
fillColor = (0,255);
};
closed = 1;
nodes = (
(550,300,l),
(550,200,l),
(450,200,l),
(450,300,l)
);
},
{
attr = {
fillColor = (0,255);
};
closed = 1;
nodes = (
(450,300,l),
(450,200,l),
(350,200,l),
(350,300,l)
);
},
{
attr = {
fillColor = (0,255);
};
closed = 1;
nodes = (
(250,300,l),
(250,200,l),
(150,200,l),
(150,300,l)
);
}
);
width = 800;
}
);
unicode = 12431;
},
{
glyphname = "wo-hira";
lastChange = "2021-03-11 15:16:03 +0000";
layers = (
{
layerId = m01;
shapes = (
{
attr = {
fillColor = (0,255);
};
closed = 1;
nodes = (
(550,400,l),
(550,300,l),
(450,300,l),
(450,400,l)
);
},
{
attr = {
fillColor = (0,255);
};
closed = 1;
nodes = (
(350,400,l),
(350,300,l),
(250,300,l),
(250,400,l)
);
},
{
attr = {
fillColor = (0,255);
};
closed = 1;
nodes = (
(250,400,l),
(250,300,l),
(150,300,l),
(150,400,l)
);
},
{
attr = {
fillColor = (0,255);
};
closed = 1;
nodes = (
(550,500,l),
(550,400,l),
(450,400,l),
(450,500,l)
);
},
{
attr = {
fillColor = (0,255);
};
closed = 1;
nodes = (
(450,600,l),
(450,500,l),
(350,500,l),
(350,600,l)
);
},
{
attr = {
fillColor = (0,255);
};
closed = 1;
nodes = (
(350,600,l),
(350,500,l),
(250,500,l),
(250,600,l)
);
},
{
attr = {
fillColor = (0,255);
};
closed = 1;
nodes = (
(450,700,l),
(450,600,l),
(350,600,l),
(350,700,l)
);
},
{
attr = {
fillColor = (0,255);
};
closed = 1;
nodes = (
(250,700,l),
(250,600,l),
(150,600,l),
(150,700,l)
);
},
{
attr = {
fillColor = (0,255);
};
closed = 1;
nodes = (
(550,800,l),
(550,700,l),
(450,700,l),
(450,800,l)
);
},
{
attr = {
fillColor = (0,255);
};
closed = 1;
nodes = (
(850,-100,l),
(850,-200,l),
(750,-200,l),
(750,-100,l)
);
},
{
attr = {
fillColor = (0,255);
};
closed = 1;
nodes = (
(750,-100,l),
(750,-200,l),
(650,-200,l),
(650,-100,l)
);
},
{
attr = {
fillColor = (0,255);
};
closed = 1;
nodes = (
(150,0,l),
(150,-100,l),
(50,-100,l),
(50,0,l)
);
},
{
attr = {
fillColor = (0,255);
};
closed = 1;
nodes = (
(950,0,l),
(950,-100,l),
(850,-100,l),
(850,0,l)
);
},
{
attr = {
fillColor = (0,255);
};
closed = 1;
nodes = (
(650,0,l),
(650,-100,l),
(550,-100,l),
(550,0,l)
);
},
{
attr = {
fillColor = (0,255);
};
closed = 1;
nodes = (
(550,100,l),
(550,0,l),
(450,0,l),
(450,100,l)
);
},
{
attr = {
fillColor = (0,255);
};
closed = 1;
nodes = (
(350,100,l),
(350,0,l),
(250,0,l),
(250,100,l)
);
},
{
attr = {
fillColor = (0,255);
};
closed = 1;
nodes = (
(250,100,l),
(250,0,l),
(150,0,l),
(150,100,l)
);
},
{
attr = {
fillColor = (0,255);
};
closed = 1;
nodes = (
(650,100,l),
(650,0,l),
(550,0,l),
(550,100,l)
);
},
{
attr = {
fillColor = (0,255);
};
closed = 1;
nodes = (
(550,200,l),
(550,100,l),
(450,100,l),
(450,200,l)
);
},
{
attr = {
fillColor = (0,255);
};
closed = 1;
nodes = (
(250,200,l),
(250,100,l),
(150,100,l),
(150,200,l)
);
},
{
attr = {
fillColor = (0,255);
};
closed = 1;
nodes = (
(550,300,l),
(550,200,l),
(450,200,l),
(450,300,l)
);
},
{
attr = {
fillColor = (0,255);
};
closed = 1;
nodes = (
(350,300,l),
(350,200,l),
(250,200,l),
(250,300,l)
);
},
{
attr = {
fillColor = (0,255);
};
closed = 1;
nodes = (
(150,300,l),
(150,200,l),
(50,200,l),
(50,300,l)
);
}
);
width = 1000;
}
);
unicode = 12434;
},
{
glyphname = "n-hira";
lastChange = "2021-03-11 15:14:23 +0000";
layers = (
{
layerId = m01;
shapes = (
{
attr = {
fillColor = (0,255);
};
closed = 1;
nodes = (
(550,400,l),
(550,300,l),
(450,300,l),
(450,400,l)
);
},
{
attr = {
fillColor = (0,255);
};
closed = 1;
nodes = (
(250,500,l),
(250,400,l),
(150,400,l),
(150,500,l)
);
},
{
attr = {
fillColor = (0,255);
};
closed = 1;
nodes = (
(150,500,l),
(150,400,l),
(50,400,l),
(50,500,l)
);
},
{
attr = {
fillColor = (0,255);
};
closed = 1;
nodes = (
(650,500,l),
(650,400,l),
(550,400,l),
(550,500,l)
);
},
{
attr = {
fillColor = (0,255);
};
closed = 1;
nodes = (
(550,600,l),
(550,500,l),
(450,500,l),
(450,600,l)
);
},
{
attr = {
fillColor = (0,255);
};
closed = 1;
nodes = (
(450,600,l),
(450,500,l),
(350,500,l),
(350,600,l)
);
},
{
attr = {
fillColor = (0,255);
};
closed = 1;
nodes = (
(350,600,l),
(350,500,l),
(250,500,l),
(250,600,l)
);
},
{
attr = {
fillColor = (0,255);
};
closed = 1;
nodes = (
(150,600,l),
(150,500,l),
(50,500,l),
(50,600,l)
);
},
{
attr = {
fillColor = (0,255);
};
closed = 1;
nodes = (
(550,100,l),
(550,0,l),
(450,0,l),
(450,100,l)
);
},
{
attr = {
fillColor = (0,255);
};
closed = 1;
nodes = (
(450,200,l),
(450,100,l),
(350,100,l),
(350,200,l)
);
},
{
attr = {
fillColor = (0,255);
};
closed = 1;
nodes = (
(450,300,l),
(450,200,l),
(350,200,l),
(350,300,l)
);
}
);
width = 700;
}
);
unicode = 12435;
},
{
glyphname = zero;
lastChange = "2021-03-14 16:13:45 +0000";
layers = (
{
layerId = m01;
shapes = (
{
attr = {
fillColor = (0,255);
};
closed = 1;
nodes = (
(550,300,l),
(550,200,l),
(450,200,l),
(450,300,l)
);
},
{
attr = {
fillColor = (0,255);
};
closed = 1;
nodes = (
(350,300,l),
(350,200,l),
(250,200,l),
(250,300,l)
);
},
{
attr = {
fillColor = (0,255);
};
closed = 1;
nodes = (
(150,300,l),
(150,200,l),
(50,200,l),
(50,300,l)
);
},
{
attr = {
fillColor = (0,255);
};
closed = 1;
nodes = (
(450,400,l),
(450,300,l),
(350,300,l),
(350,400,l)
);
},
{
attr = {
fillColor = (0,255);
};
closed = 1;
nodes = (
(350,400,l),
(350,300,l),
(250,300,l),
(250,400,l)
);
},
{
attr = {
fillColor = (0,255);
};
closed = 1;
nodes = (
(250,400,l),
(250,300,l),
(150,300,l),
(150,400,l)
);
},
{
attr = {
fillColor = (0,255);
};
closed = 1;
nodes = (
(450,100,l),
(450,0,l),
(350,0,l),
(350,100,l)
);
},
{
attr = {
fillColor = (0,255);
};
closed = 1;
nodes = (
(550,200,l),
(550,100,l),
(450,100,l),
(450,200,l)
);
},
{
attr = {
fillColor = (0,255);
};
closed = 1;
nodes = (
(250,200,l),
(250,100,l),
(150,100,l),
(150,200,l)
);
},
{
attr = {
fillColor = (0,255);
};
closed = 1;
nodes = (
(150,200,l),
(150,100,l),
(50,100,l),
(50,200,l)
);
}
);
width = 600;
}
);
unicode = 48;
},
{
glyphname = one;
lastChange = "2021-03-14 16:14:32 +0000";
layers = (
{
layerId = m01;
shapes = (
{
attr = {
fillColor = (0,255);
};
closed = 1;
nodes = (
(250,200,l),
(250,100,l),
(150,100,l),
(150,200,l)
);
},
{
attr = {
fillColor = (0,255);
};
closed = 1;
nodes = (
(250,300,l),
(250,200,l),
(150,200,l),
(150,300,l)
);
},
{
attr = {
fillColor = (0,255);
};
closed = 1;
nodes = (
(250,400,l),
(250,300,l),
(150,300,l),
(150,400,l)
);
},
{
attr = {
fillColor = (0,255);
};
closed = 1;
nodes = (
(250,500,l),
(250,400,l),
(150,400,l),
(150,500,l)
);
},
{
attr = {
fillColor = (0,255);
};
closed = 1;
nodes = (
(350,600,l),
(350,500,l),
(250,500,l),
(250,600,l)
);
},
{
attr = {
fillColor = (0,255);
};
closed = 1;
nodes = (
(150,-100,l),
(150,-200,l),
(50,-200,l),
(50,-100,l)
);
},
{
attr = {
fillColor = (0,255);
};
closed = 1;
nodes = (
(250,0,l),
(250,-100,l),
(150,-100,l),
(150,0,l)
);
},
{
attr = {
fillColor = (0,255);
};
closed = 1;
nodes = (
(250,100,l),
(250,0,l),
(150,0,l),
(150,100,l)
);
}
);
width = 400;
}
);
unicode = 49;
},
{
glyphname = two;
lastChange = "2021-03-14 16:15:39 +0000";
layers = (
{
layerId = m01;
shapes = (
{
attr = {
fillColor = (0,255);
};
closed = 1;
nodes = (
(250,200,l),
(250,100,l),
(150,100,l),
(150,200,l)
);
},
{
attr = {
fillColor = (0,255);
};
closed = 1;
nodes = (
(250,300,l),
(250,200,l),
(150,200,l),
(150,300,l)
);
},
{
attr = {
fillColor = (0,255);
};
closed = 1;
nodes = (
(350,400,l),
(350,300,l),
(250,300,l),
(250,400,l)
);
},
{
attr = {
fillColor = (0,255);
};
closed = 1;
nodes = (
(250,400,l),
(250,300,l),
(150,300,l),
(150,400,l)
);
},
{
attr = {
fillColor = (0,255);
};
closed = 1;
nodes = (
(250,500,l),
(250,400,l),
(150,400,l),
(150,500,l)
);
},
{
attr = {
fillColor = (0,255);
};
closed = 1;
nodes = (
(350,600,l),
(350,500,l),
(250,500,l),
(250,600,l)
);
},
{
attr = {
fillColor = (0,255);
};
closed = 1;
nodes = (
(150,-100,l),
(150,-200,l),
(50,-200,l),
(50,-100,l)
);
},
{
attr = {
fillColor = (0,255);
};
closed = 1;
nodes = (
(250,0,l),
(250,-100,l),
(150,-100,l),
(150,0,l)
);
},
{
attr = {
fillColor = (0,255);
};
closed = 1;
nodes = (
(250,100,l),
(250,0,l),
(150,0,l),
(150,100,l)
);
}
);
width = 400;
}
);
unicode = 50;
},
